<svg xmlns="http://www.w3.org/2000/svg" data-name="Слой 1" viewBox="0 0 100 125" x="0px" y="0px"><title>arrow 12</title><g><path d="M61.32,39.74135c1.15607-2.24158,3.62756-4.22314,5.30511-5.66a37.057,37.057,0,0,1,5.77521-4.35785,0.73961,0.73961,0,0,0-.0603-0.18823,36.23381,36.23381,0,0,0-2.13129-3.49738C64.80757,18.44588,59.48023,10.81,55.1294,2.52559c-0.06836.46326-.16,1.08429-0.24042,1.62958-0.5058-.04181-0.99042-0.08191-1.37091-0.11334,0.34888-.699.6933-1.38892,1.03766-2.0788L54.056,1.66665c-0.5351.56641-1.09338,1.113-1.60016,1.70367-0.82776.9646-1.55829,2.02-2.44226,2.92749C47.38148,9,44.60676,11.56765,42.04884,14.33663A67.68228,67.68228,0,0,0,31.09242,29.74971c-1.09668,2.17694-2.22418,4.341-3.22571,6.5614a3.1963,3.1963,0,0,0-.17175,1.97223c1.38586,0.07843,2.77228.14746,4.16125,0.16064a2.37944,2.37944,0,0,1,1.095.26624H37.1103a20.14189,20.14189,0,0,0-1.93719,4.05292c-1.081,4.79382-1.84137,9.66-2.92187,14.45392A65.6667,65.6667,0,0,0,31.108,74.72219c0.17291,3.87146.12445,7.75714,1.40936,11.53027,1.22681,3.60254,2.15814,7.3064,3.19531,10.97253,0.39355,1.39105,1.31525,1.20142,2.32855.87286a3.07492,3.07492,0,0,1,.89716-0.19537c2.37756-.01831,4.75543-0.0116,7.13312-0.01953a3.547,3.547,0,0,0,.7887-0.07513c1.2052-.28125,2.403-0.59424,3.60938-0.86975,1.89221-.43225,3.85437-0.66632,5.42-1.92657-6.07086.67932-12.14185,1.35858-18.33893,2.052A3.22334,3.22334,0,0,1,37.24256,96.53c-0.454-1.1347-.91339-2.26819-1.32727-3.41785-2.31128-6.42065-2.12012-13.19586-2.4472-19.8363-0.26056-5.28949.55408-10.62726,0.80078-15.94775a52.8213,52.8213,0,0,1,3.71887-16.5c0.55157-1.44092,1.29083-2.70612,3.15649-2.63849a1.80934,1.80934,0,0,0,.73993-0.45685l-0.01288-.52466-12.102-.88855c1.56848-1.90009,2.08228-4.0022,4.0564-5.51855,1.91168-1.46851,2.82037-4.18683,4.34937-6.22113,3.19983-4.25751,6.4931-8.44568,9.7981-12.62268,1.5647-1.97748,3.24463-3.86365,4.87231-5.7912l0.46045,0.16351c2.34064,10.57532,5.04816,21.0506,8.24744,31.45306-0.21118,0-.504.02234-0.79236-0.00385-1.27753-.11609-2.55347-0.33813-3.83087-0.34491-1.26288-.00671-2.42767.01892-2.6814-2.07416-0.96649,2.12634-2.13171,3.73315-2.39948,5.47772a100.15865,100.15865,0,0,0-.89648,11.03851c-0.14648,3.53827-.07611,7.08722-0.17584,10.62628a2.4283,2.4283,0,0,1,.3833,1.79962c-0.10785.65424-.17834,1.31378-0.23431,1.97522a2.47907,2.47907,0,0,1,.06763.25446c0.15723,0.97461.24707,1.95056,0.30762,2.9267,0.03741-.89563.09045-1.79224,0.16846-2.69037a65.39754,65.39754,0,0,0,.09851,6.88165Q52.0843,77.688,52.801,81.70455c0.55389,2.44336,1.10693,4.8819,1.57745,7.34814,0.58826,2.03223,1.31488,4.03485,1.97888,6.04614,0.39587,1.19885,1.26984,1.04767,2.17847.5495,2.74567-1.50531,5.50085-2.99377,8.23492-4.51984a2.2154,2.2154,0,0,0,.40039-0.85895c0.08582,0.01422.50635,0.08386,0.83838,0.13879C61.49446,74.03573,59.775,56.90737,58.7,39.83309,59.69563,39.7405,60.60078,39.81777,61.32,39.74135ZM65.507,23.44814c-0.16449.83929,0.608,1.98669,1.20392,2.81952a32.76325,32.76325,0,0,0,2.72992,3.01324q0.18539-.15939.37073-0.31891-0.4617-.87827-0.92346-1.75665c1.59033,1.865,1.59033,1.865-.6842,3.232-1.12659.77277-2.25305,1.54553-3.4129,2.34113-0.31952-1.35413.63885-1.66107,1.558-1.95081,0.59637-.188,1.22253-0.282,1.83533-0.41815q-0.43542-.632-0.869-1.263l-0.25287.14063-0.0661-1.35645a3.38472,3.38472,0,0,1-1.13116-.94006Q64.87413,23.75185,64.182,20.42C65.00917,21.2629,65.801,21.948,65.507,23.44814Zm-2.09644-2.0376q0.55884,2.16724,1.11774,4.33447l-0.39948.14612q-0.47534-2.21008-.95056-4.42029ZM57.06636,7.80306q1.31378,1.91382,2.62769,3.8277l-0.19788.13336q-1.36-1.92142-2.72-3.84277Zm2.80676,12.88727c-0.8891-3.34106-1.77814-6.68207-2.732-10.26685a6.56429,6.56429,0,0,0,.68024,1.01349c2.88873,2.9776,4.087,6.67163,4.74634,10.66278,0.4447,2.69281,1.17273,5.33881,1.77417,8.00574-1.86383-5.13434-2.0556-10.76941-4.77234-15.64618l-0.52551.06934q0.44815,3.07608.89642,6.15216ZM61.105,28.18q-0.412-2.17767-.8241-4.35529l0.39948-.07947q0.388,2.18262.77594,4.36517Zm0.21509-4.439a6.61123,6.61123,0,0,1-.059-0.95422l0.46643-.06909c0.48669,3.042.95337,6.0874,1.46686,9.12488,0.33929,2.00793.36932,2.00287-.58,3.18561a19.27178,19.27178,0,0,0,.19043-3.9245C62.46308,28.6285,61.82209,26.19491,61.32008,23.741ZM55.04359,39.10939q-0.19885.5744-.39764,1.14893-0.23914-.14493-0.47845-0.28973-0.10831-.381-0.2168-0.76184C54.31269,39.17452,54.67909,39.14187,55.04359,39.10939ZM53.64607,71.1307a10.23984,10.23984,0,0,1-.19177,1.34467l-0.28271-.088a32.20358,32.20358,0,0,1-.50885-4.72925c0.03754-1.23254.69611-2.43256,0.8913-3.67651,0.47827-3.04846.84814-6.11389,1.31415-9.56158-0.59607.629-.95062,1.0033-1.34613,1.42065,0.5899-3.02716,1.17316-6.02032,1.75641-9.01349l-0.47211-.11694Q54.11613,49.93,53.426,53.14992l-0.49109-.10144A22.739,22.739,0,0,1,54.03028,45.401c0.50482-1.50348,1.199-2.94476,1.674-4.45618a5.20419,5.20419,0,0,0-.1037-1.80524l-0.1297-.06824c0.71417-.0636,1.43866-0.12817,2.19806-0.19586-0.551,1.08618-.95331,1.87939-1.35565,2.67261l0.2298,0.185c0.2923-.16486.58447-0.32965,1.08514-0.612-0.55695,2.00616-1.09558,3.85028-1.57654,5.70935-0.38562,1.4903-1.26868,3.14557-.92645,4.46753,0.65143,2.51611-.322,4.7373-0.49188,7.08142-0.20264,2.7951-.70813,5.56708-0.96545,8.35986C53.53395,68.19112,53.66719,69.66646,53.64607,71.1307Zm6.43085-4.31116a56.24475,56.24475,0,0,0,4.18646,16.9046c0.16309,0.39038.2395,0.81635,0.39349,1.21118,0.33575,0.86078.27332,1.77716,1.33881,2.4436,1.20422,0.75323.92975,1.83862-.3219,2.59583a2.9182,2.9182,0,0,1-.424.22015c-0.79395.31683-1.59052,0.62677-2.38623,0.93909-0.10376-.87195-0.25763-1.74164-0.29565-2.61639a6.35193,6.35193,0,0,0-.25684-2.301c-0.16644.36945-.35205,0.73187-0.49152,1.11121a1.21663,1.21663,0,0,0-.079.63068c0.78229,3.72687-.889,5.77283-4.61176,6.40186-0.353-.7652-0.80225-1.57263.41-2.40851a3.15235,3.15235,0,0,0,.63129-1.55719c0.025,0.4223.06512,1.09735,0.11218,1.88947a1.84972,1.84972,0,0,0,1.32-2.48132c-0.66846-2.22742.111-4.30963,0.30182-6.44476,0.12933-1.44629.42316-2.87787,0.45825-4.35217-1.50946,3.05048-1.174,6.50391-2.10858,10.1344-0.92517-1.6651-.03815-2.92084.01624-4.15161,0.06091-1.37781.26764-2.75085,0.447-4.12122,0.17236-1.31464.38757-2.62384,0.59039-3.93439,0.20654-1.3338.42108-2.66632,0.63208-3.99945l-0.61829-.108Q58.082,80.82381,56.843,88.8221L56.28724,88.745Q57.7931,78.97683,59.299,69.20858q-0.31851-.05045-0.63715-0.101-1.51154,9.36612-3.02295,18.73212l-0.23291.00049V80.59774l-0.3526-.02551c-0.17035,1.21942-.3407,2.43884-0.48175,3.44824-0.2149-1.87561-.45538-3.97412-0.74725-6.52063,0.91553,1.08954-.32709,2.888,1.85205,2.69336q1.69089-8.47037,3.37683-16.91553l0.3681-.02625C59.64564,64.44027,59.97267,65.62026,60.07691,66.81954ZM58.83656,52.01125q-0.62146,3.75449-1.2428,7.509l0.43829,0.08435q0.36429-.94034.72858-1.88055l0.60675,0.12024c-0.30322,1.54663-.57916,3.0993-0.91736,4.63831-0.36206,1.64777-.82947,3.27319-1.16431,4.9259-0.29578,1.46057-.4729,2.94519-0.70239,4.41919l-0.53949-.08826q0.96954-5.79218,1.93909-11.58423l-0.49066-.102q-1.52747,8.10608-3.05487,16.2121C53.192,72.41927,55.871,51.10836,57.8935,46.58382c1.16992,3.42731-1.1991,6.46985-.59424,9.73608q0.51389-2.20322,1.02777-4.40656Z"/><path d="M59.99739,89.00667q0.31919-3.59632.63846-7.19263l0.52427,0.01088c0,0.69006-.03822,1.38276.0094,2.06952a23.795,23.795,0,0,1,.26323,2.82517,13.51345,13.51345,0,0,1-.59179,2.49265Z"/></g><text x="0" y="115" fill="#000000" font-size="5px" font-weight="bold" font-family="'Helvetica Neue', Helvetica, Arial-Unicode, Arial, Sans-serif">Created by Tatyana</text><text x="0" y="120" fill="#000000" font-size="5px" font-weight="bold" font-family="'Helvetica Neue', Helvetica, Arial-Unicode, Arial, Sans-serif">from the Noun Project</text></svg>