<svg version="1.2" xmlns="http://www.w3.org/2000/svg" viewBox="0 0 1000 1000" width="400" height="400">
	<title>5024145-ai</title>
	<style>
		.s0 { fill: #e6edff } 
		.s1 { fill: #bfd2ff } 
		.s2 { fill: #628aec } 
		.s3 { fill: #fefeff } 
		.s4 { fill: none;stroke: #628aec;stroke-width: 1.8 } 
		.s5 { fill: #485070 } 
		.s6 { fill: #ff6ea1 } 
		.s7 { fill: #ffc1a6 } 
		.s8 { fill: #e3856d } 
		.s9 { fill: none;stroke: #485070;stroke-linecap: round;stroke-width: 1.5 } 
		.s10 { fill: none;stroke: #485070;stroke-linecap: round;stroke-linejoin: round;stroke-width: 1.5 } 
		.s11 { fill: #dce4ff;stroke: #485070;stroke-width: 1.5 } 
		.s12 { fill: #bac5ef;stroke: #485070;stroke-width: 1.5 } 
		.s13 { fill: #545d78 } 
		.s14 { fill: #333333 } 
		.s15 { fill: #ffb861 } 
		.s16 { fill: #3fd4c7 } 
		.s17 { fill: none;stroke: #485070;stroke-width: 1.5 } 
		.s18 { fill: #ffffff } 
		.s19 { fill: #9c5240 } 
		.s20 { fill: #cf9378 } 
		.s21 { fill: #66a3f2 } 
		.s22 { fill: none;stroke: #485070;stroke-width: .8 } 
		.s23 { fill: #b3b3b3 } 
		.s24 { fill: none;stroke: #b3b3b3;stroke-linecap: round;stroke-width: 1.5 } 
		.s25 { fill: none;stroke: #485070;stroke-linecap: round;stroke-width: .8 } 
		.s26 { fill: #dc8b77 } 
		.s27 { fill: #757e96 } 
		.s28 { fill: #f7b699 } 
		.s29 { fill: #c46e58 } 
		.s30 { fill: #f4ae2d } 
		.s31 { fill: #c8ddf7 } 
	</style>
	<g id="BACKGROUND">
	</g>
	<g id="OBJECTS">
		<g id="&lt;Group&gt;">
			<path id="&lt;Path&gt;" class="s0" d="m861.8 912.9h-758.8c-9.8 0-17.8-8-17.8-17.8 0-9.9 8-17.8 17.8-17.8h758.8c9.8 0 17.8 7.9 17.8 17.8 0 9.8-8 17.8-17.8 17.8z"/>
			<path id="&lt;Path&gt;" class="s1" d="m868.4 563.8q-0.5-0.3-1-0.6c-23-13.4-50.2-18.5-76.3-25-24.3-6-51.6-14-70.3-31.7-22.6-21.6-19.5-51.2-10.8-78.2 9.2-28.3 17.8-56.7 13.8-86.8-4.6-34.2-20-67.2-44.5-92.9-38-39.8-96.9-61-153.2-55-75.7 8-137.8 60.2-185 116.7-31 37.1-49.2 79.2-84.6 114.4-34.9 34.8-74.1 66.2-103.4 105.6-39.2 52.5-58.2 119.4-45.5 182.5 12.7 63.1 59.1 120.7 122.6 143.4 40.4 14.5 84.8 14.8 128 14.9 89.8 0.3 179.8 0.5 269.3-6.3 59-4.5 118.7-12.3 172.4-35.7 53.7-23.4 101.2-64.5 118.8-117.9 17.5-53-0.7-117.8-50.3-147.4z"/>
			<path id="&lt;Path&gt;" class="s0" d="m146.5 438.8q-2.1-7.7-7.7-13.3-3-2.3-6-4.7-7.1-4-15.2-4.1h-1.5q-6.2-0.2-11.5 2.6-5.6 1.8-9.7 6.2-4.4 4.1-6.2 9.7-2.8 5.3-2.6 11.5 0.6 4 1.1 8 2.1 7.6 7.7 13.2 3.1 2.4 6.1 4.7 7 4.1 15.1 4.1h1.5q6.2 0.3 11.6-2.6 5.6-1.8 9.6-6.2 4.4-4 6.2-9.6 2.8-5.4 2.6-11.6-0.5-4-1.1-7.9z"/>
			<path id="&lt;Path&gt;" class="s1" d="m949.8 408.4c0 35.8-29 64.8-64.8 64.8-35.8 0-64.8-29-64.8-64.8 0-35.8 29-64.8 64.8-64.8 35.8 0 64.8 29 64.8 64.8z"/>
		</g>
		<g id="&lt;Group&gt;">
			<g id="&lt;Group&gt;">
				<g id="&lt;Group&gt;">
					<g id="&lt;Group&gt;">
						<path id="&lt;Compound Path&gt;" fill-rule="evenodd" class="s0" d="m642.4 110.2c0.1 4 3.5 7.1 7.4 6.9 4-0.1 7.1-3.4 7-7.4 0-0.3-0.1-0.5-0.1-0.7q4.2 0.5 8.2 1.9c-0.2 0.2-0.4 0.4-0.5 0.6-1.8 3.5-0.5 7.9 3 9.8 3.5 1.8 7.9 0.5 9.7-3 0.2-0.3 0.2-0.5 0.3-0.7q3.4 2.5 6.2 5.7c-0.3 0.1-0.5 0.2-0.8 0.4-3.3 2.1-4.4 6.5-2.2 9.9 2.1 3.4 6.5 4.4 9.9 2.3 0.2-0.2 0.4-0.4 0.7-0.5q1.6 3.9 2.4 8.1c-0.3 0-0.6-0.1-0.9-0.1-4 0.2-7.1 3.5-6.9 7.5 0.1 4 3.4 7.1 7.4 6.9 0.3 0 0.7-0.1 1-0.1q-0.6 4.3-1.9 8.4-0.5-0.4-0.9-0.6c-3.5-1.9-7.9-0.6-9.8 2.9-1.8 3.6-0.5 7.9 3 9.8q0.5 0.2 1 0.4-2.6 3.4-5.9 6.3-0.2-0.5-0.5-1c-2.1-3.4-6.5-4.4-9.9-2.3-3.4 2.1-4.4 6.5-2.3 9.9q0.3 0.5 0.7 0.9-4 1.7-8.3 2.5 0.1-0.5 0.1-1.2c-0.2-3.9-3.5-7-7.5-6.9-3.9 0.2-7 3.5-6.9 7.5q0 0.5 0.1 1.1-4.3-0.6-8.4-2 0.3-0.5 0.6-1c1.9-3.5 0.6-7.8-2.9-9.7-3.5-1.9-7.9-0.5-9.8 3q-0.2 0.5-0.4 1-3.4-2.7-6.3-6 0.5-0.2 1-0.4c3.4-2.2 4.4-6.6 2.3-10-2.1-3.3-6.5-4.3-9.9-2.2-0.3 0.1-0.6 0.4-0.8 0.6q-1.6-4-2.5-8.3c0.4 0.1 0.7 0.1 1.1 0.1 3.9-0.1 7-3.5 6.9-7.4-0.1-4-3.5-7.1-7.4-7-0.4 0-0.6 0.1-0.9 0.2q0.5-4.3 1.9-8.3c0.3 0.2 0.5 0.3 0.8 0.5 3.5 1.8 7.8 0.5 9.7-3 1.9-3.5 0.5-7.9-3-9.7-0.2-0.1-0.5-0.2-0.7-0.3q2.6-3.4 5.8-6.2c0.1 0.3 0.2 0.5 0.4 0.8 2.1 3.3 6.5 4.4 9.9 2.3 3.3-2.2 4.4-6.6 2.2-10-0.1-0.2-0.3-0.4-0.4-0.6q3.8-1.5 8-2.4c0 0.3 0 0.5 0 0.8zm-16.5 42.9c0.5 13.8 12.1 24.6 25.9 24.1 13.8-0.5 24.6-12.1 24.1-25.9-0.5-13.8-12.1-24.6-25.9-24.1-13.8 0.5-24.6 12.1-24.1 25.9z"/>
					</g>
				</g>
			</g>
			<g id="&lt;Group&gt;">
				<path id="&lt;Path&gt;" class="s0" d="m261.5 292.7c0-41-36.3-74.3-81-74.3-44.7 0-81 33.3-81 74.3 0 41.1 36.3 74.3 81 74.3 44.7 0 81-33.2 81-74.3z"/>
				<g id="&lt;Group&gt;">
					<path id="&lt;Path&gt;" class="s2" d="m178.6 293.9l-63.2-20.2c-2.4 6.5-3.7 13.3-3.7 20.2 0 33.6 30.2 61.3 66.9 61.3 12.1 0 24-3 34.4-8.7z"/>
					<path id="&lt;Path&gt;" class="s1" d="m182 292.7l34.9 52.4c9.8-5.5 17.9-13.2 23.5-22.3 5.6-9.2 8.5-19.6 8.5-30.1z"/>
					<path id="&lt;Path&gt;" class="s3" d="m182.4 289.8l66.9-0.9c-0.1-8.3-2.1-16.6-5.8-24.2-3.7-7.6-9.1-14.5-15.8-20.1z"/>
				</g>
			</g>
			<g id="&lt;Group&gt;">
				<path id="&lt;Path&gt;" class="s2" d="m374.4 220h-24.2v58.2h24.2z"/>
				<path id="&lt;Path&gt;" class="s2" d="m411.8 191.6h-24.2v86.6h24.2z"/>
				<path id="&lt;Path&gt;" class="s2" d="m449.3 152.3h-24.3v125.9h24.3z"/>
				<path id="&lt;Path&gt;" class="s2" d="m486.7 207.4h-24.2v70.8h24.2z"/>
				<path id="&lt;Path&gt;" class="s4" d="m337.2 153.5v124.2h165.5"/>
			</g>
			<g id="&lt;Group&gt;">
				<g id="&lt;Group&gt;">
					<g id="&lt;Group&gt;">
						<path id="&lt;Compound Path&gt;" fill-rule="evenodd" class="s1" d="m709 192.4c0.3 7.8 6.8 13.9 14.6 13.6 7.8-0.2 13.9-6.8 13.7-14.6-0.1-0.5-0.2-0.9-0.2-1.4 5.5 0.7 10.9 2 16.1 3.7-0.3 0.5-0.6 0.9-0.9 1.3-3.7 6.9-1 15.5 5.9 19.1 6.9 3.7 15.4 1.1 19.1-5.8 0.2-0.5 0.4-1 0.6-1.4 4.4 3.3 8.4 7.1 12.1 11.3-0.5 0.2-1 0.4-1.5 0.7-6.6 4.2-8.6 12.9-4.5 19.5 4.2 6.7 12.9 8.7 19.5 4.5 0.5-0.3 0.9-0.7 1.4-1 2.1 5.1 3.7 10.4 4.9 16-0.7-0.1-1.3-0.2-1.9-0.1-7.8 0.2-13.9 6.8-13.6 14.6 0.2 7.8 6.8 13.9 14.6 13.6 0.7 0 1.3-0.1 1.9-0.2-0.7 5.6-2 11.1-3.8 16.4-0.5-0.4-1.1-0.8-1.7-1.1-6.9-3.7-15.5-1.1-19.1 5.8-3.7 6.9-1.1 15.5 5.8 19.1 0.7 0.4 1.3 0.6 2 0.8-3.5 4.6-7.4 8.7-11.6 12.5-0.3-0.7-0.6-1.4-1-2-4.2-6.6-12.9-8.7-19.5-4.5-6.6 4.1-8.6 12.9-4.5 19.5 0.4 0.6 0.9 1.2 1.4 1.7-5.2 2.2-10.7 3.9-16.4 5 0.1-0.8 0.2-1.5 0.2-2.3-0.3-7.8-6.9-13.9-14.7-13.7-7.8 0.3-13.9 6.9-13.6 14.7 0 0.7 0.2 1.5 0.3 2.2-5.7-0.8-11.3-2.1-16.6-3.9 0.4-0.6 0.9-1.2 1.2-1.9 3.7-6.9 1.1-15.5-5.8-19.2-6.9-3.6-15.5-1-19.1 5.9-0.4 0.6-0.6 1.3-0.8 2-4.5-3.5-8.7-7.4-12.4-11.7 0.6-0.3 1.3-0.6 1.9-1 6.7-4.1 8.7-12.8 4.5-19.4-4.1-6.7-12.8-8.7-19.5-4.5-0.5 0.3-1 0.8-1.5 1.2-2.2-5.2-3.8-10.6-4.9-16.2 0.7 0.1 1.4 0.2 2 0.1 7.9-0.2 14-6.8 13.7-14.6-0.3-7.8-6.9-13.9-14.7-13.6-0.6 0-1.1 0.1-1.7 0.2 0.8-5.6 2.1-11.1 3.9-16.3 0.4 0.4 0.9 0.7 1.5 1 6.9 3.7 15.4 1.1 19.1-5.8 3.6-6.9 1-15.5-5.9-19.2-0.5-0.2-1-0.4-1.4-0.6 3.4-4.3 7.2-8.4 11.4-12 0.2 0.4 0.4 0.9 0.7 1.4 4.1 6.6 12.8 8.6 19.5 4.5 6.6-4.1 8.6-12.9 4.4-19.5-0.2-0.4-0.6-0.8-0.9-1.2 5.1-2 10.4-3.6 15.9-4.7-0.1 0.5-0.1 1-0.1 1.5zm-40.9 84.6c1.2 31.8 27.9 56.7 59.7 55.5 31.8-1.1 56.7-27.8 55.5-59.6-1.1-31.8-27.8-56.7-59.6-55.5-31.8 1.1-56.7 27.8-55.6 59.6z"/>
					</g>
				</g>
			</g>
		</g>
		<g id="&lt;Group&gt;">
			<g id="&lt;Group&gt;">
				<g id="&lt;Group&gt;">
					<path id="&lt;Path&gt;" class="s5" d="m626.1 263.7c-1.8-1.3-3.9-2.4-4.6-4.4-1.1-3.3 2.4-6.7 1.6-10.1-0.8-2.8-4.1-4-7-4.4-2.9-0.4-6.2-0.8-7.8-3.2-1.4-2-1.1-4.7-1.4-7.1-0.6-4.8-4.4-9.1-9.1-10.4-5-1.5-9.3 3.1-13.5 4.9-4.6 2-7.4 5.9-8.4 10.8-0.9 4.7-0.3 9.6 0.8 14.3 1 4.7 2.4 9.3 2.7 14.1 0.4 5.4-0.8 10.1-2.2 15.1-1 3.4-1.3 8.2 0.6 11.4 1.8 3.1 5.5 4.5 8.9 5.5 6.7 2 13.8 3 20.7 2 6.5-1 12.9-4.1 17.1-9.1 3.1-2.5 5.5-5.7 6.9-9.4 2.5-6.9 0.6-15.6-5.3-20z"/>
					<path id="&lt;Path&gt;" class="s6" d="m591.3 239.5c0.9 2.9 0.5 6.1-1 8.7-0.5 0.9-1.3 1.8-2.3 1.7-1.1-0.1-1.8-1.3-2.1-2.4-1-3-1.7-6.1-1.9-9.3-0.2-1.9 0.2-5.4 2.9-4.7 2.2 0.5 3.9 4.1 4.4 6z"/>
				</g>
				<path id="&lt;Path&gt;" class="s6" d="m591.3 286.6c-2 7-13.4 10.4-20 2.3q-1.2-1.5-2.3-3.1c-7.1 1.4-17.6 4.5-22.3 10.2-1.6 1.9-2.3 4.2-3 6.5q-3.7 12.7-6.1 25.6c-0.2 1-0.4 2-0.1 3 0.4 1.1 1.5 1.9 2.5 2.7 9.8 7.7 12.4 20.2 15.6 31.4 4.9 17.1 7.1 40.8 12 57.9 16 1.2 82.8-13.9 90.9-20.9-11.6-20.8-20.9-58.2-24.5-84.2-1.6-11.1-5.9-21.6-10.1-31.9-1-2.4-1.9-8-3.8-9.6-2.4-2.1-25.7 1.5-28.1 1.5q0.1 2.1 0.2 4.2c0 1.6-0.5 3-0.9 4.4z"/>
				<g id="&lt;Group&gt;">
					<g id="&lt;Group&gt;">
						<g id="&lt;Group&gt;">
							<path id="&lt;Path&gt;" class="s7" d="m567.5 275.2c-0.7-2.4-1.8-4.7-3.1-6.9 4-0.1 7.7-1.4 10.9-3.7 1.6-1.1 3.1-2.5 4.4-3.9 0.5-0.5 1.3-1.7 2.1-2.7-1.1 1.3 1.5 8.2 2 9.6 1.1 3 2.6 5.9 4.8 8.3 2.1 2.3 3.4 2.7 3.8 6 0.4 3.5-0.3 7.3-1.5 10.6-0.8 2-1.8 4.1-3.7 5.2-2.1 1.4-4.9 1.3-7.3 0.7-4.2-1.1-9.8-4.6-11.3-8.9-0.8-2.2 0.1-3.4 0.3-5.7 0.2-2.9-0.5-5.9-1.4-8.6z"/>
						</g>
					</g>
					<g id="&lt;Group&gt;">
						<g id="&lt;Group&gt;">
							<path id="&lt;Path&gt;" class="s8" d="m568.9 282.6q0-0.3 0-0.7c-0.2-2.2-0.7-4.5-1.4-6.7-0.7-2.4-1.8-4.7-3.1-6.9 4-0.1 7.7-1.4 10.9-3.7 1.6-1.1 3.1-2.5 4.4-3.9 0.5-0.5 1.3-1.7 2.1-2.7q0.1 2 0.5 3.9c-0.6 8.1-6.2 17-13.4 20.7z"/>
						</g>
					</g>
				</g>
				<g id="&lt;Group&gt;">
					<path id="&lt;Path&gt;" class="s5" d="m542.5 253c1.6 6.5 5.4 12.3 10.6 16.5 1.4 1.1 2.9 2.1 4.7 2.6 1.7 0.4 3.7 0.2 5.1-0.9 2.1-1.6 2.4-4.5 2.5-7 0.3-4.8 0.5-9.7-0.4-14.5-0.9-4.7-2.9-9.3-6.5-12.6-2.9-2.7-10.8-6.6-14.3-2.9-3.8 4-2.8 14-1.7 18.8z"/>
					<g id="&lt;Group&gt;">
						<g id="&lt;Group&gt;">
							<path id="&lt;Path&gt;" class="s7" d="m546.7 241.7c0.7-4.6 5.8-1.2 9.9-3.1 3.7-1.7 6.4-3.1 10.5-2.8 3.6 0.2 7.2 1.6 9.8 4.3q1 1.1 1.8 2.2c1.7 2.7 3.2 5.4 4.3 8.3q0 0.1 0 0.2c0.4 5.8-1 11.3-3.7 16.1-2.7 4.6-7.5 7.8-12.8 7.7-2.8-0.1-5.6-1-8.1-3.2-2.5-2.1-4.4-5-6-7.9-2.4-4.4-6.5-16.8-5.7-21.8z"/>
						</g>
					</g>
					<path id="&lt;Path&gt;" class="s5" d="m566.5 250.2c-5-1.2-10.1-1.9-14.6-4.1-3.3-1.7-6.4-4.4-7.9-7.8-1.5-3.5-0.4-6 1.6-9 2.8-4.3 7.4-7.5 12.4-8.8 5.1-1.4 11.3 0.6 16.2 2.3 3.3 1.1 6.5 3 8.8 5.7 3.9 4.7 5.2 12.9 4.9 18.9-0.1 2.5-0.8 4.8-1.5 7.3-0.6 2-1.6 4.2-3.9 4.5-1.6 0.2-4.8-4.3-6.4-5.3-2.6-1.6-5.5-2.7-8.4-3.4q-0.6-0.2-1.2-0.3z"/>
					<g id="&lt;Group&gt;">
						<path id="&lt;Path&gt;" class="s5" d="m558.9 255.6c0.1 0.8 0.8 1.4 1.6 1.3 0.8-0.1 1.4-0.8 1.3-1.6-0.1-0.8-0.8-1.3-1.6-1.3-0.8 0.1-1.4 0.8-1.3 1.6z"/>
						<path id="&lt;Path&gt;" class="s9" d="m561 251.5c-0.9-0.2-2-0.1-2.9 0.3"/>
						<path id="&lt;Path&gt;" class="s5" d="m549.9 258c0.1 0.8 0.8 1.4 1.6 1.3 0.8 0 1.4-0.8 1.3-1.6-0.1-0.8-0.8-1.3-1.6-1.3-0.8 0.1-1.4 0.8-1.3 1.6z"/>
						<path id="&lt;Path&gt;" class="s9" d="m552.1 253.9c-1-0.2-2-0.1-2.9 0.4"/>
						<path id="&lt;Path&gt;" class="s9" d="m555.2 258.2c0.3 1.3 0 2.6-0.6 3.7-0.2 0.3-0.4 0.6-0.4 0.9 0.1 0.4 0.5 0.6 0.8 0.7 0.4 0 0.7-0.1 1.1-0.2"/>
						<path id="&lt;Path&gt;" class="s9" d="m562.5 265.5c-1.2 1.3-3.1 2-4.9 1.7"/>
					</g>
					<g id="&lt;Group&gt;">
						<path id="&lt;Path&gt;" class="s7" d="m583.3 250.5c0.3 2.9-1.8 5.5-4.7 5.8-2.9 0.3-5.6-1.8-5.9-4.7-0.3-3 1.9-5.6 4.8-5.9 2.9-0.3 5.5 1.9 5.8 4.8z"/>
						<path id="&lt;Path&gt;" class="s10" d="m578.8 248.7c-0.7-0.1-1.5 0.3-1.9 1-0.5 0.6-0.5 1.5-0.2 2.2 0.4-0.5 1.1-0.6 1.7-0.4 0.6 0.2 1 0.8 1 1.4"/>
					</g>
				</g>
			</g>
			<g id="&lt;Group&gt;">
				<path id="&lt;Path&gt;" class="s11" d="m706.8 868.2h-421.9c-9.7 0-17.5-7.8-17.5-17.5v-236.7c0-9.6 7.8-17.5 17.5-17.5h421.9c9.7 0 17.5 7.9 17.5 17.5v236.7c0 9.7-7.8 17.5-17.5 17.5z"/>
				<path id="&lt;Path&gt;" class="s12" d="m758.1 868.6h-524.5c0 12 9.8 21.8 21.8 21.8h480.9c12 0 21.8-9.8 21.8-21.8z"/>
				<path id="&lt;Path&gt;" class="s13" d="m699.7 859.7h-407.7c-7.5 0-13.6-6.1-13.6-13.7v-225.1c0-7.6 6.1-13.7 13.6-13.7h407.7c7.5 0 13.6 6.1 13.6 13.7v225.1c0 7.6-6.1 13.7-13.6 13.7z"/>
			</g>
			<path id="&lt;Path&gt;" class="s14" d="m501.9 601.6c0 1.9-1.5 3.4-3.4 3.4-1.8 0-3.3-1.5-3.3-3.4 0-1.8 1.5-3.3 3.3-3.3 1.9 0 3.4 1.5 3.4 3.3z"/>
			<g id="&lt;Group&gt;">
				<g id="&lt;Group&gt;">
					<path id="&lt;Path&gt;" class="s3" d="m668.5 350.9v507.3h-345.3v-507.3z"/>
				</g>
				<g id="&lt;Group&gt;">
					<g id="&lt;Group&gt;">
						<g id="&lt;Group&gt;">
							<path id="&lt;Path&gt;" class="s0" d="m527.6 818l-46-57.3-39.9 51.2-34.7-37.4 4.6-4.2 29.7 32.1 40.2-51.6 44.8 55.7 26-53 54.8-9.7 1 6.1-51.7 9.1z"/>
						</g>
						<g id="&lt;Group&gt;">
							<path id="&lt;Path&gt;" class="s6" d="m615.5 746.9c0-4.4-3.5-8-7.9-8-4.4 0-7.9 3.6-7.9 8 0 4.3 3.5 7.9 7.9 7.9 4.4 0 7.9-3.6 7.9-7.9z"/>
						</g>
						<g id="&lt;Group&gt;">
							<path id="&lt;Path&gt;" class="s2" d="m535.2 812.3c0-4.4-3.6-8-8-8-4.3 0-7.9 3.6-7.9 8 0 4.3 3.6 7.9 7.9 7.9 4.4 0 8-3.6 8-7.9z"/>
						</g>
						<g id="&lt;Group&gt;">
							<path id="&lt;Path&gt;" class="s15" d="m561.3 756.3c0-4.4-3.5-7.9-7.9-7.9-4.4 0-7.9 3.5-7.9 7.9 0 4.3 3.5 7.9 7.9 7.9 4.4 0 7.9-3.6 7.9-7.9z"/>
						</g>
						<g id="&lt;Group&gt;">
							<path id="&lt;Path&gt;" class="s15" d="m489.2 756.3c0-4.4-3.6-7.9-7.9-7.9-4.4 0-7.9 3.5-7.9 7.9 0 4.3 3.5 7.9 7.9 7.9 4.3 0 7.9-3.6 7.9-7.9z"/>
						</g>
						<g id="&lt;Group&gt;">
							<path id="&lt;Path&gt;" class="s6" d="m450.3 806.2c0-4.4-3.5-7.9-7.9-7.9-4.4 0-7.9 3.5-7.9 7.9 0 4.4 3.5 7.9 7.9 7.9 4.4 0 7.9-3.5 7.9-7.9z"/>
						</g>
						<g id="&lt;Group&gt;">
							<path id="&lt;Path&gt;" class="s16" d="m418.9 773.9c0-4.4-3.5-7.9-7.9-7.9-4.4 0-7.9 3.5-7.9 7.9 0 4.4 3.5 7.9 7.9 7.9 4.4 0 7.9-3.5 7.9-7.9z"/>
						</g>
					</g>
					<path id="&lt;Path&gt;" class="s17" d="m376.2 723.9v108h240.9"/>
				</g>
				<g id="&lt;Group&gt;">
					<g id="&lt;Group&gt;">
						<path id="&lt;Path&gt;" class="s15" d="m432.1 551.5h-36.8v85.4h36.8z"/>
						<path id="&lt;Path&gt;" class="s6" d="m489 509.7h-36.8v127.2h36.8z"/>
						<g id="&lt;Group&gt;">
							<g id="&lt;Group&gt;">
								<path id="&lt;Path&gt;" class="s9" d="m388.5 527c44.1-20.1 83.9-49.8 115.6-86.5"/>
								<g id="&lt;Group&gt;">
									<path id="&lt;Path&gt;" class="s5" d="m507.4 436.5l-2.6 7.5-1.1-3.3-3.3-0.7z"/>
								</g>
							</g>
						</g>
						<path id="&lt;Path&gt;" class="s16" d="m545.8 452h-36.8v184.9h36.8z"/>
						<path id="&lt;Path&gt;" class="s2" d="m602.7 532.9h-36.8v104h36.8z"/>
						<path id="&lt;Path&gt;" class="s17" d="m373.7 455.5v181.7h245.7"/>
					</g>
					<g id="&lt;Group&gt;">
						<path id="&lt;Path&gt;" class="s0" d="m619 667.2h-246.7v-12.4h246.7z"/>
						<path id="&lt;Path&gt;" class="s0" d="m569.5 408.8h-148.3v12.4h148.3z"/>
						<path id="&lt;Path&gt;" class="s0" d="m618.7 399.5h-246.7v-12.4h246.7z"/>
						<path id="&lt;Path&gt;" class="s0" d="m619 690h-246.7v-12.5h246.7z"/>
						<path id="&lt;Path&gt;" class="s0" d="m619 712.7h-246.7v-12.4h246.7z"/>
					</g>
				</g>
			</g>
			<g id="&lt;Group&gt;">
				<g id="&lt;Group&gt;">
					<g id="&lt;Group&gt;">
						<path id="&lt;Path&gt;" class="s6" d="m609.7 277.1c-2.9 0.6-5.7 1.4-8.6 2.2-0.5 0.2-1 0.3-1.3 0.6-0.5 0.5-0.7 1.2-0.9 1.9-1.8 9 0.7 21 6.5 28.2 1.8 2.2 3.9 4.2 5.8 6.2 1.8 2.1 4.4 3.9 6 6.1 2 2.5 2.8 6.5 3.7 9.5 2.1 6.8 3.4 13.9 3.9 21.1 0.3 4.7 0.5 10.1 4.1 13.2 3.6 3 9.4 2.3 13.1-0.6 3.7-2.9 5.8-7.4 7.4-11.8 4.2-11.6 6.4-24 5.8-36.2-0.5-11.2-3.9-24.7-11.2-33.5-4.8-6-12.8-8.6-20.4-8.7-4.7-0.1-9.3 0.7-13.9 1.8z"/>
						<path id="&lt;Path&gt;" class="s17" d="m616.5 344q4-21.5 8-43"/>
						<path id="&lt;Path&gt;" class="s17" d="m619.3 303.7q1.4 3.5 2.7 7"/>
					</g>
					<path id="&lt;Path&gt;" class="s7" d="m565.2 375q1.5-0.6 3.2-0.6c9.7-0.2 19.1-1.2 28.9-2.2q9.9-1 19.7-1.1c5.2-0.1 11.3 1 16.5-0.4 5.4-1.6 9.1-3.1 11.8-7.6q2-3.2 3.6-6.6c0.6-1.3 1.2-2.8 0.9-4.1-0.4-2-2.6-3.2-4.8-3.9-4.5-1.7-7.3-4.3-12.5-4.9-5.3-0.5-10.9 0.2-16.3 1.3-10.4 2.2-20.8 3.1-31 6.1-11.5 3.5-22.6 8.3-33.5 13.1-4 1.8-8.1 3.7-11 6.7-4.4 4.6-4.9 11.4-1.1 15.6 1.1 1.2 2.8 2.3 4.7 2 1.9-0.3 3.2-2.9 1.6-3.6 10.5 4 10.8-6.8 19.3-9.8z"/>
				</g>
				<g id="&lt;Group&gt;">
					<g id="&lt;Group&gt;">
						<path id="&lt;Path&gt;" class="s6" d="m532.3 376.6l0.1-0.6q-0.2 0.6-0.5 1.2 0.2-0.3 0.4-0.6z"/>
						<path id="&lt;Path&gt;" class="s6" d="m559.6 295.4c-0.6-1.1-1.5-2.1-2.7-2.8-3.4-1.9-10.5 1.1-13.6 2.8q-0.9 0.5-1.9 1.2c-3.6 2.3-6.9 5.5-9.7 8.6q-1.4 1.6-2.9 3.2c-14.1 16.3-23.2 34.3-20.9 56.1 0.5 4.6 1.4 9.7 4.9 12.8 2.8 2.5 6.8 3.4 10.5 2.7 3.5-0.6 6.6-2.5 9.2-4.9l-0.1 0.9q0.3-0.6 0.5-1.3c5.6-5.4 6.9-12.8 8.3-20.1q0 0 0-0.1 6.6-16.2 13.2-32.5c2.1-5.2 9-19.5 5.2-26.6z"/>
					</g>
					<path id="&lt;Path&gt;" class="s7" d="m537 456.5c6.1-10-5-11.6-6.6-20.5q-0.3-1.6 0-3.2c1.5-9.7 2.2-19.3 3-29.2q0.8-9.9 2.4-19.7c0.7-4.4 2.4-9.2 2.6-13.8q-0.1-2.2-0.5-4.3c-1.8-3.4-4.6-6.1-9.1-7.5-5.3-1.7-11.7-0.4-16 3.2-1.1 1.7-2.1 3.5-3 5.3-1.1 4.7-1.3 9.7-1.1 14.6 0.3 10.6-0.6 21.1 0.6 31.6 1.5 12 4.4 23.5 7.5 35 1.1 4.2 2.3 8.6 4.9 11.8 3.9 5 10.8 6.4 15.9 3.1 1.5-0.9 2.9-2.4 2.9-4.4 0-1.9-2.4-3.5-3.5-2z"/>
					<path id="&lt;Path&gt;" class="s17" d="m537.9 366.1c2.8-13.1 8-25.6 15.2-36.8"/>
					<path id="&lt;Path&gt;" class="s17" d="m548 337.3q2.6-1.7 5.2-3.4"/>
				</g>
			</g>
		</g>
		<g id="&lt;Group&gt;">
			<path id="&lt;Path&gt;" class="s18" d="m239.4 588.2c7.4 8.5 10.4 19.9 13 30.7q4.9 20.8 9.8 41.6c0.8 3.3 1.5 6.6 1.6 9.9 0.2 5.4-1.4 12.3-2.6 17.4-1.6 6.7-5.6 6.3-11.5 5.7-9.4-1-22.1-3.8-28.4-11.4-3-3.6-4-8.5-4.9-13.1q-1.8-9.6-3.5-19.1c-4.9-26-9.8-52.8-4.3-78.7 13.1 1.9 23.1 8.2 30.8 17z"/>
			<path id="&lt;Path&gt;" class="s19" d="m253.1 670.4c4.1 2 8.1 4.5 12.1 6.9 6.3 3.8 12.9 6.5 19.4 10 1.8 1 3.7 2 5.7 2.3 3.5 0.7 7.1-0.6 10.6-0.2 4.7 0.7 8.7 4.8 10.4 10.3 2.8 9.3-3.9 5.8-8.3 5q-5.1-0.9-10.3-1.9c-13.6-2.5-26.6-3.7-40.5-4.4-7.5-0.4-20.8-0.2-26.4-7.1-2.8-3.3-5.8-17.9-2.2-21.5 0.7-0.7 1.5-1 2.3-1.3 7.3-2.4 14.7-2.5 21.7-0.3q2.8 0.9 5.5 2.2z"/>
			<g id="&lt;Group&gt;">
				<path id="&lt;Path&gt;" class="s5" d="m248.2 777.5h-132.3c-4.3 0-7.9-3.5-7.9-7.8 0-4.4 3.6-7.9 7.9-7.9h132.3c4.3 0 7.9 3.5 7.9 7.9 0 4.3-3.6 7.8-7.9 7.8z"/>
				<path id="&lt;Path&gt;" class="s5" d="m102 673.8v-46.4c0-7 5.6-12.7 12.6-12.7h103.5c7 0 12.6 5.7 12.6 12.7v46.4c0 7-5.6 12.6-12.6 12.6h-103.5c-7 0-12.6-5.6-12.6-12.6z"/>
				<g id="&lt;Group&gt;">
					<path id="&lt;Path&gt;" class="s5" d="m126.4 770.3h-8v-95.5h8z"/>
				</g>
				<g id="&lt;Group&gt;">
					<path id="&lt;Path&gt;" class="s5" d="m212.7 770.3h-8v-95.5h8z"/>
				</g>
				<g id="&lt;Group&gt;">
					<path id="&lt;Path&gt;" class="s5" d="m181.9 889.6h-8v-116h8z"/>
				</g>
				<g id="&lt;Group&gt;">
					<path id="&lt;Path&gt;" class="s5" d="m121.8 889.6h-8v-116h8z"/>
				</g>
				<g id="&lt;Group&gt;">
					<path id="&lt;Path&gt;" class="s5" d="m250 889.6h-8v-116h8z"/>
				</g>
				<g id="&lt;Group&gt;">
					<path id="&lt;Path&gt;" class="s5" d="m209 889.6h-8v-116h8z"/>
				</g>
			</g>
			<g id="&lt;Group&gt;">
				<path id="&lt;Path&gt;" class="s20" d="m330 814.3c-4.5 0.9-7.6 1.2-13 1.9q-11.7 1.7-23.4 2.7c2 14.1 3.9 26.5 4.4 29 2 10.8 0.9 37.8 5.7 48.1 5.9 0.7 10.9-0.2 16.4-0.7 2.9-27 5.3-54.2 9.9-81z"/>
				<path id="&lt;Path&gt;" class="s21" d="m289.2 838c0 2.2 0 4.5 0.5 6.6 6.2 6.6 15.5 10 24.4 10.4 5.3 0.3 10.3-0.5 15.1-2.1q0.8-15.8 1.9-31.7c0.8-13.7 1.5-27.4 3.3-41.1 0.7-6.1 1.6-24.1 0.2-36.9-3.5-13.4-12.5-17.1-12.5-17.1 0 0-24.9-9.9-44-14.1-23.4-5.1-47.2-8.9-70.8-14.1-11.3-2.4-30.2-2-36.1 10.4-6.8 14.3 6.7 33.4 17.6 41.7 11.2 8.5 25.1 12.8 38.9 15.8 19.5 4.3 39.6 6.2 59.5 5.8-0.6 0 2 61.5 2 66.4z"/>
				<path id="&lt;Path&gt;" class="s5" d="m287.2 771.7q0.1-0.1 0.1-0.1c-4.3-4.3-8.4-8.9-12.8-13.2-6.5-6.5-12.8-13.1-19.2-19.6-12.8-12.8-25.6-25.6-38.1-38.8q-5-1-9.9-2.1c-11.3-2.4-30.2-2-36.1 10.4-6.8 14.3 6.7 33.4 17.6 41.7 11.2 8.5 25.1 12.8 38.9 15.8 19.5 4.3 39.6 6.2 59.5 5.8 0 0 0 0 0 0.1z"/>
				<path id="&lt;Path&gt;" class="s22" d="m287.4 775.5c0-6.3 0.9-13.9 0.9-20.2"/>
				<path id="&lt;Path&gt;" class="s17" d="m303.5 720c-16.8-5.3-32.1-10.3-56.7-13.7"/>
				<g id="&lt;Group&gt;">
					<path id="&lt;Path&gt;" class="s23" d="m354.5 909.5h-51.8c-1 0-1.9-0.9-1.9-1.9v-3.9h53.7z"/>
					<path id="&lt;Path&gt;" class="s5" d="m353.7 905.3q0.3-0.4 0.5-0.9c1.3-2.8-0.2-6.3-2.7-8.3-2.5-2-5.7-3-8.9-3.9-6.7-1.9-13.2-3.7-20.2-4.6-1.8-0.3-21.3-2.1-21.2-2.9q-0.5 7.4-0.9 14.7c-0.2 2.1-0.7 4.1-0.1 5.9z"/>
					<path id="&lt;Path&gt;" class="s5" d="m310.1 880.6c2.9-2.5 7.5-2.4 10.8-0.3 3.2 2.2 4.9 6.2 4.7 10 0 0.7-0.1 1.5-0.7 2-0.5 0.5-1.3 0.5-2 0.5q-4.6 0.1-9.3 0.1c-1.9 0-4.3 0.5-5.7-1.2-2.3-3.1-0.1-8.8 2.2-11.1z"/>
					<path id="&lt;Path&gt;" class="s24" d="m330.4 889c-1.8-0.2-3.7 1-4.3 2.7"/>
					<path id="&lt;Path&gt;" class="s24" d="m331.5 893.7c0.9-1.6 2.7-2.6 4.5-2.6"/>
					<path id="&lt;Path&gt;" class="s24" d="m338.3 894.4c0.4-1.1 1.6-1.9 2.8-1.9"/>
				</g>
			</g>
			<g id="&lt;Group&gt;">
				<path id="&lt;Path&gt;" class="s20" d="m241.2 807q-10.3 1.4-20.7 2.4c5.2 25.7 7.6 51.8 11.9 77.6 5.8 0 11.2-1.2 17.4-1.1 1.2-7.8 3.6-54.3 7.3-81.5-6.3 1.6-9.5 1.7-15.9 2.6z"/>
				<path id="&lt;Path&gt;" class="s21" d="m221.5 843.5c1.4 5.8 3.1 9.4 8.8 11.6 4.9 2 10.3 2.8 15.6 2.2 7.1-0.8 12.9-6 12.9-6 0 0 7.4-109.5-1.8-123.6-11.2-17.2-35.7-20.7-54.8-24.9-16.7-3.7-33.6-6.7-50.5-9.9-4.1 15.6-1.1 34 4.9 48.4q0 0.1 0.1 0.2c4.7 11.3 15.6 19 27.8 20q13.4 1.2 26.9 0.9c-0.2 0 5 60.4 10.1 81.1z"/>
				<path id="&lt;Path&gt;" class="s22" d="m211.5 766.3c0-6.3 0.9-13.9 0.9-20.2"/>
				<g id="&lt;Group&gt;">
					<path id="&lt;Path&gt;" class="s23" d="m284.6 908.7h-51.7c-1.1 0-1.9-0.9-1.9-2v-3.9h53.6z"/>
					<path id="&lt;Path&gt;" class="s5" d="m283.9 904.4q0.3-0.4 0.5-0.8c1.3-2.9-0.2-6.3-2.7-8.4-2.5-2-5.8-2.9-8.9-3.8-6.8-1.9-13.3-3.7-20.2-4.7-1.8-0.2-21.4-2-21.3-2.9q-0.4 7.4-0.9 14.8c-0.1 2-0.6 4 0 5.8z"/>
					<path id="&lt;Path&gt;" class="s5" d="m240.2 879.8c3-2.5 7.6-2.5 10.8-0.3 3.2 2.1 4.9 6.1 4.8 10-0.1 0.7-0.2 1.5-0.7 1.9-0.6 0.5-1.3 0.6-2.1 0.6q-4.6 0-9.2 0.1c-1.9 0-4.4 0.4-5.7-1.3-2.4-3-0.2-8.7 2.1-11z"/>
					<path id="&lt;Path&gt;" class="s24" d="m260.5 888.2c-1.8-0.2-3.6 0.9-4.3 2.6"/>
					<path id="&lt;Path&gt;" class="s24" d="m261.6 892.9c1-1.6 2.8-2.6 4.6-2.6"/>
					<path id="&lt;Path&gt;" class="s24" d="m268.4 893.6c0.5-1.1 1.6-1.9 2.9-1.9"/>
				</g>
			</g>
			<g id="&lt;Group&gt;">
				<path id="&lt;Path&gt;" class="s18" d="m149.5 714q0.7 3.8 1.4 7.6c8.7-4.6 19.1-3.6 29-3.6 21.5-0.1 43-5.4 62-15.5-1.1-5.4-2.3-10.5-2.4-15.9 0-5.5-2.3-10.8-2.3-16.3-0.3-7.4 0-14.8 0.3-22.3 0.7-14 1.7-28.2-0.9-42-1.7-9-5.1-17.8-10.5-25.2-2.5-3.4-6-7.8-9.8-9.7-4.1-2.1-10.2-1.4-14.8-1.8-3.3-0.3-6.7-0.6-10 0-4.1 0.7-7.9 2.7-11.4 4.8-19 11.4-21.3 29.7-27 49.4-2.8 9.9-7.3 19.2-10.1 29-1.6 5.5-2.3 11.3-2.1 17 0.1 5.2 2.1 9.8 3 14.9q2.8 14.8 5.6 29.6z"/>
				<path id="&lt;Path&gt;" class="s25" d="m203.1 587.3c3.5 3 8.1 4.6 12.7 4.3 1.6-0.1 3.3-0.4 4.5-1.4 1.3-1 2-2.7 1.5-4.2"/>
				<path id="&lt;Path&gt;" class="s25" d="m198.7 628.6c4.1 13.5 14.8 24.8 28 29.5"/>
				<path id="&lt;Path&gt;" class="s25" d="m211 639.1c3.4 4.1 8.5 6.8 13.8 7.4"/>
				<path id="&lt;Path&gt;" class="s25" d="m186.8 638.3c4.9 15.3 13.6 29.5 25.2 40.7"/>
				<path id="&lt;Path&gt;" class="s22" d="m230.4 586.6c5.4 9.3 5.5 14.7 6.7 22.9 1.4 9.3 2 18.6 1.9 27.9-0.2 15.7-3.7 30.1-0.2 45.6"/>
			</g>
			<g id="&lt;Group&gt;">
				<g id="&lt;Group&gt;">
					<path id="&lt;Path&gt;" class="s20" d="m219 566.4c0.8-2.6 2-5.1 3.4-7.4-4.3-0.2-8.3-1.5-11.8-4-1.7-1.2-3.2-2.7-4.7-4.2-0.5-0.5-1.3-1.9-2.2-2.9-0.8 9.5-4.3 18.3-12.4 23.7 2.7 4.9 7.3 8.7 12.2 11.5 4.1 2.4 14.6 7.1 14.8-1.4 0.1-2.7-1-5.3-0.8-8.1 0.2-2.5 0.8-4.9 1.5-7.2z"/>
				</g>
			</g>
			<g id="&lt;Group&gt;">
				<g id="&lt;Group&gt;">
					<path id="&lt;Path&gt;" class="s19" d="m217.5 574.3q0-0.3 0-0.7c0.2-2.5 0.8-4.9 1.5-7.2 0.8-2.6 2-5.1 3.4-7.4-4.3-0.2-8.3-1.5-11.8-4-1.7-1.2-3.2-2.7-4.7-4.2-0.5-0.5-1.3-1.9-2.2-2.9q-0.2 2.1-0.5 4.1c0.6 8.8 6.6 18.3 14.3 22.3z"/>
				</g>
			</g>
			<path id="&lt;Path&gt;" class="s18" d="m155.9 588.2c-7.4 8.5-10.5 19.9-13 30.7q-4.9 20.8-9.8 41.6c-1.2 4.9-3 11.4-1.9 16.4 1.1 5.3 5 10.2 9.6 13 5 3 12.5 4.3 17.9 1.8 5.4-2.4 11.4-5 15.3-9.6 3-3.6 4-8.5 4.8-13.1q1.8-9.6 3.6-19.1c4.9-26 9.7-52.8 4.2-78.7-13.1 1.9-23 8.2-30.7 17z"/>
			<path id="&lt;Path&gt;" class="s22" d="m186.9 614c-10.8 2.8-9.9 16.6-10.9 25.2-1.4 12.6-3.8 25.1-7.1 37.3"/>
			<path id="&lt;Path&gt;" class="s22" d="m178.8 621.1c1.2-3.8 3.5-7.2 6.5-9.7"/>
			<path id="&lt;Path&gt;" class="s20" d="m172.4 672.9c5.8 1.3 11.5 3.1 17.1 4.9 9.1 2.7 18.2 4.3 27.4 6.7 2.6 0.7 5.3 1.4 8 1.4 4.6 0 9.1-1.8 13.8-1.9 6.2-0.2 12.2 3.3 15.6 8.4 5.7 8.7-3.7 6.4-9.7 6.3q-6.9-0.1-13.8-0.2c-18.2-0.2-35.4 0.7-53.6 2.2-9.9 0.8-27.1 3.2-35.9-2.7-4.3-2.9-11.4-16.8-7.4-20.9 0.7-0.8 1.7-1.2 2.7-1.6 8.9-3.6 18.6-4.9 28.1-3.9q3.9 0.5 7.7 1.3z"/>
			<path id="&lt;Path&gt;" class="s26" d="m304.9 679.7q-0.1 0-0.3 0"/>
			<g id="&lt;Group&gt;">
				<path id="&lt;Path&gt;" class="s5" d="m324.6 723.9h-120c-1.4 0-2.4-1.1-2.4-2.4v-0.9c0-1.3 1-2.4 2.4-2.4h120c1.3 0 2.4 1.1 2.4 2.4v0.9c0 1.3-1.1 2.4-2.4 2.4z"/>
				<path id="&lt;Path&gt;" class="s27" d="m339.6 723.9h-106.7l9.3-61.3c0.3-2.2 2.2-3.7 4.2-3.7h98.3c2.5 0 4.4 2.2 4 4.8z"/>
				<path id="&lt;Path&gt;" class="s18" d="m302.2 690.1c0 3.9-3.2 7.1-7.1 7.1-3.9 0-7.1-3.2-7.1-7.1 0-3.9 3.2-7.1 7.1-7.1 3.9 0 7.1 3.2 7.1 7.1z"/>
			</g>
			<g id="&lt;Group&gt;">
				<g id="&lt;Group&gt;">
					<path id="&lt;Path&gt;" class="s20" d="m240.1 527.4c-1.2-4.8-6.3-0.6-10.9-2.2-4.1-1.4-7.2-2.7-11.5-1.9-3.8 0.6-7.5 2.6-9.9 5.7q-1 1.2-1.8 2.5c-1.5 3-2.8 6.1-3.6 9.4q0 0.1 0 0.2c0.2 6.2 2.3 12 5.7 16.7 3.4 4.6 8.8 7.5 14.5 6.8 3-0.3 5.8-1.6 8.3-4.2 2.4-2.6 4.1-5.8 5.5-9.1 2.1-5 5.1-18.7 3.7-23.9z"/>
				</g>
			</g>
			<path id="&lt;Path&gt;" class="s5" d="m217.6 532q0.1-0.3 0.2-0.7 0.6-3 1.2-5.9c5 3.7 10.5 9.1 17 11.2 4.9 1.6 10.4-0.2 13.6-4.3 0.5-0.7 0.9-1.5 1.4-2.3 0.2-0.4 0.6-2 0.8-2.1-1.7 1.2-4.2 0.3-5.6-1.3-1.4-1.5-2-3.6-2.8-5.6-1.9-4.6-5-8.7-9.1-11.5-4.1-2.8-9.2-4.3-14.1-3.7-3.1 0.4-6.1 1.6-8.6 3.5-1.2 0.9-2.4 2-3.2 3.3-0.5 0.5-2.2 3.7-1.5 4.3-1.1-0.9-2.8-0.8-4.1-0.1-1.2 0.8-2.1 2-2.8 3.3-3.1 5.3-4.2 11.8-3.2 17.8 0.4 2.8 1.4 5.1 2.4 7.7 0.8 2 2.1 4.3 4.6 4.4 3.5 0.1 3.1-5.8 4.1-8.8 0.4-1.1 0.3-2.6 1.7-3 1.4-0.3 3.7 2.4 4.8 0.2 0.4-0.8 0.2-1.8 0-2.6-0.1-0.9-0.3-1.9 0.2-2.6 0.1-0.1 1.8 0 2.1-0.1 0.7-0.2 0.8-0.6 0.9-1.1z"/>
			<path id="&lt;Path&gt;" class="s9" d="m209.1 507.9c-2.7 3.6-3.3 8.8-1.4 12.9"/>
			<path id="&lt;Path&gt;" class="s9" d="m199.5 515.7c2.2-1.4 5.4-0.9 7.1 1.1"/>
			<path id="&lt;Path&gt;" class="s5" d="m228.6 543.6c0 0.8-0.7 1.5-1.5 1.5-0.9 0-1.6-0.7-1.6-1.5 0-0.9 0.7-1.6 1.6-1.6 0.8 0 1.5 0.7 1.5 1.6z"/>
			<path id="&lt;Path&gt;" class="s9" d="m225.9 539.4c1-0.3 2.1-0.3 3.1 0.1"/>
			<path id="&lt;Path&gt;" class="s5" d="m238.5 545.2c0 0.8-0.7 1.5-1.6 1.5-0.8 0-1.5-0.7-1.5-1.5 0-0.9 0.7-1.6 1.5-1.6 0.9 0 1.6 0.7 1.6 1.6z"/>
			<path id="&lt;Path&gt;" class="s9" d="m235.7 541c1-0.3 2.1-0.3 3.1 0.1"/>
			<path id="&lt;Path&gt;" class="s9" d="m232.9 545.9c-0.2 1.4 0.2 2.8 1 3.9 0.2 0.3 0.5 0.6 0.5 1-0.1 0.4-0.4 0.7-0.8 0.8-0.4 0.1-0.8 0-1.1-0.1"/>
			<path id="&lt;Path&gt;" class="s9" d="m225.9 554.5c1.4 1.2 3.5 1.8 5.4 1.4"/>
			<g id="&lt;Group&gt;">
				<path id="&lt;Path&gt;" class="s20" d="m202 540.8c0 3.1 2.5 5.7 5.7 5.7 3.1 0 5.7-2.6 5.7-5.7 0-3.2-2.6-5.7-5.7-5.7-3.2 0-5.7 2.5-5.7 5.7z"/>
				<path id="&lt;Path&gt;" class="s10" d="m206.6 538.3c0.8-0.1 1.7 0.3 2.2 0.9 0.5 0.7 0.7 1.6 0.4 2.4-0.5-0.5-1.3-0.6-1.9-0.3-0.6 0.3-1 1-0.9 1.6"/>
			</g>
		</g>
		<g id="&lt;Group&gt;">
			<g id="&lt;Group&gt;">
				<g id="&lt;Group&gt;">
					<path id="&lt;Path&gt;" class="s5" d="m842.2 867.7c-0.2-0.7-20.6 2.9-22.9 3.2q-0.1 0.2-0.2 0.3c-7.1 6-16 9.2-24.8 12.4-1.4 0.5-2.8 1-3.7 2.1-4 4.7 4.5 6.7 7.5 6.9 4.9 0.5 9.7-0.5 14.5-1.4 9.8-1.7 19.8-1.1 29.6-3.5 0.4-0.1 0.8-0.3 1-0.6 0.2-0.2 0.2-0.6 0.3-0.9 0.5-6.1 0.1-12.4-1.3-18.5z"/>
					<path id="&lt;Path&gt;" class="s27" d="m797.5 724.1c4.9 49.2 13.9 99.6 19.5 148.7 11.5 1 15.7 0.3 26.9-1.6 7.3-53.4 10.4-79.2 3.8-133.4-0.7-5.6-0.1-51.6-0.3-57.6-1.1-35.2 3.6-75.4-17.6-105.1-5.3-7.6-14.1-13.3-23-12.6-6.5 0.5-11.5 4-15.3 9.1-10.9 14.8-4.8 55.1-2.8 72.7 2.5 23.4 6.4 56.4 8.8 79.8z"/>
					<path id="&lt;Path&gt;" class="s13" d="m800.9 754.7c2-8.5 4.5-16.9 6.9-25.4 8.4-29.4 11.9-59.7 16.1-90 1-7.1 2-14.3 1.8-21.6-0.1-7.3-1.1-14.7-1.6-22.1-0.8-10-1.8-20-4.2-29.7-4-2.4-8.5-3.8-13.1-3.4-6.5 0.5-11.5 4-15.3 9.1-10.9 14.8-4.8 55.1-2.8 72.7 2.5 23.4 6.4 56.4 8.8 79.8 1 10.1 2.2 20.3 3.4 30.6z"/>
				</g>
				<g id="&lt;Group&gt;">
					<path id="&lt;Path&gt;" class="s5" d="m763.4 874.6q-0.3 0-0.6 0c-6.5 0.8-13.2 0.8-19.7-0.1-0.8-0.1-1.7-0.2-2.5 0-0.8 0.1-1.4 0.5-2.1 0.9-6.1 3.8-12.9 6.4-19.9 7.7-4.1 0.7-8.4 1.1-11.6 3.7-1.5 1.2-2.7 3.4-1.6 5 0.4 0.5 1 0.9 1.6 1.1 6.1 2.9 15.4 1.8 22 1.4 10.7-0.6 21.2 0.1 31.8-2.1 0.4 0 0.8-0.1 1.2-0.4 0.4-0.4 0.6-1.1 0.8-1.7 0.6-2.9 1.2-5.8 1.5-8.8 0.2-1.2 0.8-5.4 0-6.4-0.2-0.2-0.5-0.3-0.9-0.3z"/>
					<path id="&lt;Path&gt;" class="s27" d="m789.5 569.2c-24.2-0.4-31.7 24.9-34.5 44.4-6.1 41.1-10.4 82.5-12.9 123.9-1.2 20.7-2.8 38.1-3.5 58.8-0.7 21.2-1.9 57.9-0.9 79 0 0.4 0 0.9 0.3 1.2 0.3 0.3 0.8 0.4 1.3 0.5 8.9 0.9 17.9 1 26.8 0.4 0.4-0.1 0.8-0.1 1.2-0.4 0.4-0.3-3.1-1.6-2.9-2 6.8-21.1 11.5-58.8 13.6-80.8 4.5-46 14-90.8 31.2-133.3 17.2-40.1 26.9-90.9-19.7-91.7z"/>
					<path id="&lt;Path&gt;" class="s17" d="m799.4 685.9c9.8-23.2 18.1-47 25.1-71.3"/>
				</g>
				<g id="&lt;Group&gt;">
					<path id="&lt;Path&gt;" class="s13" d="m794.3 623.7q0.1 0.1 0.2 0.1 3.3 0.5 6.7 0.9 2.4 0.3 4.9 0.6 0.8 0 1.6 0.1 2 0.2 4.1 0.3 1.2 0.1 2.3 0.1 0.9 0.1 1.9 0.1 0 0 0 0c10.4 0.3 20.9-0.4 31.2-2.2-1.5-18.6-5.6-36.5-16.4-51.7-5.3-7.5-14.1-13.3-23-12.6-6.5 0.6-11.5 4.1-15.2 9.2-0.9 1.1-1.6 2.4-2.2 3.7-21-0.5-30.3 20.8-35 38.7 4.7 2.8 9.9 5 15.1 6.8 7.7 2.7 15.7 4.6 23.8 5.9z"/>
				</g>
			</g>
			<g id="&lt;Group&gt;">
				<g id="&lt;Group&gt;">
					<g id="&lt;Group&gt;">
						<path id="&lt;Path&gt;" class="s28" d="m804.8 437.1c0.2-2.7 0-5.5-0.6-8.1 4.1 1.3 8.3 1.4 12.5 0.3 2-0.5 3.9-1.3 5.8-2.2 0.7-0.3 1.9-1.3 3.1-2-2.5 9.2-2.3 18.7 3.3 26.5-4.2 3.7-9.8 5.6-15.3 6.6-4.8 0.8-16.2 1.5-13.5-6.5 0.9-2.6 2.8-4.6 3.6-7.4 0.6-2.3 1-4.8 1.1-7.2z"/>
					</g>
				</g>
				<g id="&lt;Group&gt;">
					<g id="&lt;Group&gt;">
						<path id="&lt;Path&gt;" class="s29" d="m815.9 429.5c-3.9 0.9-7.9 0.8-11.7-0.5 0.6 2.6 0.8 5.4 0.6 8.1-0.1 2.4-0.5 4.9-1.1 7.2q-0.1 0.4-0.2 0.8 0.7-0.1 1.4-0.3c5.4-3.6 9.1-9.1 11-15.3z"/>
					</g>
				</g>
				<g id="&lt;Group&gt;">
					<g id="&lt;Group&gt;">
						<path id="&lt;Path&gt;" class="s28" d="m798.6 393.1c2.8-4 6.2 1.7 11.1 1.8 4.3 0.1 7.6 0 11.4 2.2 3.3 2 6.1 5.1 7.3 8.9q0.5 1.5 0.8 3c0.3 3.3 0.4 6.7 0.1 10q0 0.1-0.1 0.2c-2.4 5.8-6.3 10.4-11.2 13.7-4.7 3.1-10.9 3.9-15.9 1.3-2.7-1.4-4.9-3.6-6.3-6.9-1.4-3.2-1.9-6.8-2-10.4-0.3-5.4 1.7-19.3 4.8-23.8z"/>
					</g>
				</g>
				<path id="&lt;Path&gt;" class="s5" d="m804.2 402.5c-3.9 0.6-7 1.2-10.5-0.9-2.7-1.5-4.7-4.1-5.6-7.1-0.3-0.9-0.4-1.8-0.5-2.7-0.1-0.4 0-2.1-0.1-2.3 1.2 1.8 3.9 1.8 5.7 0.9 1.9-1 3.2-2.8 4.6-4.3 3.4-3.6 7.7-6.4 12.6-7.7 4.8-1.2 10-0.7 14.4 1.5 2.8 1.5 5.2 3.6 6.9 6.2 0.8 1.3 1.5 2.8 1.9 4.3 0.2 0.7 0.7 4.3-0.2 4.6 1.4-0.5 3 0.2 3.9 1.3 0.9 1.1 1.3 2.6 1.5 4 0.7 4.5 0.1 10.2-1.8 14.4-1.4 3.3-3 6.9-4.8 10-1.6 2.7-3.8 5.1-6.6 6.5-3.6 1.7-7.7 1.6-11.7 1.4-3.6-0.2-6.4-1.5-7.9-5-0.6-1.6-0.9-3.5-1-5.2 0-0.8-0.4-5.9 0.2-6.2-0.7 0.3-1.5 0.7-2.3 0.8-0.9 0.1-1.8-0.3-2.2-1-0.3-0.7-0.1-1.6 0.1-2.3q1.7-5.6 3.4-11.2z"/>
				<path id="&lt;Path&gt;" class="s9" d="m834.5 385.8c1.3 4.3 0 9.3-3.1 12.5"/>
				<path id="&lt;Path&gt;" class="s9" d="m840.8 396.4c-1.6-2-4.8-2.7-7-1.4"/>
				<g id="&lt;Group&gt;">
					<path id="&lt;Path&gt;" class="s28" d="m813.3 419c-1.1 3-4.4 4.5-7.4 3.4-3-1.1-4.5-4.4-3.4-7.4 1.1-2.9 4.4-4.4 7.4-3.3 2.9 1.1 4.5 4.4 3.4 7.3z"/>
					<path id="&lt;Path&gt;" class="s10" d="m809.8 415.1c-0.7-0.4-1.7-0.3-2.4 0.1-0.7 0.4-1.2 1.2-1.2 2.1 0.6-0.3 1.4-0.1 1.8 0.4 0.5 0.4 0.6 1.2 0.3 1.8"/>
				</g>
			</g>
			<g id="&lt;Group&gt;">
				<path id="&lt;Path&gt;" class="s28" d="m733.9 483.9c0.3-1.8 1.7-3.4 3.4-4 1.7-0.6 4.7-0.6 5.3-2.4 0.3-0.8 0.6-1.2-0.1-1.8-0.7-0.6-1.7-0.8-2.6-0.9-2.9-0.2-5.8 1.4-7.2 4-0.4 0.7-1 1.8-1.8 1.5-0.4-0.1-0.7-0.5-0.9-0.9-1-2.3 0.4-4.9 1.8-7.1 1-1.7 2.1-3.5 3.9-4.4 1.9-1.1 4.3-1.1 6.5-0.9 4.5 0.3 9.3 0.6 13.1 3.3 1 0.7 1.9 1.5 2.9 2.3 2.6 1.8 5.6 2.8 8.6 3.8q-1.4 4.8-2.8 9.7c-0.1 0.1-0.1 0.3-0.3 0.4-0.1 0.1-0.3 0-0.5 0-5.5-1.3-11.8-2.5-17.3-3.3-3.9-0.5-8.1 0-12 0.7z"/>
				<path id="&lt;Path&gt;" class="s18" d="m764 469.2c-5 6.3-7.7 14.4-7.4 22.5q5.2 2.1 10.5 4.2 1.8-8.4 3.7-16.7c0.3-1.7 1.8-5.3 0.9-6.7-1.1-1.4-6-2.6-7.7-3.3z"/>
				<path id="&lt;Path&gt;" class="s13" d="m800.3 482.4c-2.8-1.8-5.9-3.3-9.1-4.8-5.4-2.4-11.1-4.4-16.6-6.3-2-0.7-4.2-1.5-6.3-1.9-6 6.3-8.1 17-7.3 26.1 6.2 5.4 15.4 8.7 22.3 13 3.8 2.4 7.7 5 11.9 6.6 4.3 1.7 9 2.4 13.4 1.2 2.3-0.7 4.5-2 5.5-4.2 0.7-1.3 0.7-2.9 0.7-4.3-0.2-10.2-5.9-20-14.5-25.4z"/>
				<path id="&lt;Path&gt;" class="s28" d="m697.2 517.6c-2.3-4.2-2.9-9.4-1.2-13.9 0.7-1.6 1.8-3.3 3.4-3.8 2.1-0.7 4.3 0.6 5.6 2.3 1.3 1.7 1.9 3.8 2.7 5.7 0.9 2.2 2 4.2 3.4 6 1.5 1.9 3.2 3.7 3.7 6.1 0.3 1.9-0.3 3.9-1.7 5.2-5 4.9-13.5-3.3-15.9-7.6z"/>
				<g id="&lt;Group&gt;">
					<path id="&lt;Path&gt;" class="s30" d="m753.8 514.6l-30.4 14.7-40.1-36.5 30.3-14.7z"/>
					<path id="&lt;Path&gt;" class="s18" d="m748.8 513l-26 12.7-34.7-31.5 26-12.6z"/>
					<path id="&lt;Path&gt;" class="s31" d="m718.1 488.2l-21.7 10.5-2.1-1.9 21.7-10.5z"/>
					<path id="&lt;Path&gt;" class="s31" d="m729.2 498.3l-21.7 10.5-2.1-2 21.6-10.5z"/>
					<path id="&lt;Path&gt;" class="s31" d="m732.8 501.6l-21.6 10.5-2.1-1.9 21.6-10.5z"/>
					<path id="&lt;Path&gt;" class="s31" d="m736.5 504.9l-21.7 10.5-2.1-1.9 21.7-10.5z"/>
					<path id="&lt;Path&gt;" class="s31" d="m740.2 508.2l-21.7 10.5-2.1-1.9 21.6-10.5z"/>
					<path id="&lt;Path&gt;" class="s31" d="m743.8 511.6l-21.6 10.5-2.2-2 21.7-10.5z"/>
					<path id="&lt;Path&gt;" class="s5" d="m712.8 484.5l-18.2 8.8-7.7-7 18.2-8.8z"/>
				</g>
				<path id="&lt;Path&gt;" class="s28" d="m700.3 514.3q-0.4 0.5-0.8 1.1c-2.3 3.7 2.2 7.1 5 9.1 6.4 4.5 14.2 6.7 21.7 8.8 4.2 1.3 16.4-1.7 13-8.3-2.3-4.5-9.1-7.1-13.5-8.3-4.7-0.9-8.6-2.8-10.4-7.5-0.7-2.1-1.1-4.4-1.7-6.5-0.2-0.5-0.4-1-0.8-1.4-0.4-0.4-1.1-0.5-1.5-0.2-0.3 0.2-0.4 0.5-0.5 0.8-1.3 3.6 1 6.3-3.4 8.5-1.5 0.7-3.1 1.1-4.6 1.8-0.9 0.6-1.8 1.3-2.5 2.1z"/>
				<path id="&lt;Path&gt;" class="s18" d="m722.7 510.3c-4.3 6.8-6.1 15.2-5 23.2q5.5 1.5 11 3 0.9-8.5 1.8-17c0.1-1.7 1.2-5.4 0.2-6.7-1.2-1.3-6.2-1.9-8-2.5z"/>
				<path id="&lt;Path&gt;" class="s18" d="m797.8 444.3c2.1-2 5.2-2.3 8.1-2.6q11.1-1 22.2-2.1 2.1 7.5 4.2 14.9c0-0.2-24 0.7-26.3 0.7-2.4-0.1-10.2 0.7-11.2-1.6-1.1-2.5 1.1-7.7 3-9.3z"/>
				<path id="&lt;Path&gt;" class="s27" d="m846.5 567.9c0-7.9 0.5-15.8 1-23.7 0.6-10.2 1.4-20.5 1.5-30.8 0.2-12.5-0.3-25.6-2.5-38.2q-0.8-4.7-2-9.3-0.2-1-0.5-2c-2.4-5.6-6.8-13.2-12.8-16.5-1-0.1-2 0-3 0q-10.3 0.7-20.5 2.3c-4.7 0.7-8 1.3-11.5 4.9-8.7 9.2-17 29.6-19.3 42.2-2.2 12.1-1.3 12.8-2.6 24.9q-2.2 21.7-6.3 43.1c-2.3 12-5.7 25-15.7 32.1 16.6 7 33.4 14 51.1 16.8 17.7 2.7 36.8 0.9 51.9-8.9-7.1-10.9-8.8-23.8-8.8-36.9z"/>
				<g id="&lt;Group&gt;">
					<path id="&lt;Path&gt;" class="s27" d="m805.6 486.5c-0.7-1.3-1.6-2.6-2.8-3.4-1.3-0.9-3-1.1-4.6-1.1-6.9 0.4-12.4 6-16.1 11.9-3.7 5.9-6.6 12.5-11.9 17-9.2 7.9-31.4 1.5-41.7-0.8-7.9 7.7-8.7 16.6-4.6 26.9 13.8 6.1 42.9 20.5 58 13.3 5.3-2.5 9.2-6.8 12.4-11.8 1.9-2.8 3.6-5.9 5.1-8.9 3.4-6.7 6.7-13.6 8.3-21 1.6-7.3 1.3-15.3-2.1-22.1z"/>
					<path id="&lt;Path&gt;" class="s27" d="m811.7 461.6c-4.6-4.9-12.5-5.5-18.1-2-3.2 2.1-4.9 6.3-6.6 9.6q-3 6.2-5.2 12.7c-1.5 4.5-2.6 9.1-4 13.7-2.3 7.4-5.2 14.6-6.9 22.2-1.7 7.6-2.1 15.7 0.7 22.9 4.1 10.4 17.7 4.9 23.7-0.9 5.2-4.9 7.7-12 10.1-18.8q3.5-10.2 7-20.5c1.9-5.7 4.2-13.4 4.6-20.8 0.4-6.8-0.8-13.4-5.3-18.1z"/>
					<path id="&lt;Path&gt;" class="s17" d="m774.9 504.4c3.3-15.1 8.9-29.7 16.8-43"/>
					<path id="&lt;Path&gt;" class="s17" d="m816.4 491.5q-4.5 12-8.9 24c-2.2 5.8-4.2 13.2-8.3 17.9-4 4.7-7.8 9.9-12.7 13.8-4.9 3.8-10.9 6.4-17 5.8"/>
					<path id="&lt;Path&gt;" class="s17" d="m819.7 493.6c-2.7 1.5-5 3.8-6.5 6.5"/>
				</g>
				<path id="&lt;Path&gt;" class="s5" d="m726.2 490.1l-3.6 1.9 1.9-3.6 21.5-22.3c0.5-0.5 1.3-0.5 1.8-0.1 0.4 0.5 0.5 1.3 0 1.8z"/>
			</g>
		</g>
	</g>
</svg>