<svg version="1.2" xmlns="http://www.w3.org/2000/svg" viewBox="0 0 850 850" width="100" height="100">
	<title>5188751_51947-ai</title>
	<style>
		.s0 { fill: #bbbdbf } 
		.s1 { fill: #d1d2d3 } 
		.s2 { fill: #062c34 } 
		.s3 { fill: #fefefe } 
		.s4 { fill: #022128 } 
		.s5 { fill: #000000 } 
		.s6 { fill: #000f17 } 
		.s7 { fill: #f9b48e } 
		.s8 { mix-blend-mode: multiply;fill: #d1d2d3 } 
		.s9 { fill: #ec504e } 
		.s10 { mix-blend-mode: multiply;fill: #bbbdbf } 
		.s11 { fill: #063954 } 
		.s12 { fill: #01162c } 
		.s13 { mix-blend-mode: multiply;fill: #a6a9ab } 
		.s14 { fill: #915902 } 
		.s15 { fill: #f4824d } 
		.s16 { fill: #05b8c4 } 
		.s17 { fill: #741e00 } 
		.s18 { fill: #96cbbe } 
		.s19 { fill: #3b2313 } 
		.s20 { fill: #83141d } 
		.s21 { fill: #c2c14a } 
		.s22 { fill: #126e8c } 
		.s23 { fill: #014256 } 
		.s24 { fill: #530a00 } 
		.s25 { fill: #2d3742 } 
		.s26 { fill: #fbaf3f } 
		.s27 { fill: #f6ed30 } 
	</style>
	<g id="_Artboards_">
	</g>
	<g id="Capa 1">
		<path id="&lt;Path&gt;" class="s0" d="m818.7 787.9c0 14.9-79.4 27-177.3 27-98 0-177.4-12.1-177.4-27 0-14.9 79.4-27 177.4-27 97.9 0 177.3 12.1 177.3 27z"/>
		<g id="&lt;Group&gt;">
			<g id="&lt;Group&gt;">
				<g id="&lt;Group&gt;">
					<path id="&lt;Path&gt;" class="s1" d="m214 587.1c-12.3 0-22.3-10-22.3-22.4v-269.5c0-12.4 10-22.4 22.3-22.4h391.4c12.3 0 22.4 10 22.4 22.4v269.5c0 12.4-10.1 22.4-22.4 22.4z"/>
					<path id="&lt;Path&gt;" class="s2" d="m217.5 582.9c-11.9 0-21.6-9.7-21.6-21.6v-262.7c0-11.9 9.7-21.6 21.6-21.6h384.4c11.9 0 21.6 9.7 21.6 21.6v262.7c0 11.9-9.7 21.6-21.6 21.6z"/>
					<path id="&lt;Path&gt;" class="s3" d="m215 562.7v-265.5h389.4v265.5z"/>
					<path id="&lt;Path&gt;" class="s0" d="m215 297.2v265.5h389.4z"/>
				</g>
				<path id="&lt;Path&gt;" class="s2" d="m456.5 620h-93.6v-32.9h93.6z"/>
				<path id="&lt;Path&gt;" class="s4" d="m489.5 636.4h-155.3l28.7-16.4h93.6z"/>
				<path id="&lt;Path&gt;" class="s5" d="m489.5 649.8h-155.3v-13.4h155.3z"/>
				<g id="&lt;Group&gt;">
					<path id="&lt;Path&gt;" class="s6" d="m593.9 706.2h-364.1v-17.3h364.1z"/>
					<path id="&lt;Path&gt;" class="s2" d="m593.9 688.9l-38-33.4c-4.3-2.4-6.6-3.4-14.7-3.4h-261.4c-8.1 0-10.4 0-14.7 3.4l-35.3 33.4z"/>
					<path id="&lt;Path&gt;" class="s1" d="m275 657.1h272.8l25.3 21.3h-320.3z"/>
				</g>
			</g>
			<g id="&lt;Group&gt;">
				<path id="&lt;Path&gt;" class="s7" d="m673.1 687.5h-47.8v-28.5h47.8z"/>
				<path id="&lt;Path&gt;" class="s8" d="m655.6 683.6c-10-3.2-18.4-9.4-19.7-20.5-0.2-1.5 0-2.8 0.4-4.1h-11v28.5h47.8v-3.6c-5.8 1.5-12 1.5-17.5-0.3z"/>
				<g id="&lt;Group&gt;">
					<path id="&lt;Path&gt;" class="s7" d="m769 567.7c0 11.7-9.9 21.3-22.1 21.3-12.2 0-22-9.6-22-21.3 0-11.8 9.8-21.3 22-21.3 12.2 0 22.1 9.5 22.1 21.3z"/>
					<g id="&lt;Group&gt;" style="mix-blend-mode: multiply">
						<path id="&lt;Path&gt;" class="s1" d="m749.8 555.8c0 0 0.5-0.1 1.5 0 0.9 0 2.3 0.2 3.9 0.7 1.5 0.6 3.4 1.7 4.6 3.6 0.4 0.5 0.6 1.1 0.9 1.6q0.3 0.8 0.5 1.7l0.2 1.8q0 0.8-0.1 1.7c-0.1 1.1-0.4 2.3-0.7 3.3-0.3 1.1-0.8 2.1-1.4 3-1.1 1.9-2.6 3.3-4.1 4.1-0.7 0.5-1.5 0.7-2.1 0.9-0.7 0.1-1.3 0.3-1.7 0.3-1 0-1.5 0-1.5 0 0 0 0.5-0.2 1.3-0.6 0.4-0.1 0.9-0.4 1.5-0.7 0.5-0.4 1.1-0.7 1.6-1.2 0.5-0.5 1-1.1 1.5-1.7 0.5-0.7 0.9-1.5 1.3-2.3 0.4-0.8 0.7-1.7 1-2.6 0.2-0.9 0.4-1.8 0.5-2.8l0.1-1.4-0.1-1.3c-0.1-0.5-0.2-0.9-0.3-1.3-0.2-0.4-0.3-0.8-0.5-1.2-0.8-1.4-2-2.6-3.3-3.4-1.2-0.8-2.4-1.3-3.3-1.7-0.8-0.3-1.3-0.5-1.3-0.5z"/>
					</g>
					<path id="&lt;Path&gt;" class="s8" d="m752.6 568.7c0 2.3-1.6 4.2-3.6 4.2-1.9 0-3.5-1.9-3.5-4.2 0-2.3 1.6-4.1 3.5-4.1 2 0 3.6 1.8 3.6 4.1z"/>
				</g>
				<g id="&lt;Group&gt;">
					<path id="&lt;Path&gt;" class="s7" d="m532.5 567.7c0 11.7 9.8 21.3 22 21.3 12.2 0 22.1-9.6 22.1-21.3 0-11.8-9.9-21.3-22.1-21.3-12.2 0-22 9.5-22 21.3z"/>
					<g id="&lt;Group&gt;" style="mix-blend-mode: multiply">
						<path id="&lt;Path&gt;" class="s1" d="m551.7 555.8c0 0-0.6-0.1-1.5 0-1 0-2.3 0.2-3.9 0.7-1.6 0.6-3.4 1.7-4.7 3.6-0.3 0.5-0.5 1.1-0.8 1.6q-0.3 0.8-0.5 1.7l-0.2 1.8c0 0.5 0 1.1 0.1 1.7 0 1.1 0.3 2.3 0.6 3.3 0.4 1.1 0.9 2.1 1.4 3 1.1 1.9 2.6 3.3 4.1 4.1 0.8 0.5 1.5 0.7 2.2 0.9 0.6 0.1 1.2 0.3 1.7 0.3 1 0 1.5 0 1.5 0 0 0-0.5-0.2-1.4-0.6-0.4-0.1-0.9-0.4-1.4-0.7-0.5-0.4-1.1-0.7-1.6-1.2-0.6-0.5-1.1-1.1-1.6-1.7-0.5-0.7-0.9-1.5-1.3-2.3-0.4-0.8-0.7-1.7-0.9-2.6-0.3-0.9-0.5-1.8-0.5-2.8l-0.1-1.4 0.1-1.3c0.1-0.5 0.2-0.9 0.3-1.3 0.1-0.4 0.2-0.8 0.4-1.2 0.8-1.4 2.1-2.6 3.3-3.4 1.3-0.8 2.5-1.3 3.3-1.7 0.9-0.3 1.4-0.5 1.4-0.5z"/>
					</g>
					<path id="&lt;Path&gt;" class="s8" d="m548.8 568.7c0 2.3 1.6 4.2 3.6 4.2 2 0 3.6-1.9 3.6-4.2 0-2.3-1.6-4.1-3.6-4.1-2 0-3.6 1.8-3.6 4.1z"/>
				</g>
				<g id="&lt;Group&gt;">
					<path id="&lt;Path&gt;" class="s7" d="m746.9 539.6c0 72.4-33.9 123.2-97.7 123.2-63.7 0-97.7-50.8-97.7-123.2 0-72.4 35.3-131.1 99-131.1 63.8 0 96.4 58.7 96.4 131.1z"/>
				</g>
				<path id="&lt;Path&gt;" class="s7" d="m626.3 686.3c0 0-60.7 8-82.6 26.9-22.2 19.2-28.8 35.8-36.8 73.9h141.4 1.9 141.3c-8-38.1-14.6-54.7-36.8-73.9-21.8-18.9-82.5-26.9-82.5-26.9z"/>
				<path id="&lt;Path&gt;" class="s3" d="m607.9 689.4c0 0-42.3 4.9-64.2 23.8-22.2 19.2-28.8 35.8-36.8 73.9h141.4 1.9 141.3c-8-38.1-14.5-54.8-36.8-73.9-18.4-15.8-59.9-22.9-59.9-22.9l-22.6-4h-45.9z"/>
				<g id="&lt;Group&gt;">
					<path id="&lt;Path&gt;" class="s9" d="m637.9 723.2c0 0 0.2-0.3 0.8-0.8q-0.4 0.4-0.8 0.8l-7.9 63.9h38.4l-7.8-63.9 5.3-21.9c1.9-3.3 2.5-7.1 0.5-10.4-1.8-3-4.3-4.6-7.2-5.3-4.4-1.3-9.8-0.5-14.5-0.5-4.8 0-8.2 0.4-11.3 4.1-3.2 3.8-3.4 7.8-0.8 12.1z"/>
					<path id="&lt;Path&gt;" class="s10" d="m637 719.8c0 0 15.9-7.4 23.5 3.4 0 0-10.7-6.1-22.7 0z"/>
				</g>
				<path id="&lt;Path&gt;" class="s11" d="m607.9 689.4c0 0-42.3 4.9-64.2 23.8-22.2 19.2-28.8 35.8-36.8 73.9h141.4 1.9 141.3c-8-38.1-14.5-54.8-36.8-73.9-18.4-15.8-59.9-22.9-59.9-22.9l-45.6 94.1z"/>
				<path id="&lt;Path&gt;" class="s12" d="m608.5 690l40.7 94.4-43.3-27.9 9.8-16.8-48.5-40c0 0 27.5-10.6 41.3-9.7z"/>
				<path id="&lt;Path&gt;" class="s12" d="m694.8 690.3l-45.6 94.1 43.3-27.9-9.7-16.8 48.4-40c0 0-22.6-10.4-36.4-9.4z"/>
				<path id="&lt;Path&gt;" class="s13" d="m599.4 690.2l36.7 25.6-3.1-12.8z"/>
				<path id="&lt;Path&gt;" class="s13" d="m702.5 690.7l-40.2 25.6 3.5-14.9z"/>
				<g id="&lt;Group&gt;">
					<path id="&lt;Path&gt;" class="s3" d="m625.3 677.8l-25.9 12.4 30.6 18.3 21.4-23.6z"/>
					<path id="&lt;Path&gt;" class="s8" d="m624.9 686.9c3.8-3.4 8.3-5.8 13.6-5.5l-13.2-3.6-25.9 12.4 23.1 13.8c-2.9-5.6-2.7-12.4 2.4-17.1z"/>
				</g>
				<g id="&lt;Group&gt;">
					<path id="&lt;Path&gt;" class="s3" d="m677.1 677.8l25.9 12.4-30.6 18.3-21.4-23.6z"/>
					<path id="&lt;Path&gt;" class="s8" d="m677.5 686.9c-3.8-3.4-8.3-5.8-13.5-5.5l13.1-3.6 25.9 12.4-23.1 13.8c2.9-5.6 2.8-12.4-2.4-17.1z"/>
				</g>
				<path id="&lt;Path&gt;" class="s14" d="m551.8 557.2l9.9 9.9 1.9-79.7c0 0 0.7-41.4 44.6-41.4 0 0 36.1 18.8 82 3.3 0 0 41.1-6.5 46 36.2l-0.4 83.2 10.5-12.9 0.6-10.9c0 0 6.3-35.1 0-86.7 0 0-8.3-57.1-59.9-66.8 0 0-84.2-21.7-119.8 31.4 0 0-27.1 31.7-19.9 81.2z"/>
			</g>
			<g id="&lt;Group&gt;">
				<g id="&lt;Group&gt;">
					<path id="&lt;Path&gt;" class="s15" d="m225.3 453c0 37.4-30.3 67.7-67.7 67.7-37.4 0-67.7-30.3-67.7-67.7 0-37.4 30.3-67.7 67.7-67.7 37.4 0 67.7 30.3 67.7 67.7z"/>
					<g id="&lt;Clip Group&gt;">
						<g id="&lt;Group&gt;">
							<path id="&lt;Path&gt;" class="s7" d="m164.3 493h-13.3v-8h13.3z"/>
							<path id="&lt;Path&gt;" class="s10" d="m151.7 491c1.6-1.6 3.6-2.5 5.8-2.7 1.9-0.1 5.2 0.3 6.2-1.7q0.2-0.4 0.6-0.7v-0.9h-13.3v6.9q0.3-0.5 0.7-0.9z"/>
							<g id="&lt;Group&gt;">
								<path id="&lt;Path&gt;" class="s7" d="m191 459.6c0 3.3-2.8 6-6.2 6-3.4 0-6.1-2.7-6.1-6 0-3.3 2.7-5.9 6.1-5.9 3.4 0 6.2 2.6 6.2 5.9z"/>
								<g id="&lt;Group&gt;" style="mix-blend-mode: multiply">
									<path id="&lt;Path&gt;" class="s1" d="m185.6 456.3q0 0 0.4 0c0.3 0 0.7 0.1 1.1 0.2 0.4 0.2 1 0.5 1.3 1q0.1 0.2 0.2 0.5 0.1 0.2 0.2 0.4v0.5q0 0.3 0 0.5c0 0.3-0.1 0.6-0.2 0.9q-0.1 0.5-0.4 0.9c-0.3 0.5-0.7 0.9-1.1 1.1-0.2 0.1-0.4 0.2-0.6 0.3q-0.3 0-0.5 0-0.4 0-0.4 0 0 0 0.4-0.1 0.2-0.1 0.4-0.2c0.1-0.1 0.3-0.2 0.4-0.4q0.3-0.2 0.5-0.4 0.2-0.3 0.3-0.7 0.2-0.3 0.3-0.7 0.1-0.4 0.1-0.8l0.1-0.4-0.1-0.3q0-0.2-0.1-0.4 0-0.2-0.1-0.3c-0.2-0.4-0.6-0.7-0.9-1-0.3-0.2-0.7-0.3-0.9-0.4q-0.4-0.2-0.4-0.2z"/>
								</g>
								<path id="&lt;Path&gt;" class="s8" d="m186.4 459.9c0 0.7-0.4 1.2-1 1.2-0.5 0-1-0.5-1-1.2 0-0.6 0.5-1.1 1-1.1 0.6 0 1 0.5 1 1.1z"/>
							</g>
							<g id="&lt;Group&gt;">
								<path id="&lt;Path&gt;" class="s7" d="m125.1 459.6c0 3.3 2.8 6 6.2 6 3.3 0 6.1-2.7 6.1-6 0-3.3-2.8-5.9-6.1-5.9-3.4 0-6.2 2.6-6.2 5.9z"/>
								<g id="&lt;Group&gt;" style="mix-blend-mode: multiply">
									<path id="&lt;Path&gt;" class="s1" d="m130.5 456.3q0 0-0.4 0c-0.3 0-0.7 0.1-1.1 0.2-0.5 0.2-1 0.5-1.3 1q-0.2 0.2-0.3 0.5 0 0.2-0.1 0.4l-0.1 0.5q0 0.3 0.1 0.5c0 0.3 0.1 0.6 0.1 0.9q0.2 0.5 0.4 0.9c0.3 0.5 0.8 0.9 1.2 1.1 0.2 0.1 0.4 0.2 0.6 0.3q0.3 0 0.5 0 0.4 0 0.4 0 0 0-0.4-0.1-0.2-0.1-0.4-0.2c-0.1-0.1-0.3-0.2-0.5-0.4q-0.2-0.2-0.4-0.4-0.2-0.3-0.4-0.7-0.1-0.3-0.2-0.7-0.1-0.4-0.2-0.8v-0.4-0.3q0.1-0.2 0.1-0.4 0.1-0.2 0.2-0.3c0.2-0.4 0.5-0.7 0.9-1 0.3-0.2 0.6-0.3 0.9-0.4q0.4-0.2 0.4-0.2z"/>
								</g>
								<path id="&lt;Path&gt;" class="s8" d="m129.7 459.9c0 0.7 0.4 1.2 1 1.2 0.5 0 1-0.5 1-1.2 0-0.6-0.5-1.1-1-1.1-0.6 0-1 0.5-1 1.1z"/>
							</g>
							<g id="&lt;Group&gt;">
								<path id="&lt;Path&gt;" class="s7" d="m184.8 451.8c0 20.2-9.4 34.3-27.2 34.3-17.7 0-27.2-14.1-27.2-34.3 0-20.1 9.8-36.5 27.6-36.5 17.7 0 26.8 16.4 26.8 36.5z"/>
							</g>
							<path id="&lt;Path&gt;" class="s7" d="m151.2 492.6c0 0-16.9 2.3-22.9 7.5-6.2 5.4-8.1 10-10.3 20.6h39.3 0.6 39.3c-2.2-10.6-4-15.2-10.2-20.6-6.1-5.2-23-7.5-23-7.5z"/>
							<path id="&lt;Path&gt;" class="s16" d="m142.2 494.4c0 0 1.9-0.8-4.8 1.3 1.8 16.6-1.2 25-1.2 25h43.7c-4.3-14.1 0-24.3 0-24.3-4.1-1.5-4.1-1.5-4.1-1.5 0 0-0.3 20.2-18.5 18.8 0 0-15.6 1.6-15.1-19.3z"/>
							<path id="&lt;Path&gt;" class="s9" d=""/>
							<path id="&lt;Path&gt;" class="s17" d="m148.3 414.7c0 0-19.4 0.6-23.2 31.4 0 0-3.6 25.4 8.7 47.1 0 0 8.2-1.3 17.2-0.5v-7.3c0 0-18.5-3.3-18.2-27.4 0 0 0.1-27.8 14.2-33.1z"/>
							<path id="&lt;Path&gt;" class="s17" d="m166.9 414.7c0 0 22.1-0.4 25.8 30.4 0 0 1.9 20.6-11.3 48.1 0 0-8.2-1.3-17.1-0.5v-7.3c0 0 18.4-3.3 18.2-27.4 0 0-0.2-27.8-14.3-33.1z"/>
							<path id="&lt;Path&gt;" class="s17" d="m140.5 422.5c0 0 12.6 20 38.8 18.1l5.1 13.1 5.1 2.1c0 0 7.7-2.1-0.3-33.3 0 0-8.3-22.9-38.2-16.1 0 0-15 2.8-10.5 16.1z"/>
						</g>
					</g>
				</g>
				<g id="&lt;Group&gt;">
					<path id="&lt;Path&gt;" class="s18" d="m238.1 256.7c0 37.4-30.4 67.7-67.7 67.7-37.4 0-67.7-30.3-67.7-67.7 0-37.4 30.3-67.7 67.7-67.7 37.3 0 67.7 30.3 67.7 67.7z"/>
					<g id="&lt;Clip Group&gt;">
						<g id="&lt;Group&gt;">
							<path id="&lt;Path&gt;" class="s19" d="m201 264.9c0 0-8.8 29.6-24.3 31.5v-6.8c0 0 15.9-29.6 24.3-24.7z"/>
							<path id="&lt;Path&gt;" class="s7" d="m177 296.7h-13.3v-7.9h13.3z"/>
							<path id="&lt;Path&gt;" class="s10" d="m164.5 294.7c1.5-1.6 3.6-2.5 5.8-2.6 1.9-0.2 5.1 0.2 6.1-1.8q0.3-0.4 0.6-0.7v-0.8h-13.3v6.8q0.3-0.5 0.8-0.9z"/>
							<g id="&lt;Group&gt;">
								<path id="&lt;Path&gt;" class="s7" d="m203.7 263.4c0 3.2-2.8 5.9-6.1 5.9-3.4 0-6.2-2.7-6.2-5.9 0-3.3 2.8-6 6.2-6 3.3 0 6.1 2.7 6.1 6z"/>
								<g id="&lt;Group&gt;" style="mix-blend-mode: multiply">
									<path id="&lt;Path&gt;" class="s1" d="m198.3 260.1q0.1-0.1 0.5-0.1c0.2 0.1 0.6 0.1 1 0.3 0.5 0.1 1 0.4 1.4 1q0.1 0.2 0.2 0.4 0.1 0.2 0.1 0.5l0.1 0.5q0 0.2 0 0.4c-0.1 0.4-0.2 0.7-0.2 1q-0.2 0.4-0.4 0.8c-0.3 0.5-0.7 0.9-1.2 1.1-0.2 0.2-0.4 0.2-0.6 0.3q-0.2 0.1-0.4 0.1-0.4 0-0.5 0 0.1 0 0.4-0.2c0.1 0 0.3-0.1 0.4-0.2 0.2-0.1 0.3-0.2 0.5-0.3q0.2-0.2 0.4-0.5 0.2-0.3 0.4-0.6 0.1-0.4 0.2-0.8 0.1-0.3 0.2-0.7v-0.4-0.4q-0.1-0.2-0.1-0.4-0.1-0.1-0.1-0.3c-0.3-0.4-0.6-0.7-1-0.9-0.3-0.3-0.6-0.4-0.9-0.5q-0.3-0.1-0.4-0.1z"/>
								</g>
								<path id="&lt;Path&gt;" class="s8" d="m199.1 263.7c0 0.6-0.4 1.1-1 1.1-0.5 0-1-0.5-1-1.1 0-0.7 0.5-1.2 1-1.2 0.6 0 1 0.5 1 1.2z"/>
							</g>
							<g id="&lt;Group&gt;">
								<path id="&lt;Path&gt;" class="s7" d="m137.9 263.4c0 3.2 2.7 5.9 6.1 5.9 3.4 0 6.1-2.7 6.1-5.9 0-3.3-2.7-6-6.1-6-3.4 0-6.1 2.7-6.1 6z"/>
								<g id="&lt;Group&gt;" style="mix-blend-mode: multiply">
									<path id="&lt;Path&gt;" class="s1" d="m143.2 260.1c0 0-0.1-0.1-0.4-0.1-0.3 0.1-0.7 0.1-1.1 0.3-0.4 0.1-0.9 0.4-1.3 1q-0.1 0.2-0.2 0.4-0.1 0.2-0.2 0.5v0.5q0 0.2 0 0.4c0 0.4 0.1 0.7 0.2 1q0.1 0.4 0.4 0.8c0.3 0.5 0.7 0.9 1.1 1.1 0.2 0.2 0.4 0.2 0.6 0.3q0.3 0.1 0.5 0.1 0.4 0 0.4 0 0 0-0.4-0.2-0.1-0.1-0.4-0.2c-0.1-0.1-0.3-0.2-0.4-0.3q-0.2-0.2-0.5-0.5-0.2-0.3-0.3-0.6-0.2-0.4-0.3-0.8-0.1-0.3-0.1-0.7v-0.4-0.4q0-0.2 0.1-0.4 0-0.1 0.1-0.3c0.2-0.4 0.6-0.7 0.9-0.9 0.4-0.3 0.7-0.4 0.9-0.5q0.4-0.1 0.4-0.1z"/>
								</g>
								<path id="&lt;Path&gt;" class="s8" d="m142.4 263.7c0 0.6 0.5 1.1 1 1.1 0.6 0 1-0.5 1-1.1 0-0.7-0.4-1.2-1-1.2-0.5 0-1 0.5-1 1.2z"/>
							</g>
							<g id="&lt;Group&gt;">
								<path id="&lt;Path&gt;" class="s7" d="m197.6 255.5c0 20.2-9.5 34.3-27.2 34.3-17.8 0-27.2-14.1-27.2-34.3 0-20.1 9.8-36.4 27.5-36.4 17.8 0 26.9 16.3 26.9 36.4z"/>
							</g>
							<path id="&lt;Path&gt;" class="s7" d="m164 296.4c0 0-16.9 2.2-23 7.5-6.2 5.3-8 9.9-10.3 20.5h39.4 0.5 39.4c-2.3-10.6-4.1-15.2-10.3-20.5-6.1-5.3-23-7.5-23-7.5z"/>
							<path id="&lt;Path&gt;" class="s9" d="m176.7 296.4c0 0 8.8 1.1 15.9 3.7 0 0-4.2 10.2 0 24.3h-43.6c0 0 3-8.6 1.1-25 6.7-2.1 13.9-3 13.9-3l6.1 11.9z"/>
							<path id="&lt;Path&gt;" class="s9" d=""/>
							<path id="&lt;Path&gt;" class="s19" d="m198.6 257.5c-9.2-2.2-13.7-13.6-13.7-13.6-0.5 2.9 0.3 5.5 0.3 5.5-16.5-7.7-26.6-19.9-26.6-19.9-8.5-10.4 5.1-17.3 5.1-17.3 21.7-7.7 31.1 6.9 31.1 6.9 0 0 15.4 13.9 7.8 40.9 0 0-1-1.7-4-2.5z"/>
							<path id="&lt;Path&gt;" class="s19" d="m161.1 218.4c0 0-19.5 0.7-23.2 31.5 0 0-5.4 56.3 19.9 65.9 0 0-1.7-15.9 5.9-19.4v-7.3c0 0-18.4-3.2-18.2-27.4 0 0 0.1-27.8 14.3-33z"/>
							<path id="&lt;Path&gt;" class="s3" d="m199.6 269.1c0 1.1-0.9 2-2 2-1.2 0-2.1-0.9-2.1-2 0-1.2 0.9-2.1 2.1-2.1 1.1 0 2 0.9 2 2.1z"/>
						</g>
					</g>
				</g>
				<g id="&lt;Group&gt;">
					<path id="&lt;Path&gt;" class="s9" d="m699.1 256.7c0 37.4-30.3 67.7-67.7 67.7-37.4 0-67.7-30.3-67.7-67.7 0-37.4 30.3-67.7 67.7-67.7 37.4 0 67.7 30.3 67.7 67.7z"/>
					<g id="&lt;Clip Group&gt;">
						<g id="&lt;Group&gt;">
							<path id="&lt;Path&gt;" class="s7" d="m638 296.7h-13.3v-7.9h13.3z"/>
							<path id="&lt;Path&gt;" class="s10" d="m625.5 294.7c1.6-1.6 3.6-2.5 5.8-2.6 1.9-0.2 5.2 0.2 6.2-1.8q0.2-0.4 0.5-0.7v-0.8h-13.3v6.8q0.4-0.5 0.8-0.9z"/>
							<g id="&lt;Group&gt;">
								<path id="&lt;Path&gt;" class="s7" d="m664.7 263.4c0 3.2-2.7 5.9-6.1 5.9-3.4 0-6.2-2.7-6.2-5.9 0-3.3 2.8-6 6.2-6 3.4 0 6.1 2.7 6.1 6z"/>
								<g id="&lt;Group&gt;" style="mix-blend-mode: multiply">
									<path id="&lt;Path&gt;" class="s1" d="m659.4 260.1q0-0.1 0.4-0.1c0.2 0.1 0.6 0.1 1.1 0.3 0.4 0.1 0.9 0.4 1.3 1q0.1 0.2 0.2 0.4 0.1 0.2 0.1 0.5l0.1 0.5q0 0.2 0 0.4c0 0.4-0.1 0.7-0.2 1q-0.2 0.4-0.4 0.8c-0.3 0.5-0.7 0.9-1.1 1.1-0.2 0.2-0.5 0.2-0.6 0.3q-0.3 0.1-0.5 0.1-0.4 0-0.4 0 0 0 0.3-0.2c0.2 0 0.3-0.1 0.4-0.2 0.2-0.1 0.3-0.2 0.5-0.3q0.2-0.2 0.4-0.5 0.2-0.3 0.4-0.6 0.1-0.4 0.3-0.8 0.1-0.3 0.1-0.7v-0.4-0.4q-0.1-0.2-0.1-0.4 0-0.1-0.1-0.3c-0.2-0.4-0.6-0.7-0.9-0.9-0.4-0.3-0.7-0.4-0.9-0.5q-0.4-0.1-0.4-0.1z"/>
								</g>
								<path id="&lt;Path&gt;" class="s8" d="m660.2 263.7c0 0.6-0.5 1.1-1 1.1-0.6 0-1-0.5-1-1.1 0-0.7 0.4-1.2 1-1.2 0.5 0 1 0.5 1 1.2z"/>
							</g>
							<g id="&lt;Group&gt;">
								<path id="&lt;Path&gt;" class="s7" d="m598.9 263.4c0 3.2 2.7 5.9 6.1 5.9 3.4 0 6.2-2.7 6.2-5.9 0-3.3-2.8-6-6.2-6-3.4 0-6.1 2.7-6.1 6z"/>
								<g id="&lt;Group&gt;" style="mix-blend-mode: multiply">
									<path id="&lt;Path&gt;" class="s1" d="m604.2 260.1c0 0-0.1-0.1-0.4-0.1-0.2 0.1-0.6 0.1-1.1 0.3-0.4 0.1-0.9 0.4-1.3 1q-0.1 0.2-0.2 0.4-0.1 0.2-0.1 0.5l-0.1 0.5q0 0.2 0 0.4c0 0.4 0.1 0.7 0.2 1q0.2 0.4 0.4 0.8c0.3 0.5 0.7 0.9 1.1 1.1 0.2 0.2 0.5 0.2 0.6 0.3q0.3 0.1 0.5 0.1 0.4 0 0.4 0 0 0-0.3-0.2-0.2-0.1-0.4-0.2c-0.2-0.1-0.3-0.2-0.5-0.3q-0.2-0.2-0.4-0.5-0.2-0.3-0.4-0.6-0.1-0.4-0.3-0.8-0.1-0.3-0.1-0.7v-0.4-0.4q0.1-0.2 0.1-0.4 0.1-0.1 0.1-0.3c0.2-0.4 0.6-0.7 0.9-0.9 0.4-0.3 0.7-0.4 0.9-0.5q0.4-0.1 0.4-0.1z"/>
								</g>
								<path id="&lt;Path&gt;" class="s8" d="m603.4 263.7c0 0.6 0.5 1.1 1 1.1 0.6 0 1-0.5 1-1.1 0-0.7-0.4-1.2-1-1.2-0.5 0-1 0.5-1 1.2z"/>
							</g>
							<g id="&lt;Group&gt;">
								<path id="&lt;Path&gt;" class="s7" d="m658.6 255.5c0 20.2-9.5 34.3-27.2 34.3-17.8 0-27.2-14.1-27.2-34.3 0-20.1 9.8-36.4 27.5-36.4 17.8 0 26.9 16.3 26.9 36.4z"/>
							</g>
							<path id="&lt;Path&gt;" class="s7" d="m625 296.4c0 0-16.9 2.2-23 7.5-6.2 5.3-8 9.9-10.2 20.5h39.3 0.5 39.4c-2.2-10.6-4.1-15.2-10.3-20.5-6-5.3-22.9-7.5-22.9-7.5z"/>
							<path id="&lt;Path&gt;" class="s20" d="m646 297.9c5.2 1.2 11.5 3.2 14.7 6 6.2 5.3 8.1 9.9 10.3 20.5h-39.4-0.5-39.3c2.2-10.6 4-15.2 10.2-20.5 3.4-2.9 10-4.9 15.2-6.1l14.2 15.3z"/>
							<path id="&lt;Path&gt;" class="s9" d=""/>
							<path id="&lt;Path&gt;" class="s19" d="m622.1 218.4c0 0-19.5 0.7-23.2 31.5 0 0-0.7 26.4-0.7 57.7 0 0 4.4-7.8 26.5-11.2v-7.3c0 0-18.4-3.2-18.2-27.4 0 0 0.2-27.8 14.3-33z"/>
							<path id="&lt;Path&gt;" class="s19" d="m640.7 218.4c0 0 22.1-1.1 25.8 29.7 0 0 0.5 27.3-1.8 59.8 0 0-6.1-8.7-26.7-11.5v-7.3c0 0 18.5-3.2 18.2-27.4 0 0-0.1-27.8-14.2-33z"/>
							<path id="&lt;Path&gt;" class="s19" d="m628.4 248.1l2.7-13.8v13.8h13.7l2.2-9.7 2.4 9.7h17.1c0-9.8-1.8-17.8-1.8-17.8 0 0-4.5-21.4-36.7-19.5 0 0-27.1 0-29 37.3z"/>
						</g>
					</g>
				</g>
				<g id="&lt;Group&gt;">
					<g id="&lt;Group&gt;">
						<path id="&lt;Path&gt;" class="s21" d="m468.6 130.2c0 37.4-30.3 67.7-67.7 67.7-37.4 0-67.7-30.3-67.7-67.7 0-37.3 30.3-67.7 67.7-67.7 37.4 0 67.7 30.4 67.7 67.7z"/>
					</g>
					<g id="&lt;Clip Group&gt;">
						<g id="&lt;Group&gt;">
							<path id="&lt;Path&gt;" class="s7" d="m407.5 170.2h-13.3v-7.9h13.3z"/>
							<path id="&lt;Path&gt;" class="s10" d="m395 168.2c1.5-1.6 3.6-2.4 5.8-2.6 1.9-0.2 5.1 0.3 6.2-1.7q0.2-0.5 0.5-0.8v-0.8h-13.3v6.8q0.3-0.4 0.8-0.9z"/>
							<g id="&lt;Group&gt;">
								<path id="&lt;Path&gt;" class="s7" d="m434.2 136.9c0 3.3-2.7 5.9-6.1 5.9-3.4 0-6.2-2.6-6.2-5.9 0-3.3 2.8-5.9 6.2-5.9 3.4 0 6.1 2.6 6.1 5.9z"/>
								<g id="&lt;Group&gt;" style="mix-blend-mode: multiply">
									<path id="&lt;Path&gt;" class="s1" d="m428.9 133.6q0 0 0.4 0c0.2 0 0.6 0 1.1 0.2 0.4 0.1 0.9 0.5 1.3 1q0.1 0.2 0.2 0.4 0.1 0.2 0.1 0.5l0.1 0.5q0 0.2 0 0.5c-0.1 0.3-0.1 0.6-0.2 0.9q-0.2 0.4-0.4 0.8c-0.3 0.5-0.7 0.9-1.2 1.2-0.2 0.1-0.4 0.2-0.5 0.2q-0.3 0.1-0.5 0.1-0.4 0-0.4 0 0 0 0.3-0.2 0.2 0 0.4-0.2c0.2-0.1 0.3-0.2 0.5-0.3q0.2-0.2 0.4-0.5 0.2-0.3 0.4-0.6 0.1-0.3 0.2-0.7 0.2-0.4 0.2-0.8v-0.4-0.4q-0.1-0.2-0.1-0.3-0.1-0.2-0.1-0.4c-0.2-0.4-0.6-0.7-0.9-0.9-0.4-0.2-0.7-0.4-1-0.5q-0.3-0.1-0.3-0.1z"/>
								</g>
								<path id="&lt;Path&gt;" class="s8" d="m429.7 137.2c0 0.6-0.5 1.1-1 1.1-0.6 0-1-0.5-1-1.1 0-0.7 0.4-1.2 1-1.2 0.5 0 1 0.5 1 1.2z"/>
							</g>
							<g id="&lt;Group&gt;">
								<path id="&lt;Path&gt;" class="s7" d="m368.4 136.9c0 3.3 2.7 5.9 6.1 5.9 3.4 0 6.2-2.6 6.2-5.9 0-3.3-2.8-5.9-6.2-5.9-3.4 0-6.1 2.6-6.1 5.9z"/>
								<g id="&lt;Group&gt;" style="mix-blend-mode: multiply">
									<path id="&lt;Path&gt;" class="s1" d="m373.7 133.6q0 0-0.4 0c-0.3 0-0.6 0-1.1 0.2-0.4 0.1-0.9 0.5-1.3 1q-0.1 0.2-0.2 0.4-0.1 0.2-0.2 0.5v0.5q0 0.2 0 0.5c0 0.3 0.1 0.6 0.2 0.9q0.2 0.4 0.4 0.8c0.3 0.5 0.7 0.9 1.1 1.2 0.2 0.1 0.5 0.2 0.6 0.2q0.3 0.1 0.5 0.1 0.4 0 0.4 0 0 0-0.4-0.2-0.1 0-0.4-0.2c-0.1-0.1-0.3-0.2-0.4-0.3q-0.2-0.2-0.4-0.5-0.2-0.3-0.4-0.6-0.2-0.3-0.3-0.7-0.1-0.4-0.1-0.8v-0.4-0.4q0-0.2 0.1-0.3 0-0.2 0.1-0.4c0.2-0.4 0.6-0.7 0.9-0.9 0.4-0.2 0.7-0.4 0.9-0.5q0.4-0.1 0.4-0.1z"/>
								</g>
								<path id="&lt;Path&gt;" class="s8" d="m372.9 137.2c0 0.6 0.5 1.1 1 1.1 0.6 0 1-0.5 1-1.1 0-0.7-0.4-1.2-1-1.2-0.5 0-1 0.5-1 1.2z"/>
							</g>
							<g id="&lt;Group&gt;">
								<path id="&lt;Path&gt;" class="s7" d="m428.1 129.1c0 20.1-9.5 34.3-27.2 34.3-17.8 0-27.2-14.2-27.2-34.3 0-20.2 9.8-36.5 27.5-36.5 17.8 0 26.9 16.3 26.9 36.5z"/>
							</g>
							<path id="&lt;Path&gt;" class="s7" d="m394.5 169.9c0 0-16.9 2.2-23 7.5-6.2 5.3-8 10-10.2 20.5h39.3 0.5 39.4c-2.3-10.5-4.1-15.2-10.3-20.5-6-5.3-22.9-7.5-22.9-7.5z"/>
							<path id="&lt;Path&gt;" class="s22" d="m413.8 171.1c0 0 10.4 1 16.4 6.3 6.2 5.3 8 10 10.3 20.5h-39.4-0.5-39.3c2.2-10.5 4-15.2 10.2-20.5 6.1-5.3 16.5-6.4 16.5-6.4 0 0-2.3 14.5 13.4 14.4 0 0 13 0.5 12.4-14.3z"/>
							<path id="&lt;Path&gt;" class="s22" d="m401.1 197.9h-0.5"/>
							<g id="&lt;Group&gt;">
								<path id="&lt;Path&gt;" class="s23" d="m390.1 170.6q0.1 0.4 0 0.8c0 0.1-0.7 5.2 2.3 8.6 1.8 2.2 4.9 3.3 9 3.2q0.1 0 0.1 0c0.1 0 4.5 0.1 7.4-2.8 2-2.1 2.9-5.7 2.8-9.8l4.3 0.8c0.1 5.1-1.2 9.2-4.1 12-3.9 3.9-9.1 4.1-10.3 4.1-0.2 0-0.2 0-0.3 0-5.4 0-9.5-1.6-12.2-4.7-3.6-4.1-3.5-9.5-3.3-11.4z"/>
							</g>
							<path id="&lt;Path&gt;" class="s17" d="m372.9 118l1 16.4 2.4 0.7c-2.1-26.5 11.9-32.6 11.9-32.6l3.9-16.6c-12-0.3-17.2 9.5-17.2 9.5 0 0-4.4 4.4-2 22.6z"/>
							<g id="&lt;Group&gt;">
								<path id="&lt;Path&gt;" class="s24" d="m373.1 120.1c0 0-0.2-0.5-0.3-1.4-0.2-0.9-0.4-2.2-0.6-3.8-0.2-1.5-0.4-3.4-0.6-5.3-0.1-1-0.2-2-0.2-3q-0.1-0.8-0.1-1.6v-0.4c0-0.3 0-0.3 0-0.5v-0.8c0-1 0.2-2.2 0.5-3.3q0.2-0.8 0.6-1.5 0.2-0.7 0.6-1.4c0.5-1 1-1.8 1.6-2.5 0.5-0.8 1.1-1.5 1.7-2 1.1-1.2 2.2-2 3-2.5 0.7-0.5 1.2-0.8 1.2-0.8 0 0-0.4 0.4-1 1.1-0.6 0.7-1.4 1.7-2.3 3q-0.6 0.9-1.3 2-0.6 1.2-1.2 2.5c-0.3 0.8-0.6 1.7-0.8 2.7q-0.2 0.7-0.3 1.4c-0.1 0.4-0.2 0.9-0.1 1.4l-0.1 0.8c0 0.1 0 0.4 0 0.3v0.4q0 0.8 0.1 1.6c0 1 0 2 0 3 0 2 0 3.8-0.1 5.4 0 1.5-0.2 2.8-0.2 3.8-0.1 0.9-0.1 1.4-0.1 1.4z"/>
							</g>
							<path id="&lt;Path&gt;" class="s17" d="m428.6 121.2l-1 16.4-2.4 0.7c2.5-35.4-10.7-36-10.7-36l-5.1-13.2c12-0.3 17.2 9.5 17.2 9.5 0 0 4.4 4.5 2 22.6z"/>
							<path id="&lt;Path&gt;" class="s17" d="m388.4 102.4c0 0 15.2-6 31 2l1.2-12.1c0 0-3.1-23.7-34-16.2 0 0 3.8 1.8 5.5 3.6 0 0-11.9-0.8-17.2 10 0 0 8.1-2.7 14.5-0.9 0 0-9.7 6.4-1 13.6z"/>
							<g id="&lt;Group&gt;">
								<path id="&lt;Path&gt;" class="s24" d="m420.6 92.3c0 0-0.2-0.7-0.6-1.8-0.4-1.1-1.1-2.6-2.1-4.2-0.5-0.9-1.2-1.7-1.8-2.6-0.8-0.8-1.5-1.7-2.5-2.5-0.8-0.8-1.9-1.5-2.9-2.2-0.5-0.4-1.1-0.6-1.7-0.9-0.6-0.2-1.1-0.6-1.7-0.7-1.2-0.4-2.4-1-3.7-1.1-1.2-0.2-2.4-0.6-3.7-0.6-1.2 0-2.4-0.2-3.5-0.2q-1.7 0.1-3.2 0.1c-2 0-3.6 0.3-4.8 0.4-1.2 0.1-1.8 0.1-1.8 0.1 0 0 0.6-0.2 1.7-0.5q0.9-0.3 2.1-0.6c0.8-0.3 1.7-0.5 2.7-0.7q1.5-0.2 3.3-0.4c1.1-0.2 2.4-0.1 3.7-0.1 1.3 0 2.6 0.2 4 0.4 1.3 0.2 2.6 0.8 4 1.2 0.6 0.1 1.2 0.6 1.9 0.8 0.6 0.4 1.2 0.6 1.8 1.1 1.1 0.8 2.2 1.6 3.1 2.5 1 0.9 1.7 2 2.5 2.9 0.6 1.1 1.2 2 1.5 3 0.5 0.9 0.8 1.8 1 2.6q0.3 1.2 0.5 2.1c0.2 1.2 0.2 1.9 0.2 1.9z"/>
							</g>
						</g>
					</g>
				</g>
				<g id="&lt;Group&gt;">
					<g id="&lt;Group&gt;">
						<path id="&lt;Compound Path&gt;" fill-rule="evenodd" class="s9" d="m350.2 437q-4.2 0-7.5-1.7-3.3-1.7-5.6-4.7-2.3-3-3.6-7.2-1.2-4.2-1.2-9.2 0-2.7 0.4-5.5 0.4-2.8 1.2-5.5 0.7-2.8 1.9-5.5 1.2-2.6 2.8-5 1.5-2.4 3.5-4.4 1.9-2 4.2-3.5 2.4-1.4 5.1-2.2 2.6-0.8 5.7-0.8 4.2 0 7.5 1.5 3.2 1.4 5.5 4.1 2.2 2.7 3.4 6.4 1.2 3.7 1.2 8.2 0 3.7-0.7 7.7-0.7 4.1-2.1 8-1.4 3.8-3.5 7.3-2.1 3.6-4.9 6.2-2.7 2.7-6.1 4.2-3.3 1.6-7.2 1.6zm0.6-6.8q2.2 0 4.1-0.8 1.9-0.9 3.5-2.4 1.6-1.5 2.9-3.5 1.3-2 2.4-4.3 1-2.3 1.7-4.7 0.8-2.5 1.3-4.9 0.5-2.4 0.7-4.6 0.3-2.2 0.3-4.1 0-2.6-0.6-4.9-0.6-2.4-1.8-4.1-1.1-1.7-2.9-2.7-1.8-1-4.2-1-2.5 0-4.9 1.2-2.4 1.2-4.5 3.3-2.1 2.1-3.8 4.9-1.8 2.7-3 5.7-1.2 3.1-1.9 6.2-0.7 3.2-0.7 6.1 0 3.1 0.8 5.8 0.7 2.7 2.2 4.6 1.5 2 3.6 3.1 2.1 1.1 4.8 1.1z"/>
						<path id="&lt;Compound Path&gt;" class="s9" d="m378.3 425.9q0-1.8 0.2-4.2 0.2-2.4 0.6-4.9 0.3-2.5 0.7-4.7 0.4-2.3 0.8-4 0.3-1.2 1.2-2.1 0.9-0.9 2.3-0.9 1.5 0 2.1 1 0.6 0.9 0.6 2.4 0 0.4-0.1 1.1-0.1 0.7-0.2 1.6-0.1 0.8-0.3 1.7-0.1 0.9-0.2 1.7-0.1 0.7-0.2 1.3-0.1 0.5-0.1 0.7h0.5q0.2-0.3 0.6-0.9 0.3-0.7 0.8-1.6 0.5-0.9 1-1.9 0.5-0.9 1-1.8 0.5-0.9 0.9-1.6 0.4-0.7 0.6-1.1 0.8-1.5 2-2 1.1-0.6 2.5-0.6 1.4 0 2.2 1.2 0.8 1.2 0.8 3.2 0 0.3-0.1 1-0.2 0.8-0.3 1.7-0.2 1-0.5 2.2-0.2 1.2-0.4 2.5-0.2 1.2-0.3 2.4-0.1 1.2-0.1 2.3 0 1.7 0.4 2.8 0.4 1.1 1.3 1.1 0.4 0 1-0.3 0.5-0.2 1.1-0.6 0.7-0.4 1.3-0.9 0.7-0.6 1.3-1.1 1.5-1.3 3.1-2.9l0.4 6.1-1.3 1.1q-1.2 0.9-2.4 1.7-1.1 0.9-2.4 1.5-1.3 0.7-2.7 1.1-1.3 0.5-2.9 0.5-1.5 0-2.5-2.2-1-2.2-1-6.4 0-1.7 0.2-3.6 0.2-1.9 0.5-4.2h-0.4l-7.3 14.4q-0.5 1.1-1.2 1.6-0.7 0.4-1.6 0.4-1.1 0-1.8-0.5-0.7-0.5-1.1-1.3-0.4-0.8-0.5-1.9-0.1-1-0.1-2.1z"/>
						<path id="&lt;Compound Path&gt;" fill-rule="evenodd" class="s9" d="m410.1 431.7q-1.5 0-2.8-1.3-1.3-1.3-2.2-3.6-1-2.2-1.5-5.1-0.6-2.9-0.6-6.1 0-2.5 0.4-5.4 0.3-2.8 1-5.9 0.7-3.1 1.7-6.2 0.9-3.1 2.1-5.9 1.2-2.9 2.6-5.3 1.4-2.5 3-4.3 1.5-1.9 3.2-2.9 1.7-1.1 3.5-1.1 1.1 0 1.9 0.6 0.8 0.5 1.2 1.4 0.5 0.9 0.7 2 0.1 1.1 0.1 2.3 0 2.6-0.6 5.3-0.6 2.6-1.6 5.4-1 2.7-2.3 5.4-1.3 2.8-2.8 5.5-1.4 2.7-2.8 5.3-1.5 2.6-2.8 5.1-0.1 0.2-0.3 0.7-0.1 0.4-0.2 0.9-0.2 0.5-0.3 1.1-0.2 0.6-0.2 1.2v0.3q0 0.8 0.1 1.4 0.2 0.7 0.4 1.3 0.2 0.5 0.4 0.8 0.3 0.3 0.5 0.3 0.5 0 1.2-0.2 0.7-0.2 1.5-0.6 0.7-0.4 1.5-0.8 0.8-0.5 1.6-1 1.7-1.2 3.6-2.7l2.3 5.8q-2.5 1.8-4.9 3.2-1 0.5-2.2 1.1-1.1 0.6-2.2 1-1.1 0.5-2.2 0.7-1.1 0.3-2 0.3zm0-22.1q1.2-2.2 2.6-5 1.4-2.8 2.7-5.7 1.2-2.9 2.1-5.8 0.9-3 1.2-5.5 0-0.8-0.1-1.3 0-0.6-0.2-0.6-0.8 0-1.7 1-1 1.1-1.9 2.8-0.9 1.8-1.8 4.1-0.8 2.4-1.5 5-0.6 2.7-1 5.5-0.4 2.8-0.4 5.5z"/>
						<path id="&lt;Compound Path&gt;" class="s9" d="m436.6 425.8q-1 0.9-2.5 1.9-1.5 1.1-3.2 1.9-1.7 0.9-3.5 1.5-1.7 0.6-3.3 0.6-1.5 0-2.5-0.4-0.9-0.4-1.6-1.1-0.6-0.8-0.8-1.8-0.3-1-0.3-2.3 0-1.7 0.4-4 0.4-2.3 1-4.8 0.6-2.5 1.2-4.9 0.7-2.5 1.2-4.6 0.2-0.7 0.7-1.2 0.6-0.5 1.4-0.8 0.7-0.4 1.5-0.5 0.8-0.2 1.4-0.2 1.2 0 1.6 0.5 0.4 0.4 0.4 1.1 0 0.6-0.3 1.8-0.3 1.1-0.7 2.6-0.4 1.4-0.9 3.1-0.4 1.7-0.8 3.3-0.5 1.7-0.7 3.3-0.3 1.6-0.3 2.9 0 1.2 0.3 1.9 0.2 0.8 1.1 0.8 1 0 2.2-0.7 1.2-0.7 2.5-1.7 1.2-1 2.4-2 1.2-1.1 2.1-1.8zm-12.4-28.4q0-0.7 0.3-1.5 0.3-0.8 0.9-1.5 0.6-0.7 1.7-1.2 1-0.4 2.6-0.4 0.9 0 1.8 0.2 0.8 0.2 1.5 0.7 0.6 0.4 1 1.2 0.4 0.7 0.4 1.7 0 1-0.3 1.8-0.3 0.9-1 1.6-0.7 0.7-1.7 1.1-1 0.5-2.4 0.5-2.4 0-3.6-1.2-1.2-1.1-1.2-3z"/>
						<path id="&lt;Compound Path&gt;" class="s9" d="m434.6 425.9q0-1.8 0.3-4.2 0.2-2.4 0.5-4.9 0.3-2.5 0.8-4.7 0.4-2.3 0.8-4 0.3-1.2 1.1-2.1 0.9-0.9 2.4-0.9 1.5 0 2.1 1 0.5 0.9 0.5 2.4 0 0.4 0 1.1-0.1 0.7-0.2 1.6-0.2 0.8-0.3 1.7-0.1 0.9-0.3 1.7-0.1 0.7-0.2 1.3-0.1 0.5-0.1 0.7h0.6q0.2-0.3 0.5-0.9 0.4-0.7 0.9-1.6 0.4-0.9 1-1.9 0.5-0.9 1-1.8 0.4-0.9 0.8-1.6 0.4-0.7 0.6-1.1 0.9-1.5 2-2 1.2-0.6 2.5-0.6 1.4 0 2.2 1.2 0.8 1.2 0.8 3.2 0 0.3-0.1 1-0.1 0.8-0.3 1.7-0.2 1-0.4 2.2-0.3 1.2-0.4 2.5-0.2 1.2-0.4 2.4-0.1 1.2-0.1 2.3 0 1.7 0.4 2.8 0.5 1.1 1.4 1.1 0.4 0 0.9-0.3 0.6-0.2 1.2-0.6 0.6-0.4 1.3-0.9 0.6-0.6 1.2-1.1 1.5-1.3 3.1-2.9l0.5 6.1-1.4 1.1q-1.1 0.9-2.3 1.7-1.2 0.9-2.5 1.5-1.2 0.7-2.6 1.1-1.4 0.5-2.9 0.5-1.5 0-2.6-2.2-1-2.2-1-6.4 0-1.7 0.2-3.6 0.2-1.9 0.6-4.2h-0.5l-7.2 14.4q-0.6 1.1-1.3 1.6-0.6 0.4-1.6 0.4-1.1 0-1.8-0.5-0.7-0.5-1-1.3-0.4-0.8-0.5-1.9-0.2-1-0.2-2.1z"/>
						<path id="&lt;Compound Path&gt;" fill-rule="evenodd" class="s9" d="m469.6 431.7q-2.6 0-4.5-1-2-0.9-3.3-2.5-1.3-1.6-1.9-3.7-0.7-2.1-0.7-4.3 0-1.6 0.3-3.3 0.3-1.8 0.9-3.4 0.7-1.7 1.6-3.2 0.9-1.5 2.2-2.6 1.3-1.2 2.8-1.9 1.6-0.6 3.5-0.6 1.5 0 2.9 0.5 1.3 0.5 2.3 1.4 0.9 0.9 1.5 2.1 0.5 1.3 0.5 2.9 0.1 1.7-0.8 3.4-0.8 1.7-2.3 3.2-1.5 1.6-3.6 2.8-2 1.1-4.4 1.8 0.4 0.7 0.8 1.2 0.4 0.5 0.8 0.8 0.4 0.3 0.9 0.4 0.4 0.1 0.9 0.1 1.7 0 3.5-0.6 1.9-0.7 3.6-1.7 1.8-1 3.3-2.2 1.6-1.1 2.6-2.2l3.6 3.7q-2.4 2.5-5.2 4.5-1.2 0.8-2.5 1.6-1.4 0.8-2.9 1.4-1.5 0.6-3.1 1-1.6 0.4-3.3 0.4zm-3.7-13q1 0 2.2-0.5 1.2-0.5 2.2-1.3 1-0.8 1.7-1.8 0.7-0.9 0.7-1.8 0-1.2-0.5-2-0.4-0.8-1.1-0.8-1.2 0-2 0.4-0.9 0.4-1.5 1.1-0.5 0.7-0.9 1.6-0.3 0.9-0.5 1.9-0.2 0.9-0.2 1.7-0.1 0.9-0.1 1.5z"/>
					</g>
					<g id="&lt;Group&gt;">
						<path id="&lt;Compound Path&gt;" class="s25" d="m302 462q-1.5 6.5-5.1 9.7-3.6 3.3-9.4 3.3-7.5 0-11.6-5.5-4.1-5.5-4.1-15.7 0-9.9 4.1-15.5 4.1-5.6 11.3-5.6 5.7 0 9.2 3.1 3.5 3.1 4.8 9.1l-4.1 1.1q-1-4.6-3.4-7-2.5-2.5-6.1-2.5-5.4 0-8.3 4.6-2.9 4.5-2.9 12.9 0 8.2 2.9 12.6 3 4.5 8.4 4.5 4 0 6.7-2.6 2.6-2.6 3.4-7.4z"/>
						<path id="&lt;Compound Path&gt;" fill-rule="evenodd" class="s25" d="m305.3 459.5q0-7.3 3.2-11.3 3.3-4 9.1-4 5.9 0 9.1 4 3.3 4 3.3 11.3 0 7.2-3.3 11.3-3.2 4-9.1 4-5.8 0-9.1-4-3.2-4.1-3.2-11.3zm4.2 0q0 5.8 2.1 8.8 2.1 3.1 6 3.1 4 0 6-3.1 2.1-3 2.1-8.8 0-5.8-2-8.8-2.1-3-6.1-3-3.9 0-6 3-2.1 3-2.1 8.8z"/>
						<path id="&lt;Compound Path&gt;" class="s25" d="m336.4 474.3v-29.6h3.8v4.5q2.4-2.7 4.7-3.9 2.3-1.1 4.9-1.1 2.8 0 4.6 1.2 1.8 1.3 2.6 3.8 2.4-2.7 4.7-3.8 2.4-1.2 5.1-1.2 3.6 0 5.6 2.1 1.9 2.2 1.9 6.1v21.9h-4v-20.6q0-3.2-1.1-4.6-1.1-1.4-3.6-1.4-2.2 0-4.2 1.1-2.1 1.1-4.1 3.4v22.1h-3.9v-20.5q0-3.2-1.1-4.6-1.1-1.5-3.6-1.5-2.2 0-4.2 1.1-1.9 1.1-4.1 3.4v22.1z"/>
						<path id="&lt;Compound Path&gt;" class="s25" d="m383.3 474.3v-29.6h3.8v4.5q2.5-2.7 4.7-3.9 2.3-1.1 5-1.1 2.7 0 4.5 1.2 1.8 1.3 2.6 3.8 2.5-2.7 4.8-3.8 2.3-1.2 5-1.2 3.6 0 5.6 2.1 2 2.2 2 6.1v21.9h-4.1v-20.6q0-3.2-1.1-4.6-1.1-1.4-3.5-1.4-2.3 0-4.3 1.1-2 1.1-4 3.4v22.1h-4v-20.5q0-3.2-1.1-4.6-1.1-1.5-3.6-1.5-2.2 0-4.1 1.1-2 1.1-4.1 3.4v22.1z"/>
						<path id="&lt;Compound Path&gt;" class="s25" d="m451.3 444.7v29.6h-3.7v-4.5q-2.4 2.6-4.8 3.8-2.4 1.2-5.1 1.2-3.6 0-5.6-2.2-2-2.1-2-6v-21.9h4v20.4q0 3.3 1.1 4.7 1.2 1.4 3.7 1.4 2.2 0 4.2-1.1 2.1-1.1 4.2-3.3v-22.1z"/>
						<path id="&lt;Compound Path&gt;" class="s25" d="m460.7 474.3v-29.6h3.8v4.5q2.4-2.6 4.8-3.8 2.4-1.2 5-1.2 3.7 0 5.7 2.1 2 2.2 2 6.1v21.9h-4v-20.4q0-3.3-1.2-4.7-1.1-1.5-3.6-1.5-2.2 0-4.3 1.2-2.1 1.1-4.2 3.3v22.1z"/>
						<path id="&lt;Compound Path&gt;" class="s25" d="m491 438.4v-5h4.8v5zm0.4 35.9v-29.6h4.2v29.6z"/>
						<path id="&lt;Compound Path&gt;" class="s25" d="m516.8 470.7v3.5q-0.9 0.3-2 0.4-1.1 0.2-2.4 0.2-3.3 0-5-1.4-1.7-1.5-1.7-4.4v-20.8h-4.4v-3.5h4.4v-9.6h4.3v9.6h6.7v3.5h-6.7v19q0 2.5 0.8 3.2 0.8 0.8 3.1 0.8 1.1 0 2.8-0.4z"/>
						<path id="&lt;Compound Path&gt;" class="s25" d="m529 473.8l-10.7-29.1h4.2l8.6 23.6 7.7-23.6h4.2l-10.1 30.1q-2.1 6.1-4.4 8.2-2.4 2.1-6.4 2.1-0.7 0-1.3-0.1-0.7-0.1-1.3-0.2v-3.8q0.7 0.1 1.3 0.2 0.5 0.1 1 0.1 3.1 0 4.6-1.7 1.6-1.7 2.6-5.8z"/>
					</g>
				</g>
				<g id="&lt;Group&gt;">
					<path id="&lt;Path&gt;" class="s21" d="m491.6 74.1c0 6.3-5.1 11.5-11.5 11.5-6.4 0-11.5-5.2-11.5-11.5 0-6.4 5.1-11.6 11.5-11.6 6.4 0 11.5 5.2 11.5 11.6z"/>
					<path id="&lt;Path&gt;" class="s16" d="m509.7 100.3c0 4.7-3.8 8.5-8.6 8.5-4.7 0-8.5-3.8-8.5-8.5 0-4.8 3.8-8.6 8.5-8.6 4.8 0 8.6 3.8 8.6 8.6z"/>
					<path id="&lt;Path&gt;" class="s3" d="m516.6 74.1c0 4.2-3.5 7.7-7.7 7.7-4.3 0-7.8-3.5-7.8-7.7 0-4.3 3.5-7.7 7.8-7.7 4.2 0 7.7 3.4 7.7 7.7z"/>
				</g>
				<g id="&lt;Group&gt;">
					<path id="&lt;Path&gt;" class="s9" d="m177.9 151.3c3.6 5.3 2.3 12.4-3 16-5.2 3.6-12.4 2.3-16-3-3.6-5.2-2.3-12.4 3-16 5.2-3.6 12.4-2.2 16 3z"/>
					<path id="&lt;Path&gt;" class="s15" d="m207.6 162.7c2.7 3.9 1.7 9.2-2.2 11.9-3.9 2.7-9.2 1.7-11.9-2.2-2.7-3.9-1.7-9.3 2.2-11.9 3.9-2.7 9.2-1.7 11.9 2.2z"/>
					<path id="&lt;Path&gt;" class="s3" d="m198.5 137.2c2.4 3.5 1.5 8.3-2 10.7-3.5 2.4-8.3 1.5-10.8-2-2.4-3.5-1.5-8.3 2-10.7 3.6-2.4 8.4-1.5 10.8 2z"/>
				</g>
				<g id="&lt;Group&gt;">
					<path id="&lt;Path&gt;" class="s9" d="m72.5 391.8c6.3 1.2 10.4 7.2 9.3 13.4-1.2 6.3-7.2 10.4-13.5 9.3-6.2-1.2-10.4-7.2-9.2-13.5 1.2-6.2 7.2-10.4 13.4-9.2z"/>
					<path id="&lt;Path&gt;" class="s26" d="m101.6 378.8c4.6 0.9 7.7 5.4 6.8 10-0.8 4.7-5.3 7.7-9.9 6.8-4.7-0.8-7.7-5.3-6.9-9.9 0.9-4.7 5.4-7.7 10-6.9z"/>
					<path id="&lt;Path&gt;" class="s3" d="m77.1 367.3c4.2 0.7 7 4.8 6.2 9-0.8 4.2-4.8 6.9-9 6.1-4.2-0.7-7-4.8-6.2-9 0.8-4.1 4.8-6.9 9-6.1z"/>
				</g>
				<g id="&lt;Group&gt;">
					<path id="&lt;Path&gt;" class="s9" d="m702.7 304.8c5.4 3.3 7.1 10.4 3.8 15.8-3.3 5.4-10.4 7.1-15.9 3.8-5.4-3.3-7.1-10.4-3.8-15.8 3.4-5.5 10.5-7.2 15.9-3.8z"/>
					<path id="&lt;Path&gt;" class="s26" d="m734.5 303c4 2.5 5.2 7.8 2.8 11.8-2.5 4-7.8 5.3-11.8 2.8-4-2.4-5.3-7.7-2.8-11.7 2.5-4.1 7.7-5.3 11.8-2.9z"/>
					<path id="&lt;Path&gt;" class="s3" d="m715.7 283.5c3.6 2.2 4.8 7 2.6 10.6-2.3 3.6-7 4.8-10.7 2.5-3.6-2.2-4.7-6.9-2.5-10.6 2.2-3.6 7-4.7 10.6-2.5z"/>
				</g>
				<g id="&lt;Group&gt;">
					<path id="&lt;Path&gt;" class="s9" d="m128.2 558.1c5.9-2.3 12.6 0.6 15 6.5 2.3 5.9-0.6 12.6-6.5 15-5.9 2.3-12.6-0.6-15-6.5-2.3-5.9 0.6-12.6 6.5-15z"/>
					<path id="&lt;Path&gt;" class="s3" d="m145.9 531.7c4.4-1.7 9.4 0.4 11.1 4.8 1.7 4.4-0.4 9.4-4.8 11.1-4.4 1.8-9.4-0.4-11.1-4.8-1.7-4.4 0.4-9.3 4.8-11.1z"/>
					<path id="&lt;Path&gt;" class="s27" d="m119 534.9c4-1.5 8.5 0.4 10 4.4 1.6 4-0.3 8.4-4.3 10-4 1.6-8.4-0.4-10-4.3-1.6-4 0.4-8.5 4.3-10.1z"/>
				</g>
			</g>
		</g>
	</g>
</svg>