<svg version="1.2" xmlns="http://www.w3.org/2000/svg" viewBox="0 0 3710 3710" width="100" height="100">
	<title>12146094_Wavy_Lst-07_Single-09-ai</title>
	<defs>
		<linearGradient id="g1" x1="2095.2" y1="1067.1" x2="2653.6" y2="4636.9" gradientUnits="userSpaceOnUse">
			<stop offset=".004" stop-color="#e38ddd"/>
			<stop offset="1" stop-color="#9571f6"/>
		</linearGradient>
		<linearGradient id="g2" x1="4229.3" y1="1663" x2="2343" y2="3997.7" gradientUnits="userSpaceOnUse">
			<stop offset="0" stop-color="#ff9085"/>
			<stop offset="1" stop-color="#fb6fbb"/>
		</linearGradient>
		<linearGradient id="g3" x1="3772.2" y1="2477.3" x2="3245.9" y2="2974.4" gradientUnits="userSpaceOnUse">
			<stop offset="0" stop-color="#ff9085"/>
			<stop offset="1" stop-color="#fb6fbb"/>
		</linearGradient>
		<linearGradient id="g4" x1="4248.3" y1="2012.6" x2="2923.9" y2="3651.8" gradientUnits="userSpaceOnUse">
			<stop offset="0" stop-color="#ffc444"/>
			<stop offset=".996" stop-color="#f36f56"/>
		</linearGradient>
		<linearGradient id="g5" x1="1560.7" y1="1419.6" x2="2413.4" y2="1419.6" gradientUnits="userSpaceOnUse">
			<stop offset=".494" stop-color="#ebeff2"/>
			<stop offset="1" stop-color="#ffffff"/>
		</linearGradient>
		<linearGradient id="g6" x1="572.9" y1="3218.4" x2="105.1" y2="1840.7" gradientUnits="userSpaceOnUse">
			<stop offset="0" stop-color="#311944"/>
			<stop offset="1" stop-color="#a03976"/>
		</linearGradient>
		<linearGradient id="g7" x1="1363.8" y1="2397.6" x2="1206.8" y2="1407.2" gradientUnits="userSpaceOnUse">
			<stop offset="0" stop-color="#311944"/>
			<stop offset="1" stop-color="#a03976"/>
		</linearGradient>
		<linearGradient id="g8" x1="-697.2" y1="2758.8" x2="-857.7" y2="1746.8" gradientUnits="userSpaceOnUse">
			<stop offset="0" stop-color="#311944"/>
			<stop offset="1" stop-color="#a03976"/>
		</linearGradient>
		<linearGradient id="g9" x1="1628.7" y1="1515.4" x2="1649.7" y2="956.2" gradientUnits="userSpaceOnUse">
			<stop offset="0" stop-color="#ffc444"/>
			<stop offset=".996" stop-color="#f36f56"/>
		</linearGradient>
		<linearGradient id="g10" x1="1700.1" y1="1289.7" x2="1382.5" y2="799.6" gradientUnits="userSpaceOnUse">
			<stop offset="0" stop-color="#ffc444"/>
			<stop offset=".996" stop-color="#f36f56"/>
		</linearGradient>
		<linearGradient id="g11" x1="2453.1" y1="1245" x2="1734.7" y2="1865.9" gradientUnits="userSpaceOnUse">
			<stop offset="0" stop-color="#444b8c"/>
			<stop offset=".996" stop-color="#26264f"/>
		</linearGradient>
		<linearGradient id="g12" x1="1863.5" y1="1116.9" x2="1402.5" y2="1653.4" gradientUnits="userSpaceOnUse">
			<stop offset="0" stop-color="#ffc444"/>
			<stop offset=".996" stop-color="#f36f56"/>
		</linearGradient>
		<linearGradient id="g13" x1="3428" y1="3599.5" x2="2633.5" y2="3929.2" gradientUnits="userSpaceOnUse">
			<stop offset="0" stop-color="#311944"/>
			<stop offset="1" stop-color="#a03976"/>
		</linearGradient>
		<linearGradient id="g14" x1="1902" y1="1679.7" x2="1034.8" y2="2898.5" gradientUnits="userSpaceOnUse">
			<stop offset="0" stop-color="#444b8c"/>
			<stop offset=".996" stop-color="#26264f"/>
		</linearGradient>
		<linearGradient id="g15" x1="-474.6" y1="3387.7" x2="-913.7" y2="2094.4" gradientUnits="userSpaceOnUse">
			<stop offset="0" stop-color="#311944"/>
			<stop offset="1" stop-color="#a03976"/>
		</linearGradient>
		<linearGradient id="g16" x1="-195.6" y1="-484.1" x2="343.9" y2="-859.2" gradientUnits="userSpaceOnUse">
			<stop offset="0" stop-color="#311944"/>
			<stop offset="1" stop-color="#a03976"/>
		</linearGradient>
		<linearGradient id="g17" x1="1231.2" y1="3257.6" x2="810.2" y2="2108.8" gradientUnits="userSpaceOnUse">
			<stop offset="0" stop-color="#311944"/>
			<stop offset="1" stop-color="#a03976"/>
		</linearGradient>
		<linearGradient id="g18" x1="1057.7" y1="1489.7" x2="1783.2" y2="1097.4" gradientUnits="userSpaceOnUse">
			<stop offset="0" stop-color="#444b8c"/>
			<stop offset=".996" stop-color="#26264f"/>
		</linearGradient>
		<linearGradient id="g19" x1="1190.6" y1="1612.2" x2="1818.1" y2="1272.9" gradientUnits="userSpaceOnUse">
			<stop offset="0" stop-color="#444b8c"/>
			<stop offset=".996" stop-color="#26264f"/>
		</linearGradient>
		<linearGradient id="g20" x1="2077.5" y1="1545.4" x2="1865.6" y2="1857.3" gradientUnits="userSpaceOnUse">
			<stop offset="0" stop-color="#ffc444"/>
			<stop offset=".996" stop-color="#f36f56"/>
		</linearGradient>
		<linearGradient id="g21" x1="2099.1" y1="1732" x2="2263.2" y2="2101.2" gradientUnits="userSpaceOnUse">
			<stop offset="0" stop-color="#ffc444"/>
			<stop offset=".996" stop-color="#f36f56"/>
		</linearGradient>
		<linearGradient id="g22" x1="2120" y1="1939.2" x2="2751.8" y2="1939.2" gradientUnits="userSpaceOnUse">
			<stop offset="0" stop-color="#311944"/>
			<stop offset="1" stop-color="#a03976"/>
		</linearGradient>
	</defs>
	<style>
		.s0 { fill: #f4f7fa } 
		.s1 { fill: url(#g1) } 
		.s2 { fill: #fcfdfe } 
		.s3 { fill: url(#g2) } 
		.s4 { fill: url(#g3) } 
		.s5 { fill: url(#g4) } 
		.s6 { fill: url(#g5) } 
		.s7 { fill: url(#g6) } 
		.s8 { fill: url(#g7) } 
		.s9 { fill: url(#g8) } 
		.s10 { fill: url(#g9) } 
		.s11 { fill: url(#g10) } 
		.s12 { fill: url(#g11) } 
		.s13 { fill: url(#g12) } 
		.s14 { fill: url(#g13) } 
		.s15 { fill: url(#g14) } 
		.s16 { fill: #ffffff } 
		.s17 { fill: url(#g15) } 
		.s18 { fill: url(#g16) } 
		.s19 { fill: url(#g17) } 
		.s20 { fill: url(#g18) } 
		.s21 { opacity: .3;mix-blend-mode: multiply;fill: url(#g19) } 
		.s22 { fill: url(#g20) } 
		.s23 { fill: url(#g21) } 
		.s24 { fill: url(#g22) } 
	</style>
	<g id="_Artboards_">
	</g>
	<g id="Background">
		<g id="&lt;Group&gt;">
			<g id="&lt;Group&gt;">
			</g>
		</g>
	</g>
	<g id="Illustration">
		<g id="&lt;Group&gt;">
			<path id="&lt;Path&gt;" class="s0" d="m2545.4 618.7c91.9 131.4-15.8 344.6 120.4 443.4 132.7 96.3 295.6-61.5 420.6 21.4 185.5 122.9 151.6 685.2-119.5 1034.6-81.5 105.1-149.7 146-179.8 264.8-64.8 255.2 162.9 407 119.5 533.2-97.5 284.2-1598.1 522.6-2200.2-331.4-281.2-398.9-323.3-974.8-72-1412.3 454-790.4 1705-848.7 1911-553.7z"/>
			<g id="&lt;Group&gt;">
				<g id="&lt;Group&gt;">
					<path id="&lt;Path&gt;" class="s1" d="m1992.4 2922.3c20.5-8.9 57.3-46.5 62.8-60.2 36.9-91.3 117.1-257.9 82.2-356-5.9-16.8-86.7-10.5-102-23-52.4-8.5-71.2-8.2-117.1-40.8-135.6-96.2 22.8-396.7-264.7-402.8-210.6-4.4-354.3 109.4-420.5-196.3-66.2-305.7-462.3-782.7-718-481.9-146.8 172.7 111.5 374 72.6 589.1-37 204.3 81.4 329.4 302.3 381.5 220.8 52.2 143.4 164 137.5 349.7-7.1 223.1 317 168.2 464.5 130.1 118.7-30.7 441.9-28.7 500.4 110.6z"/>
					<g id="&lt;Clip Group&gt;">
						<g id="&lt;Group&gt;" style="mix-blend-mode: soft-light">
							<g id="&lt;Group&gt;">
								<path id="&lt;Path&gt;" class="s2" d="m2096.1 2693.5l0.9-4.7c-721.9-124.7-1291.6-664.1-1523.9-1443l-4.5 1.4c110.1 369.1 303.7 696.7 559.9 947.4 269.4 263.6 604 436.1 967.6 498.9z"/>
								<path id="&lt;Path&gt;" class="s2" d="m1013.9 2774c165.4-113 470.7-203.4 680.6-201.5l0.1-4.7c-210.7-2-517.3 88.8-683.4 202.3z"/>
								<path id="&lt;Path&gt;" class="s2" d="m1954.7 2667.4l2.1-4.3c-98.2-47.6-168.4-143.1-208.9-283.6-29.7-103.1-43-227.6-39.5-370l-4.7-0.1c-3.6 142.9 9.8 267.9 39.6 371.4 40.9 141.9 112 238.3 211.4 286.6z"/>
								<path id="&lt;Path&gt;" class="s2" d="m1093.5 2157.6l2.3-4.2c-180.4-99.3-395.8-77.3-544.7-41.4l1.1 4.6c148.1-35.7 362.3-57.6 541.3 41z"/>
								<path id="&lt;Path&gt;" class="s2" d="m804.7 1785.1l4.4-1.6c-80.6-217.6-9.5-450.5 40-569.9l-4.4-1.9c-49.8 120.2-121.2 354.4-40 573.4z"/>
							</g>
						</g>
					</g>
				</g>
			</g>
			<g id="&lt;Group&gt;">
				<g id="&lt;Group&gt;">
					<path id="&lt;Path&gt;" class="s3" d="m1919.5 2652c23.4 0.8 75-18.2 86.4-28.7 75.9-69.9 226.5-191.5 237.5-300 1.9-18.5-77.3-48.8-86.1-67.5-45.8-31.6-63.7-39.7-92.5-91.2-85.1-151.9 199.6-365.1-69.7-499.9-197.2-98.7-384.3-55.5-309.7-374.5 74.6-318.9-86-948.1-463-778.2-216.4 97.4-62.4 403.9-195.7 589.9-126.7 176.7-70.9 348.2 114.7 496.7 185.5 148.4 62.1 219.5-26.9 392.5-106.8 208 224.5 301.5 381.1 331.7 126.1 24.2 430.9 171.2 423.9 329.2z"/>
					<g id="&lt;Clip Group&gt;">
						<g id="&lt;Group&gt;" style="mix-blend-mode: soft-light">
							<g id="&lt;Group&gt;">
								<path id="&lt;Path&gt;" class="s2" d="m2120.3 2482.1l2.9-4.1c-627-442-923.8-1208.1-794-2049.3l-4.9-0.7c-61.6 398.7-25.4 795.5 104.4 1147.7 136.6 370.3 375.7 683.7 691.6 906.4z"/>
								<path id="&lt;Path&gt;" class="s2" d="m1060.2 2072.5c207.3-32.7 536.7 18.8 734.4 114.9l2.2-4.5c-198.5-96.4-529.3-148.2-737.4-115.4z"/>
								<path id="&lt;Path&gt;" class="s2" d="m1998.2 2393.9l3.9-3.1c-71.5-89.1-95.2-211-70.4-362.1 18.2-110.9 61.5-234.6 128.8-367.8l-4.4-2.2c-67.5 133.6-111 257.8-129.3 369.2-25 152.6-1 275.8 71.4 366z"/>
								<path id="&lt;Path&gt;" class="s2" d="m1412.3 1525l4-2.9c-126.1-174.9-339.8-250.8-496.8-283.7l-1 4.8c156.2 32.8 368.6 108.2 493.8 281.8z"/>
								<path id="&lt;Path&gt;" class="s2" d="m1306.2 1042.9l4.9 0.5c21.4-242 193.2-430.5 293.7-521.3l-3.4-3.7c-101 91.3-273.7 280.9-295.2 524.5z"/>
							</g>
						</g>
					</g>
				</g>
			</g>
			<g id="&lt;Group&gt;">
				<g id="&lt;Group&gt;">
					<path id="&lt;Path&gt;" class="s4" d="m2139.6 3026.1c-14.4-6.3-40.1-32.5-43.9-42.1-25.8-63.9-81.9-180.4-57.5-249 4.1-11.8 60.7-7.4 71.3-16.2 36.7-5.9 49.8-5.7 82-28.5 94.8-67.3-16-277.5 185.1-281.7 147.3-3.1 247.9 76.5 294.2-137.3 46.3-213.9 323.3-547.6 502.3-337.2 102.6 120.8-78 261.6-50.8 412.1 25.8 143-57 230.5-211.5 266.9-154.5 36.5-100.3 114.7-96.2 244.6 5 156.1-221.8 117.7-324.9 91-83.1-21.4-309.1-20-350.1 77.4z"/>
					<g id="&lt;Clip Group&gt;">
						<g id="&lt;Group&gt;" style="mix-blend-mode: soft-light">
							<g id="&lt;Group&gt;">
								<path id="&lt;Path&gt;" class="s2" d="m2067 2866l-0.5-3.2c504.9-87.3 903.4-464.6 1065.9-1009.5l3.2 1c-77 258.2-212.4 487.4-391.7 662.8-188.4 184.3-422.5 305-676.9 348.9z"/>
								<path id="&lt;Path&gt;" class="s2" d="m2824.1 2922.4c-115.7-79.1-329.3-142.3-476.1-141v-3.3c147.3-1.4 361.8 62.1 478 141.5z"/>
								<path id="&lt;Path&gt;" class="s2" d="m2166 2847.8l-1.5-3c68.7-33.3 117.9-100.1 146.2-198.4 20.7-72.1 30-159.2 27.6-258.9h3.3c2.5 100-6.9 187.4-27.7 259.8-28.6 99.3-78.4 166.7-147.9 200.5z"/>
								<path id="&lt;Path&gt;" class="s2" d="m2768.4 2491.2l-1.6-2.9c126.2-69.5 276.9-54.2 381.1-29l-0.8 3.2c-103.6-25-253.4-40.3-378.7 28.7z"/>
								<path id="&lt;Path&gt;" class="s2" d="m2970.5 2230.6l-3.1-1.1c56.3-152.2 6.6-315.1-28-398.7l3.1-1.3c34.8 84 84.7 247.9 28 401.1z"/>
							</g>
						</g>
					</g>
				</g>
			</g>
			<g id="&lt;Group&gt;">
				<g id="&lt;Group&gt;">
					<path id="&lt;Path&gt;" class="s5" d="m2239.2 2776.9c-16.3-1.2-50.8-18.2-57.9-26.4-47.6-54.2-143.4-150-143-226.3 0.1-13 57.5-28.2 64.9-40.6 34.3-18.5 47.3-22.8 71.2-56.5 70.5-99.3-111.7-268.8 85.6-342.5 144.5-54 271.4-10.1 243.3-237.5-28.2-227.4 130.2-653.1 379.9-506.9 143.2 83.9 13.3 285.6 92.2 424.9 75 132.3 23.4 247.5-116.7 336.9-140.1 89.5-59.5 148.1-10.5 275.1 58.9 152.5-178.5 193-289.7 202.3-89.5 7.5-312.5 87.1-319.3 197.5z"/>
					<g id="&lt;Clip Group&gt;">
						<g id="&lt;Group&gt;" style="mix-blend-mode: soft-light">
							<g id="&lt;Group&gt;">
								<path id="&lt;Path&gt;" class="s2" d="m2112.2 2643.8l-1.7-3c468.9-260.9 732.3-771.7 704.6-1366.4l3.5-0.2c13.1 281.9-41.5 555.3-158 790.6-122.5 247.4-312.2 447.6-548.4 579z"/>
								<path id="&lt;Path&gt;" class="s2" d="m2880 2437.7c-141.7-38.2-374.7-26.8-519.4 25.3l-1.2-3.2c145.2-52.4 379.2-63.8 521.5-25.5z"/>
								<path id="&lt;Path&gt;" class="s2" d="m2203.6 2591.6l-2.4-2.5c56.3-56.7 81.8-139.7 75.8-246.7-4.4-78.4-25.3-167.7-62.2-265.3l3.3-1.3c37 98 58 187.6 62.4 266.4 6.1 108.1-19.8 191.9-76.9 249.4z"/>
								<path id="&lt;Path&gt;" class="s2" d="m2675.8 2030.7l-2.6-2.3c100.7-112.3 255-149.2 366.7-160.4l0.3 3.4c-111.1 11.2-264.4 47.9-364.4 159.3z"/>
								<path id="&lt;Path&gt;" class="s2" d="m2785.4 1703.3l-3.4-0.1c3.1-169.9-102.4-313.7-165.5-384.4l2.6-2.3c63.4 71 169.5 215.7 166.3 386.8z"/>
							</g>
						</g>
					</g>
				</g>
			</g>
			<g id="&lt;Group&gt;">
				<g id="&lt;Group&gt;">
					<path id="&lt;Path&gt;" class="s6" d="m2201.5 1449.9l-182.3-30.3-109 65.3-183.8-60.3c0 0-162.1 21.5-165.7 20.3l173.5 1616.2c46.7 25.6 106.5 44.9 182 47.9 69.2 2.7 131.7-1.7 186.1-9.5 51.9-119.9 204.4-489.4 289.1-872.7 103.1-466.7-189.9-776.9-189.9-776.9z"/>
				</g>
				<path id="&lt;Path&gt;" class="s7" d="m1144.2 1580.4c0 0-74.1 36.5-112.2 358.8-38 322.2 70.1 472.8 116.3 577.9 46.2 105.2 263.6-133.4 357.1-224.6 93.4-91.2-211.1-718.2-361.2-712.1z"/>
				<path id="&lt;Path&gt;" class="s8" d="m2359.9 1555.2c0.2-4.9 47.7-83.7 47.7-83.7 0 0 128.7 58.3 243.1 339.7 114.3 281.5 127.7 554.8 84.2 641.2-43.4 86.4-330.6-84.9-387.5-204.8-56.9-119.9 12.5-692.4 12.5-692.4z"/>
				<g id="&lt;Group&gt;">
					<path id="&lt;Path&gt;" class="s9" d="m2543.3 2025.2c-39.5-174.5-135.8-553.7-135.8-553.7l-337.5-44.1c0 0 281.8 434.5 249.9 799.4-27.2 310.9-198.7 752.7-248.8 876.7 40.6-4.6 77.3-11.2 109.5-18.5 59.6-149.3 399.3-898.6 362.7-1059.8z"/>
				</g>
				<path id="&lt;Path&gt;" class="s10" d="m1747.8 1135.1c0 0-24.4 252.5-31.9 294.8l204.1 78.8 103.6-68.8-59.2-271.4z"/>
				<g id="&lt;Group&gt;">
					<path id="&lt;Path&gt;" class="s11" d="m1960.2 937.3c3.3 2.5 25.5 164.7 23.6 191.8-1.9 27.1 26.7 88.1 26.7 88.1 0 0-90.8 52.6-139.1 43.4-48.2-9.2-122.6-111.9-135.9-151.2-13.4-39.3 70.3-130.3 70.3-130.3z"/>
					<path id="&lt;Path&gt;" class="s12" d="m1748.6 1203.5c0 0 38.9 131.7 49.5 136.2 85.8 36.2 199.6 59.8 234.2-5.6 21.5-40.4 3.5-100.1-35.4-149.7-6.4 6.4-54.1 53.5-117.7 45.3-65.2-8.4-120.6-71.2-124.3-152.1 0 0-8.3-20.7 13.3-28.7 21.6-8 128.3-64 153.1-62.3 24.7 1.7 56 12.2 70.4 12 14.4-0.3 51.3-23.7 47.5-71.3-3.8-47.6-43.4-51.8-43.4-51.8 6.5-2.2 42.4-15.2 58.8-52.7 17.3-39.5 6.4-91.7-20-104.4-21.1-10.1-42.4 9.5-144.8 79.4-87.4 59.7-131.2 89.6-152.4 102.4-79.9 48.5-112.9 58.7-128.9 99.8-14.9 38.1-3.9 74.4-0.6 85.4 27.3 90.1 133.5 116.4 140.7 118.1z"/>
					<path id="&lt;Path&gt;" class="s13" d="m1745.7 1168.2c0 0-13.1-33.7-32.1-24.6-19.1 9.2 19.7 60.2 47.1 68.5z"/>
				</g>
				<path id="&lt;Path&gt;" class="s14" d="m2344.1 1850.9c0 0 28.3-137.5 28.7-142.5 0.4-3.9-159.6-196.8-230.9-278.2l-93.9-19.6c0 0 293.9 451.3 262 816.2-19.6 224.3-104.4 516.6-174.5 708.6 295.6-602.3 332.2-969.2 332.2-969.2z"/>
				<path id="&lt;Path&gt;" class="s15" d="m1893.9 1561.1l-45.4-96.4c0 0 49.8-25 124.4-4.3l-23.3 92.4c-1.8 13.2-12.4 23.5-25.7 25-12.6 1.5-24.6-5.2-30-16.7z"/>
				<path id="&lt;Path&gt;" class="s16" d="m1938.4 1438.2l91.6 129.5 40-140.3-46.4-52.1z"/>
				<path id="&lt;Path&gt;" class="s16" d="m1712.5 1383.8l-29.1 46.4 135.8 145 57.1-130.3z"/>
				<g id="&lt;Group&gt;">
					<path id="&lt;Path&gt;" class="s17" d="m1683.4 1430.2c-271.2 14.1-539.2 150.2-539.2 150.2 227.6 215.1 420 1050.7 492.8 1402.5 31.7 36.4 80.8 77.7 152.9 102.9 83.6-675.9-106.5-1655.6-106.5-1655.6z"/>
				</g>
				<path id="&lt;Path&gt;" class="s18" d="m1803.2 2935.4c0 0 115.1-1170.2-119.8-1505.2l-95.2 270.3 120.3 150.4-86.8 145.4c0 0 202.2 366.8 181.5 939.1z"/>
				<path id="&lt;Path&gt;" class="s19" d="m1144.5 2497.5c-2.3-5.3-120.3-268.4-22.9-385.9 97.4-117.5 536-299.6 704.9-476.2 0 0 44.5 7.8 54.9 35.1 0 0-297.9 748.3-671.8 869 0 0-41.3 13.6-65.1-42z"/>
				<path id="&lt;Path&gt;" class="s20" d="m1906.4 1549.3c55.2 151.8 36 243.4 6.8 299.5-53.2 102.3-146.6 100.6-382.1 265.1-206.1 144-219.3 204.5-215 238.7 6 48.4 48.2 53.8 85.1 151.9 25.6 68.3 23.1 113.4 49.3 120.6 21.7 5.9 41.7-19.9 82.6-54 32.8-27.5 80.1-61.1 145.6-91 2-23.9 7.3-61.1 23.7-102.9 67.7-173 223.1-164.9 323.4-323.5 60.5-95.7 92.3-238.6 38.8-360.3-33.9-77-92.2-123.4-128.3-147.1q-14.9 1.5-29.9 3z"/>
				<path id="&lt;Path&gt;" class="s21" d="m2064.6 1693.4c-3-6.7-6.2-13.1-9.5-19.4 14.9 120.1 7.4 254.7-74.5 348.6-109.2 125.2-264.8 79.7-394.3 180.5-76.3 59.3-146.6 171.7-155.9 399.2 4.7 12.3 10.5 20.1 20.1 22.8 21.7 5.9 41.7-19.9 82.6-54 32.8-27.5 80.1-61.1 145.6-91 2-23.9 7.3-61.1 23.7-102.9 67.7-173 223.1-164.9 323.4-323.5 60.5-95.7 92.3-238.6 38.8-360.3z"/>
				<path id="&lt;Path&gt;" class="s22" d="m1836.2 1640.4c0 0 19.9-96.5 61.7-120.6 41.8-24.1 133.7-28.6 133.7-28.6 0 0-33.8 66.5-63.1 73.3-29.2 6.8-88.9 39.7-91.7 70.9-2.9 31.2-40.6 20-40.6 5z"/>
				<path id="&lt;Path&gt;" class="s23" d="m2162 1961.2c0 0-40.6-94-92-121.9-51.3-27.9-105.2-16.5-106-8.4-0.8 8-8.7 53.9 27.5 65.1 36.1 11.2 80.3 42.4 94.9 58.7 14.6 16.2 55.5 41.6 55.5 41.6z"/>
				<path id="&lt;Path&gt;" class="s24" d="m2170.2 1939.2l-50.2 74c58.1 71.8 108.4 131.1 146 174.7 153 177.3 230.8 250.1 331.9 280.7 28.3 8.5 88.8 26 124.7-4.9 5.3-4.5 20.5-19 26.8-56.4 13.6-81.2-34.2-153.6-50.2-177.7-67-101.2-260.3-213-529-290.4z"/>
			</g>
		</g>
	</g>
</svg>