<svg version="1.2" xmlns="http://www.w3.org/2000/svg" viewBox="0 0 850 850" width="100" height="100">
	<title>6769264_60111-ai</title>
	<style>
		.s0 { fill: #fbae25 } 
		.s1 { fill: #f9b587 } 
		.s2 { fill: #1f9faa } 
		.s3 { mix-blend-mode: multiply;fill: #b5c9d4 } 
		.s4 { fill: #d4906b } 
		.s5 { mix-blend-mode: multiply;fill: #decccd } 
		.s6 { mix-blend-mode: multiply;fill: #eae0dc } 
		.s7 { fill: #361a13 } 
		.s8 { fill: #fefefe } 
		.s9 { fill: #a59f9e } 
	</style>
	<g id="_Artboards_">
	</g>
	<g id="Capa 1">
		<path id="&lt;Path&gt;" class="s0" d="m126 729.8c0 19.3 134.4 34.9 300 34.9 165.7 0 300-15.6 300-34.9 0-19.2-134.3-34.9-300-34.9-165.6 0-300 15.7-300 34.9z"/>
		<g id="&lt;Group&gt;">
			<path id="&lt;Path&gt;" class="s1" d="m321.5 338c-2.4-12.6-14.4-24.2-30.8-20.7-16.4 3.6-16.4 18.9-13.9 31.5 0.1 0.6 8.2 34.6 12.9 41.7 4.7 7.2 11.6 20.8 23.1 16.9 7.7-2.6 12.1-16.1 14-25.9 1.8-9.8-5.3-43.5-5.3-43.5z"/>
			<path id="&lt;Path&gt;" class="s1" d="m530.2 337.5c2.5-12.6 14.4-24.2 30.8-20.7 16.4 3.6 18 19.4 15.6 31.9-0.2 0.7-8.9 32.1-13 41.8-3.3 7.9-12.5 22-24.4 17.1-7.4-3.1-12.4-16.9-14.2-26.7-1.8-9.8 5.2-43.4 5.2-43.4z"/>
			<path id="&lt;Path&gt;" class="s2" d="m170.9 722h508.6c0 0-10-124.8-26.7-143.5-16.7-18.7-143.9-60.5-143.9-60.5l-166.1-0.5c0 0-133.8 39.1-142.9 61-9.2 21.8-29 143.5-29 143.5z"/>
			<path id="&lt;Path&gt;" class="s3" d="m409.2 517.7l-66.4-0.2c0 0-133.8 39.1-142.9 61-9.2 21.8-29 143.5-29 143.5h67.1c0 0 19.8-121.7 29-143.5 8.7-21 132.6-58 142.2-60.8z"/>
			<path id="&lt;Path&gt;" class="s4" d="m360.8 509.3c0 0 41.9 34.4 65.3 34.4 23.5 0 65.4-34.4 65.4-34.4 0 0-17.7-20.6-5.5-47.7 12.2-27.1-136.2-24.9-119 0 17.3 24.8-6.2 47.7-6.2 47.7z"/>
			<path id="&lt;Path&gt;" class="s5" d="m404.3 537.5c3.1-8.6 9.4-17.2 19.4-24.6 10.1-7.3 16-0.7 58.6-25.1-1.2-7.5-0.7-16.4 3.7-26.2 12.2-27.1-136.2-24.9-119 0 17.3 24.8-6.2 47.7-6.2 47.7 0 0 22.3 18.3 43.5 28.2z"/>
			<path id="&lt;Path&gt;" class="s3" d="m352.5 506.9l-9.7 10.6c0 0 28.9 71.5 54.1 80.5 7.6 2.8 23.6-32.6 29.2-32.6 2.7 0 24.3 37.6 27.6 36.8 25.7-5.9 55.2-84.2 55.2-84.2l-10.8-8.3-72 45.3z"/>
			<path id="&lt;Path&gt;" class="s1" d="m546.2 243.5c0-54.4-33.7-109.1-123.1-109.1-89.4 0-121.8 59.8-121.8 114.3 0 2.9-0.3 151 17.1 185 17.3 34 65.1 68.7 107.7 68.9 46.7 0.2 88.6-29.8 108.2-68.9 19.6-39.1 11.9-190.2 11.9-190.2z"/>
			<path id="&lt;Path&gt;" class="s6" d="m335.7 255.8c0.8 0.6 1.4 1 2.3 1.7 2.5 2.3-9.8 29.6-6.2 29.8 17.7 3.7 38.9-34.6 56.2-29.3 30.5 9.5 87.7 86.3 143.9 84.8 14.8-14.3 14.3-99.3 14.3-99.3 0-54.4-33.7-109.1-123.1-109.1-74 0-108.9 41.1-118.7 86.1 13.8 6 25.4 17.4 31.3 35.3z"/>
			<path id="&lt;Path&gt;" class="s6" d="m461.1 463.6c-42.6-0.1-90.4-34.9-107.7-68.9-17.4-34-17.1-182.1-17.1-185 0-18.9 4-38.5 12.9-55.9-34.1 22-47.9 59.5-47.9 94.9 0 2.9-0.3 151 17.1 185 17.3 34 65.1 68.7 107.7 68.9 44.1 0.2 84-26.6 104.8-62.6-19.9 14.7-44.1 23.7-69.8 23.6z"/>
			<g id="&lt;Group&gt;">
				<path id="&lt;Path&gt;" class="s6" d="m530.3 440.9c0.1-0.3 0.4-0.6 0.6-0.9-1 0.8-2.1 1.4-3.1 2.1 0.8-0.4 1.6-0.8 2.5-1.2z"/>
				<path id="&lt;Path&gt;" class="s6" d="m446.4 491.1c-42.7-0.1-90.4-34.9-107.8-68.9-17.3-34-17-182.1-17-185 0-24.4 6.7-49.7 22-70.4 1.6-4.4 3.4-8.8 5.6-13-34.1 22-47.9 59.5-47.9 94.9 0 2.9-0.3 151 17.1 185 17.3 34 65.1 68.7 107.7 68.9 24.2 0.1 47-8.1 66.2-21.3-14.3 6.3-29.8 9.9-45.9 9.8z"/>
			</g>
			<path id="&lt;Path&gt;" class="s7" d="m566.2 230.6c-11-60-60-103.5-140.1-103-79.8 0.5-132.3 49.4-142.8 104.9-4.5 23.8-8 69-6.1 96 13.5-11.2 19.1-12.6 25.6-10 4.5 49 15.2 48.3 15.2 48.3 0 0 0.9-33.3 3.1-55.3 2.2-22 38.2-26 56.2-64 57-2.5 92.9 70.5 155.4 74.5-6.2 36.1 7.5 50.5 7.5 50.5 0 0 1.5-29.8 6.5-44 4.4-12.3 17.5-12.3 24-7 3.1-22.4 1.6-57.8-4.5-90.9z"/>
			<g id="&lt;Group&gt;" style="opacity: .5;mix-blend-mode: soft-light">
				<path id="&lt;Path&gt;" class="s8" d="m566.2 230.6c-11-60-60-103.5-140.1-103-70.1 0.4-119 38.2-137.1 85 22.5-38.5 67.5-67.4 128.7-67.8 80.1-0.5 129.1 43 140.1 103 4.5 24.4 6.5 49.9 6 70.7 2.6 0.5 5 1.5 6.9 3 3.1-22.4 1.6-57.8-4.5-90.9z"/>
			</g>
			<g id="&lt;Group&gt;" style="mix-blend-mode: multiply">
				<path id="&lt;Path&gt;" class="s9" d="m377.3 219c-18 38-76 73.9-100.1 81-0.1-1.3-0.1-2.7-0.2-4-0.4 11.9-0.4 23.3 0.2 32.5 13.5-11.2 19.1-12.6 25.6-10 4.5 49 15.2 48.3 15.2 48.3 0 0 0.9-33.3 3.1-55.3 2.2-22 38.2-26 56.2-64 56.7-2.4 92.7 69.8 154.6 74.4-45.7-15.9-97.6-105.3-154.6-102.9z"/>
			</g>
			<path id="&lt;Path&gt;" class="s8" d="m352.5 489.9l-9.7 27.6c0 0 28.9 54.5 54.1 63.5 7.6 2.8 23.6-32.6 29.2-32.6 2.7 0 24.3 37.6 27.6 36.8 25.7-5.9 55.2-67.2 55.2-67.2l-10.8-25.3-72 45.3z"/>
		</g>
	</g>
</svg>