<svg version="1.2" xmlns="http://www.w3.org/2000/svg" viewBox="0 0 1000 1000" width="400" height="400">
	<title>main-ai</title>
	<style>
		.s0 { fill: #ffffff } 
		.s1 { fill: #dd2120 } 
		.s2 { fill: #270504 } 
		.s3 { fill: #fe857a } 
		.s4 { fill: #324498 } 
		.s5 { fill: none;stroke: #270504;stroke-linecap: round;stroke-linejoin: round;stroke-width: 2 } 
		.s6 { fill: #f2aa31 } 
		.s7 { fill: #ff9a7d } 
		.s8 { fill: #3c5bbf } 
		.s9 { fill: none;stroke: #ffffff;stroke-linecap: round;stroke-linejoin: round;stroke-width: 2 } 
		.s10 { fill: #fdb913 } 
		.s11 { fill: none;stroke: #270504;stroke-linecap: round;stroke-linejoin: round;stroke-width: 3.2 } 
		.s12 { fill: none;stroke: #270504;stroke-linecap: round;stroke-linejoin: round;stroke-width: 4 } 
	</style>
	<g id="BACKGROUND">
	</g>
	<g id="OBJECTS">
		<g id="&lt;Group&gt;">
			<path id="&lt;Path&gt;" class="s0" d="m630.1 284.6c-6.1 1.6-12.5 3.6-16.1 9.3-2.3 3.4-2.5 7.9-0.1 11.2 7.2 10 26.9-3.8 34.8 6 3.6 4.4 2.4 11-2 14.6-7.9 6.5-17.7 4.3-26.8 3.1-20.9-2.8-44.2 0.2-58.2 17.8-7.9 10-10.1 23.6-4.4 34.9 8.8 17.3 30.5 19.5 49 20.2 100.8 3.5 202.4 7 301.9-9.1 14.2-2.3 29.1-5.4 38.4-17.5 4.7-6 6.5-14 3.9-21.1-4.8-13.2-20-15.3-32.9-16.1q-12.9-0.8-25.7-1.6c-4.9-0.3-5.2-7.4-0.4-8.1l9.7-1.4c12.5-1.8 27-5 31.1-17.7 2.6-8-0.2-16.7-6.3-22.6-11.5-11.4-27.6-12-42.7-12.3-82.4-1.8-173-13.7-253.2 10.4z"/>
			<path id="&lt;Path&gt;" class="s0" d="m415 288.3q-168.2 3.2-336.4 6.4c-8.3 0.2-17.4 0.1-23.8-5.2-10.8-8.7-7.1-27.4 3.8-35.8 10.9-8.5 25.9-9.1 39.7-8 13.8 1.1 27.9 3.6 41.3 0.2 9-2.2 18.8-10.7 15.2-19.3-2.7-6.8-11.6-8.3-18.9-7.8-13.6 1-26.7 5.4-40.2 6-13.6 0.6-28.7-3.9-35.4-15.7-8.2-14.7 1.1-34.2 15.5-43 14.3-8.8 32-9.7 48.8-10.4q116.5-4.6 233.1-9.2c56.4-2.2 110.9-3.8 167.3-1.2 9.2 0.4 18.8 1 27 5.2 8.2 4.2 14.9 13 13.6 22.2-1.2 8.2-8.3 14.4-16 17.5-7.6 3.1-16 3.8-24.1 5.5-7 1.5-13.9 3.8-19.1 8.5-5.2 4.8-8.2 12.6-5.6 19.2 4.1 10.8 19.5 12.8 25.5 22.8 5.1 8.3 1.4 19.8-5.8 26.4-7.3 6.5-17.2 9.2-26.8 11.2-25.1 5.2-53 4-78.7 4.5z"/>
			<path id="&lt;Path&gt;" class="s0" d="m449.2 552.1q-53.2 1.1-106.4 2.1c-10.5 0.2-21.3 0.4-31.3-3.1-9.9-3.6-18.9-11.7-20.3-22.2-1.2-8.8 3.2-17.7 9.8-23.8 6.6-6 15-9.5 23.6-12.1 18.9-5.9 38.9-8 58.6-6.2 8.1 0.8 16.6 2.1 23.9-1.3 7.3-3.4 12-13.8 6.5-19.7-8-8.6-25.7 1.6-32.8-7.7-3.9-5.1-1.2-13 4-16.8 5.2-3.7 11.9-4.4 18.3-5q32.2-3 64.4-6c40.1-3.6 78.6 1 118.8 0.4 10.5-0.1 21.7-0.1 30.3 5.8 8.6 5.9 12.2 20.1 4.1 26.7-6.2 5.2-15.3 3.4-23.3 3.1-8.1-0.3-18.3 3.6-18.2 11.7 0.1 6.3 6.9 10.5 13.1 11.5 6.3 1 12.9 0.1 18.8 2.4 10.8 4.1 15.7 18.1 12 29.2-3.7 11-13.9 18.9-24.9 22.7-11 3.8-22.8 4.1-34.5 4.4-37.2 1-77.3 3.1-114.5 3.9z"/>
		</g>
		<g id="&lt;Group&gt;">
			<path id="&lt;Path&gt;" class="s1" d="m158.6 688.3l12.4-12.9-17.3-4.3z"/>
			<path id="&lt;Path&gt;" class="s2" d="m829.9 690.1l-12.5 12.8 17.4 4.4z"/>
			<path id="&lt;Path&gt;" class="s0" d="m687.1 546.7l13.7 11.5 3.2-17.6z"/>
			<path id="&lt;Path&gt;" class="s0" d="m287.8 120.1l-17.5 3.5 11.8 13.4z"/>
			<path id="&lt;Path&gt;" class="s3" d="m183.1 212.6c0-2.9-2.4-5.2-5.2-5.2-2.9 0-5.2 2.3-5.2 5.2 0 2.8 2.3 5.1 5.2 5.1 2.8 0 5.2-2.3 5.2-5.1z"/>
			<path id="&lt;Path&gt;" class="s3" d="m900.6 476.6c0-2.8-2.4-5.1-5.2-5.1-2.9 0-5.2 2.3-5.2 5.1 0 2.9 2.3 5.2 5.2 5.2 2.8 0 5.2-2.3 5.2-5.2z"/>
			<path id="&lt;Path&gt;" class="s0" d="m834.3 180.7c0-2.9-2.3-5.2-5.2-5.2-2.8 0-5.2 2.3-5.2 5.2 0 2.8 2.4 5.1 5.2 5.1 2.9 0 5.2-2.3 5.2-5.1z"/>
			<path id="&lt;Path&gt;" class="s0" d="m150.9 439.9c0-2.9-2.3-5.2-5.2-5.2-2.9 0-5.2 2.3-5.2 5.2 0 2.8 2.3 5.1 5.2 5.1 2.9 0 5.2-2.3 5.2-5.1z"/>
			<path id="&lt;Path&gt;" class="s1" d="m849.3 295.7c0-1.7-1.4-3.1-3.1-3.1-1.7 0-3.1 1.4-3.1 3.1 0 1.7 1.4 3.1 3.1 3.1 1.7 0 3.1-1.4 3.1-3.1z"/>
			<path id="&lt;Path&gt;" class="s0" d="m815.2 458c0-1.7-1.4-3.1-3.1-3.1-1.7 0-3.1 1.4-3.1 3.1 0 1.7 1.4 3.1 3.1 3.1 1.7 0 3.1-1.4 3.1-3.1z"/>
			<path id="&lt;Path&gt;" class="s2" d="m552.8 132.6c0-1.7-1.4-3.1-3.1-3.1-1.7 0-3.1 1.4-3.1 3.1 0 1.7 1.4 3.1 3.1 3.1 1.7 0 3.1-1.4 3.1-3.1z"/>
			<path id="&lt;Path&gt;" class="s4" d="m506.6 382.2c0-1.7-1.4-3.1-3.1-3.1-1.7 0-3.1 1.4-3.1 3.1 0 1.7 1.4 3.1 3.1 3.1 1.7 0 3.1-1.4 3.1-3.1z"/>
			<path id="&lt;Path&gt;" class="s4" d="m93 418.2c0-1.7-1.4-3.1-3.1-3.1-1.8 0-3.1 1.4-3.1 3.1 0 1.7 1.3 3.1 3.1 3.1 1.7 0 3.1-1.4 3.1-3.1z"/>
			<path id="&lt;Path&gt;" class="s3" d="m886.1 270.2c0-1.7-1.4-3.1-3.1-3.1-1.7 0-3.1 1.4-3.1 3.1 0 1.7 1.4 3.1 3.1 3.1 1.7 0 3.1-1.4 3.1-3.1z"/>
			<path id="&lt;Path&gt;" class="s2" d="m105 347.8c0-1.7-1.4-3.1-3.1-3.1-1.7 0-3.1 1.4-3.1 3.1 0 1.7 1.4 3.1 3.1 3.1 1.7 0 3.1-1.4 3.1-3.1z"/>
			<path id="&lt;Path&gt;" class="s2" d="m482.5 340.5c0-1.7-1.4-3.1-3.1-3.1-1.8 0-3.1 1.4-3.1 3.1 0 1.7 1.3 3.1 3.1 3.1 1.7 0 3.1-1.4 3.1-3.1z"/>
		</g>
		<g id="&lt;Group&gt;">
			<g id="&lt;Group&gt;">
				<path id="&lt;Path&gt;" class="s0" d="m777 205.4c0-11.3-9.5-20.3-20.9-19.5-9.7 0.7-17.6 8.6-18.1 18.4-0.2 4.3 0.9 8.3 3.1 11.7 2.7 4.1 4.8 8.7 6 13.5l0.5 2.2h19.8l0.4-1.9c1.2-5 3.4-9.6 6.1-13.9 2-3 3.1-6.7 3.1-10.5z"/>
				<path id="&lt;Path&gt;" class="s2" d="m767.8 236.7h-0.4v-1.6h0.4c1.3 0 2.2-0.9 2.2-2.1 0-1.3-0.9-2.2-2.2-2.2h-20.7c-1.2 0-2.1 0.9-2.1 2.2 0 1.2 0.9 2.1 2.1 2.1h0.5v1.6h-0.5c-1.2 0-2.1 1-2.1 2.2 0 1.2 0.9 2.2 2.1 2.2h0.5 19.8 0.4c1.3 0 2.2-1 2.2-2.2 0-1.2-0.9-2.2-2.2-2.2z"/>
				<path id="&lt;Path&gt;" class="s5" d="m755.9 228.6q-1.2-10.5-2.3-21.1c2.4 0.8 5.4 0.9 7.8 0-0.6 7.1-1 14-1.6 21.2"/>
			</g>
			<g id="&lt;Group&gt;">
				<path id="&lt;Path&gt;" class="s3" d="m580.3 278.6c0-11.2-9.5-20.2-20.9-19.4-9.8 0.6-17.6 8.6-18.2 18.4-0.2 4.3 1 8.3 3.2 11.6 2.7 4.2 4.8 8.7 5.9 13.5l0.6 2.3h19.7l0.5-1.9c1.2-5 3.3-9.7 6.1-14 1.9-3 3.1-6.6 3.1-10.5z"/>
				<path id="&lt;Path&gt;" class="s4" d="m571.1 309.9h-0.5v-1.5h0.5c1.2 0 2.2-1 2.2-2.2 0-1.2-1-2.2-2.2-2.2h-20.7c-1.2 0-2.2 1-2.2 2.2 0 1.2 1 2.2 2.2 2.2h0.5v1.5h-0.5c-1.2 0-2.2 1-2.2 2.2 0 1.3 1 2.2 2.2 2.2h0.5 19.7 0.5c1.2 0 2.2-0.9 2.2-2.2 0-1.2-1-2.2-2.2-2.2z"/>
				<path id="&lt;Path&gt;" class="s5" d="m559.1 301.9q-1.1-10.6-2.3-21.2c2.5 0.8 5.5 1 7.9 0-0.6 7.2-1.1 14.1-1.7 21.2"/>
			</g>
			<g id="&lt;Group&gt;">
				<path id="&lt;Path&gt;" class="s6" d="m620.8 375c0-11.2-9.5-20.2-20.9-19.4-9.8 0.6-17.6 8.6-18.1 18.4-0.3 4.3 0.9 8.3 3.1 11.6 2.7 4.2 4.8 8.7 6 13.5l0.5 2.3h19.7l0.5-1.9c1.2-5 3.4-9.7 6.1-14 2-3 3.1-6.6 3.1-10.5z"/>
				<path id="&lt;Path&gt;" class="s2" d="m611.6 406.3h-0.5v-1.5h0.5c1.2 0 2.2-1 2.2-2.2 0-1.2-1-2.2-2.2-2.2h-20.7c-1.2 0-2.2 1-2.2 2.2 0 1.2 1 2.2 2.2 2.2h0.5v1.5h-0.5c-1.2 0-2.2 1-2.2 2.2 0 1.3 1 2.2 2.2 2.2h0.5 19.7 0.5c1.2 0 2.2-0.9 2.2-2.2 0-1.2-1-2.2-2.2-2.2z"/>
				<path id="&lt;Path&gt;" class="s5" d="m599.7 398.3q-1.2-10.6-2.4-21.2c2.5 0.8 5.5 1 7.9 0-0.6 7.2-1.1 14.1-1.7 21.2"/>
			</g>
			<g id="&lt;Group&gt;">
				<path id="&lt;Path&gt;" class="s3" d="m889.5 404.6c0-11.2-9.5-20.3-20.9-19.5-9.8 0.7-17.6 8.7-18.1 18.4-0.3 4.4 0.9 8.4 3.1 11.7 2.7 4.2 4.8 8.7 6 13.5l0.5 2.3h19.7l0.5-2c1.2-4.9 3.4-9.6 6.1-13.9 2-3 3.1-6.6 3.1-10.5z"/>
				<path id="&lt;Path&gt;" class="s2" d="m880.3 435.9h-0.5v-1.5h0.5c1.2 0 2.2-1 2.2-2.2 0-1.2-1-2.2-2.2-2.2h-20.7c-1.2 0-2.2 1-2.2 2.2 0 1.2 1 2.2 2.2 2.2h0.5v1.5h-0.5c-1.2 0-2.2 1-2.2 2.2 0 1.2 1 2.2 2.2 2.2h0.5 19.7 0.5c1.2 0 2.2-1 2.2-2.2 0-1.2-1-2.2-2.2-2.2z"/>
				<path id="&lt;Path&gt;" class="s5" d="m868.4 427.9q-1.2-10.6-2.4-21.2c2.5 0.8 5.5 1 7.9 0-0.6 7.1-1.1 14.1-1.7 21.2"/>
			</g>
			<g id="&lt;Group&gt;">
				<path id="&lt;Path&gt;" class="s0" d="m438.1 370.5c0-11.2-9.5-20.3-20.9-19.5-9.7 0.7-17.6 8.7-18.1 18.4-0.2 4.3 0.9 8.4 3.1 11.7 2.7 4.2 4.8 8.7 6 13.5l0.5 2.2h19.8l0.4-1.9c1.2-4.9 3.4-9.6 6.1-13.9 2-3 3.1-6.6 3.1-10.5z"/>
				<path id="&lt;Path&gt;" class="s4" d="m428.9 401.8h-0.4v-1.5h0.4c1.2 0 2.2-1 2.2-2.2 0-1.2-1-2.2-2.2-2.2h-20.7c-1.2 0-2.2 1-2.2 2.2 0 1.2 1 2.2 2.2 2.2h0.5v1.5h-0.5c-1.2 0-2.2 1-2.2 2.2 0 1.2 1 2.2 2.2 2.2h0.5 19.8 0.4c1.2 0 2.2-1 2.2-2.2 0-1.2-1-2.2-2.2-2.2z"/>
				<path id="&lt;Path&gt;" class="s5" d="m417 393.8q-1.2-10.6-2.3-21.2c2.4 0.8 5.4 1 7.8 0-0.6 7.1-1.1 14.1-1.7 21.2"/>
			</g>
			<g id="&lt;Group&gt;">
				<path id="&lt;Path&gt;" class="s3" d="m293.4 229.4c0-11.2-9.5-20.3-20.9-19.5-9.8 0.7-17.6 8.7-18.1 18.4-0.3 4.3 0.9 8.4 3.1 11.7 2.7 4.2 4.8 8.7 5.9 13.5l0.6 2.2h19.7l0.5-1.9c1.2-4.9 3.3-9.6 6.1-13.9 1.9-3 3.1-6.6 3.1-10.5z"/>
				<path id="&lt;Path&gt;" class="s2" d="m284.2 260.7h-0.5v-1.5h0.5c1.2 0 2.2-1 2.2-2.2 0-1.2-1-2.2-2.2-2.2h-20.7c-1.2 0-2.2 1-2.2 2.2 0 1.2 1 2.2 2.2 2.2h0.5v1.5h-0.5c-1.2 0-2.2 1-2.2 2.2 0 1.2 1 2.2 2.2 2.2h0.5 19.7 0.5c1.2 0 2.2-1 2.2-2.2 0-1.2-1-2.2-2.2-2.2z"/>
				<path id="&lt;Path&gt;" class="s5" d="m272.2 252.7q-1.1-10.6-2.3-21.2c2.5 0.8 5.5 1 7.9 0-0.6 7.1-1.1 14.1-1.7 21.2"/>
			</g>
			<g id="&lt;Group&gt;">
				<path id="&lt;Path&gt;" class="s6" d="m192.2 344.8c0-11.2-9.5-20.2-20.9-19.5-9.7 0.7-17.6 8.7-18.1 18.4-0.2 4.4 1 8.4 3.1 11.7 2.7 4.2 4.8 8.7 6 13.5l0.6 2.3h19.7l0.4-2c1.2-4.9 3.4-9.6 6.2-13.9 1.9-3 3-6.6 3-10.5z"/>
				<path id="&lt;Path&gt;" class="s2" d="m183.1 376.1h-0.5v-1.5h0.5c1.2 0 2.2-1 2.2-2.2 0-1.2-1-2.2-2.2-2.2h-20.7c-1.2 0-2.2 1-2.2 2.2 0 1.2 1 2.2 2.2 2.2h0.5v1.5h-0.5c-1.2 0-2.2 1-2.2 2.2 0 1.2 1 2.2 2.2 2.2h0.5 19.7 0.5c1.2 0 2.2-1 2.2-2.2 0-1.2-1-2.2-2.2-2.2z"/>
				<path id="&lt;Path&gt;" class="s5" d="m171.1 368.1q-1.2-10.6-2.3-21.2c2.4 0.8 5.5 1 7.8 0-0.5 7.1-1 14.1-1.6 21.2"/>
			</g>
			<g id="&lt;Group&gt;">
				<path id="&lt;Path&gt;" class="s3" d="m234.4 426.6c0-11.2-9.5-20.3-20.9-19.5-9.8 0.7-17.6 8.7-18.1 18.4-0.3 4.4 0.9 8.4 3.1 11.7 2.7 4.2 4.8 8.7 6 13.5l0.5 2.3h19.7l0.5-2c1.2-4.9 3.4-9.6 6.1-13.9 2-3 3.1-6.6 3.1-10.5z"/>
				<path id="&lt;Path&gt;" class="s4" d="m225.2 457.9h-0.5v-1.5h0.5c1.2 0 2.2-1 2.2-2.2 0-1.2-1-2.2-2.2-2.2h-20.7c-1.2 0-2.2 1-2.2 2.2 0 1.2 1 2.2 2.2 2.2h0.5v1.5h-0.5c-1.2 0-2.2 1-2.2 2.2 0 1.2 1 2.2 2.2 2.2h0.5 19.7 0.5c1.2 0 2.2-1 2.2-2.2 0-1.2-1-2.2-2.2-2.2z"/>
				<path id="&lt;Path&gt;" class="s5" d="m213.3 449.9q-1.2-10.6-2.4-21.2c2.5 0.8 5.5 1 7.9 0-0.6 7.1-1.1 14.1-1.7 21.2"/>
			</g>
		</g>
		<g id="&lt;Group&gt;">
			<g id="&lt;Group&gt;">
				<path id="&lt;Path&gt;" class="s7" d="m198.1 530.3c-8.2-7.2-16.4-14.2-24.6-21.3-2 0.2-3.4 2.2-3.6 4.2-0.2 2 0.4 4 1.1 5.9q5.9 17.3 11.8 34.6c-7.6 0.8-15.4 1.2-23 2-3.9-7.9-8.2-16.6-12.1-24.5-0.7-1.4-1.3-3-2.7-3.8-1.5-0.8-3.3-0.8-4.8-0.1 2.3 10.3 4.6 20.4 6.9 30.8-7-9.3-14.1-18.9-21.1-28.2-1-1.3-2.5-3.3-4.1-3.8-1.5-0.5-3.3-0.1-4.5 1 3.9 9.8 7.7 19.4 11.6 29.2-1.8-0.6-4.2-0.9-5.9-1.5-4.4-5.7-9.2-11.2-13.6-16.9-1-1.2-2.9-2.4-4.4-2.5-1.6-0.1-3.2 0.6-4.2 1.8 3.2 7.3 5.9 14.1 9 21.4-2.8-1-6.5-1.9-9.5-1.7-3 0.1-6.2 1.7-7.1 4.6 13.2 7.3 26.4 14.5 39.6 21.8 25.9 14.2 55.6 15 84.6 38.1l37.2-51.7-11.8-7.5c-12.5-13.8-30.7-19.7-44.8-31.9z"/>
				<path id="&lt;Path&gt;" class="s5" d="m183.2 552.6c3.6 7.4 11.4 12.6 19.7 13"/>
				<path id="&lt;Path&gt;" class="s5" d="m160.2 555.7q1.5 4.2 2.9 8.4c15.8-1.1 32.6 3.9 45.1 13.5"/>
				<path id="&lt;Path&gt;" class="s5" d="m145.7 555.1q2.9 7.8 5.8 15.6"/>
				<path id="&lt;Path&gt;" class="s5" d="m128.3 556.5q4.8 10 9.5 20"/>
				<path id="&lt;Path&gt;" class="s5" d="m109.5 558.2c4.5 7.2 10 13.8 16.3 19.5"/>
			</g>
			<g id="&lt;Group&gt;">
				<path id="&lt;Path&gt;" class="s7" d="m806.6 530.3c8.2-7.2 16.4-14.2 24.6-21.3 2 0.2 3.4 2.2 3.6 4.2 0.2 2-0.4 4-1.1 5.9q-5.9 17.3-11.8 34.6c7.6 0.8 15.4 1.2 23 2 3.9-7.9 8.2-16.6 12.1-24.5 0.7-1.4 1.3-3 2.7-3.8 1.5-0.8 3.3-0.8 4.8-0.1-2.3 10.3-4.6 20.4-6.9 30.8 7-9.3 14.1-18.9 21.1-28.2 1-1.3 2.5-3.3 4.1-3.8 1.5-0.5 3.3-0.1 4.5 1-3.9 9.8-7.6 19.4-11.6 29.2 1.8-0.6 4.2-0.9 5.9-1.5 4.4-5.7 9.2-11.2 13.6-16.9 1-1.2 2.9-2.4 4.4-2.5 1.6-0.1 3.2 0.6 4.2 1.8-3.2 7.3-5.9 14.1-9 21.4 2.8-1 6.5-1.9 9.5-1.7 3 0.1 6.2 1.7 7.1 4.6-13.2 7.3-26.4 14.5-39.6 21.8-25.9 14.2-55.6 15-84.6 38.1l-37.2-51.7 11.8-7.5c12.5-13.8 30.8-19.7 44.8-31.9z"/>
				<path id="&lt;Path&gt;" class="s5" d="m821.7 553.9c-3.3 7.5-10.1 13.3-18 15.2"/>
				<path id="&lt;Path&gt;" class="s5" d="m844.8 555.1q-2 5.4-4.1 10.9c-12.9 1.3-25.2 2.3-38.1 3.6"/>
				<path id="&lt;Path&gt;" class="s5" d="m857.3 556.1q-3.1 11.4-6.2 22.7"/>
				<path id="&lt;Path&gt;" class="s5" d="m876.7 554q-5.2 12.8-10.4 25.5"/>
				<path id="&lt;Path&gt;" class="s5" d="m894.5 559.3q-9 8.2-18.1 16.5"/>
			</g>
			<path id="&lt;Path&gt;" class="s2" d="m421.7 719.7c19.7 25.6 50.4 43.2 82.6 44.2 32.2 1.1 65.2-15.6 80.8-43.8z"/>
			<g id="&lt;Group&gt;">
				<path id="&lt;Path&gt;" class="s8" d="m758.4 559.3c-28.6 13.7-57.2 27.9-85.8 41.6-17-18-34.1-36-53.4-51.6-19.2-15.6-39.9-27.8-63.7-34.8 6.9-5.3 8.8-15.6 5.6-23.7-3.2-8.1-10.6-14-18.8-17.1-8.1-3-17-3.6-25.7-3.3-8.7 0.2-17.8 0.6-26.4 1.7-7.7 0.9-15.4 1.9-22.5 4.7-7.2 2.8-13.8 7.7-17.1 14.6-3.3 7-1.3 15 4.3 20.2-26.9 10.8-54.9 20.9-75.6 41.3-17.6 17.3-36.4 34.7-55.3 50.6-24.8-14.5-50.5-27.3-75.2-41.8q-22 28.1-43.9 56.2c22.2 20.4 44.8 40 67 60.4 11.3 10.4 26.1 16.4 41.4 17.7 15.3 1.2 30.7-2 45-7.4 14.4-5.4 27.9-12.8 41.4-20.2 1 20.5 1.3 40.5 2.3 61.1l202.6-3c0.3-19.1 0-37.1 0.2-56.2 16.4 12.1 34.1 23.3 53.9 27.6 19.9 4.4 40.2-1.6 56.6-13.6 27.4-20 54.9-40.3 82.3-60.4-13.2-21.7-26-42.8-39.2-64.6z"/>
				<path id="&lt;Path&gt;" class="s5" d="m472.5 492.9q5.3 5 10.7 9.9"/>
				<path id="&lt;Path&gt;" class="s5" d="m526.1 502.5q6.1-5.1 12.3-10.1"/>
				<path id="&lt;Path&gt;" class="s5" d="m453.5 512.2q7-2.6 13.9-5.3c11.4 10.3 23.2 19.6 34.6 29.9 12.3-9.7 25-18.7 37.3-28.3 6.2 2.4 12.8 4.5 19.1 7"/>
				<path id="&lt;Path&gt;" class="s5" d="m399 670.3q-1.5-37.9-3-75.9"/>
				<path id="&lt;Path&gt;" class="s5" d="m605.1 670.3q1.7-38 3.4-75.9"/>
				<path id="&lt;Path&gt;" class="s5" d="m326.4 601.1q-2.6 5-5.2 10.1"/>
				<path id="&lt;Path&gt;" class="s5" d="m672.3 600.2q1.8 4.1 3.7 8.1"/>
				<g id="&lt;Group&gt;">
					<path id="&lt;Path&gt;" class="s5" d="m226.3 636.1q23.2-30.9 46.3-61.7"/>
					<path id="&lt;Path&gt;" class="s5" d="m212.4 611.3q9.7 8.3 19.4 16.5"/>
					<path id="&lt;Path&gt;" class="s5" d="m222.1 600.4q9.5 7.3 19 14.5"/>
					<path id="&lt;Path&gt;" class="s5" d="m227.5 594.1q8.8 7.6 17.7 15.3"/>
					<path id="&lt;Path&gt;" class="s5" d="m238.2 581.2q9.5 6.6 19 13.2"/>
					<path id="&lt;Path&gt;" class="s5" d="m245.9 569.1q9.8 7 19.6 14.1"/>
				</g>
				<g id="&lt;Group&gt;">
					<path id="&lt;Path&gt;" class="s5" d="m736.7 569.1q18.9 35.3 37.7 70.6"/>
					<path id="&lt;Path&gt;" class="s5" d="m741.1 575.6q8.4-4.1 16.9-8.3"/>
					<path id="&lt;Path&gt;" class="s5" d="m744.3 582.4q8-4.1 16-8.2"/>
					<path id="&lt;Path&gt;" class="s5" d="m754.5 600.1q8.5-4.2 16.9-8.4"/>
					<path id="&lt;Path&gt;" class="s5" d="m758 607.4q9.6-5 19.3-10"/>
					<path id="&lt;Path&gt;" class="s5" d="m764.5 620.7q10.2-5.1 20.5-10.2"/>
					<path id="&lt;Path&gt;" class="s5" d="m772.1 634.7q9.8-6.7 19.5-13.5"/>
				</g>
				<g id="&lt;Group&gt;">
					<path id="&lt;Path&gt;" class="s5" d="m402.4 700.3q101.3-4.5 202.5-9"/>
					<path id="&lt;Path&gt;" class="s5" d="m411.7 700q1.2 12.3 2.5 24.6"/>
					<path id="&lt;Path&gt;" class="s5" d="m433.2 699.5q0.6 12.4 1.3 24.9"/>
					<path id="&lt;Path&gt;" class="s5" d="m443.1 699.3q0.4 13 0.7 26"/>
					<path id="&lt;Path&gt;" class="s5" d="m469 697.8q0.7 13.6 1.5 27.3"/>
					<path id="&lt;Path&gt;" class="s5" d="m494.5 696.6q0.5 14.1 1 28.2"/>
					<path id="&lt;Path&gt;" class="s5" d="m507.1 695.9q0.7 14.8 1.4 29.7"/>
					<path id="&lt;Path&gt;" class="s5" d="m526.9 695.4q0.4 14.2 0.8 28.5"/>
					<path id="&lt;Path&gt;" class="s5" d="m536.5 694.7q0.3 14.6 0.6 29.2"/>
					<path id="&lt;Path&gt;" class="s5" d="m551.3 693.4q0.2 15.3 0.3 30.5"/>
					<path id="&lt;Path&gt;" class="s5" d="m578.2 693.4q0.9 13.8 1.8 27.5"/>
					<path id="&lt;Path&gt;" class="s5" d="m592.6 691.7q-0.1 13.9-0.1 27.8"/>
				</g>
			</g>
			<g id="&lt;Group&gt;">
				<g id="&lt;Group&gt;">
					<path id="&lt;Path&gt;" class="s5" d="m498.4 405.1c2.8 1.9 5.2 4.6 6.9 7.6 0-2.8 1.4-5.5 3.7-7.2"/>
					<path id="&lt;Path&gt;" class="s2" d="m552.1 440.5c-0.9-2.4-3.1-4.8-5.7-4.5 1-3.8 0.1-7.9-2.4-10.9-2.4-2.9-6.2-4-10-3.7-0.6-6.4-5.3-12.2-11.4-14.2-6.1-2-13.4 0.2-17.6 5.1-6.9-4.7-16.1-5.7-23.8-2.8-7.8 2.9-14.1 9.8-16.2 17.9-3-0.6-6.2 0.5-8.3 2.8-2 2.3-2.6 5.6-1.7 8.5 1 2.9 4.4 5.4 7.4 6.1-0.5 1.6 0 3.5 1.3 4.7 1.2 1.1 2.8 1.7 4.4 1.1q1 5.1 2 10.2c1 5 5.9 8.2 10.6 9.9 4.8 1.7 10.2 1.5 14.8-0.7l43-4.8c1.5-5 3.3-10 4.8-15 2.6 0.3 5.3-0.6 7.1-2.5 1.8-1.8 2.5-4.7 1.7-7.2z"/>
				</g>
				<g id="&lt;Group&gt;">
					<path id="&lt;Path&gt;" class="s7" d="m545 462.2c-2.2-4.6-7.4-7.6-12.5-7.3-1.2 2.4-3.4 4.3-4.6 6.8-0.4-5.2-0.9-10.8-1.3-16-4.9 1.7-11-0.5-13.8-4.9-2 2-5 3-7.8 2.7-2.9-0.3-5.2-1.4-6.7-3.8-2.2 1.7-5.6 2.3-7.8 0.7-0.2 2.2-1.4 4.2-3 5.5-1.7 1.2-3.7 2.4-5.8 2.1q-0.7 7.2-1.4 14.4c-1.5-2.7-2.6-4.6-4.1-7.3-5.2-0.2-10.3 2.9-12.5 7.5-2.2 4.6-1.5 10.5 1.9 14.4 3.3 3.9 9 5.5 13.9 4 0.4 2.8 1.5 5.2 3.1 7.4q0 7.1 0 14.3c7.1 5.8 13.8 11.2 20.8 17l23-17.3c0-4.8 0.2-9.6 0.3-14.5 1.3-2 2.3-4.4 2.7-7.1 4.9 1.4 10.6-0.3 13.9-4.2 3.3-3.9 4-9.8 1.7-14.4z"/>
					<g id="&lt;Group&gt;">
						<path id="&lt;Path&gt;" class="s5" d="m488 463.8c0.7 1.4 2.2 2.5 3.8 2.7 1.5 0.1 3.2-0.6 4.2-1.9"/>
						<path id="&lt;Path&gt;" class="s5" d="m512.7 463.9c1 1.4 2.8 2.2 4.6 2 1.7-0.2 3.3-1.4 3.9-3.1"/>
						<path id="&lt;Path&gt;" class="s5" d="m504.8 463q0.2 4.3 0.4 8.5-0.9-0.1-1.7-0.1"/>
						<path id="&lt;Path&gt;" class="s5" d="m498.1 475.2c0 1.2 0.8 2.4 1.9 2.9 1.1 0.5 2.4 0.4 3.4-0.4"/>
						<path id="&lt;Path&gt;" class="s5" d="m486.6 450.7c1.2-1.8 3-3.2 5.1-3.8 2.1-0.5 4.4-0.3 6.3 0.7"/>
						<path id="&lt;Path&gt;" class="s5" d="m510.3 448.8c1.6-1.7 4-2.6 6.3-2.3 2.3 0.3 4.4 1.7 5.5 3.8"/>
					</g>
					<path id="&lt;Path&gt;" class="s5" d="m498.8 438.5c-0.2 2 0.4 4.1 1.7 5.6 1.2 1.6 3 2.7 5 3"/>
					<g id="&lt;Group&gt;">
						<path id="&lt;Path&gt;" class="s5" d="m469.5 462.9q2.8 2 5.7 4"/>
						<path id="&lt;Path&gt;" class="s5" d="m477.9 474.9q0.6 3.5 1.3 7.1"/>
						<path id="&lt;Path&gt;" class="s5" d="m531.5 473q-0.8 4.4-1.6 8.8"/>
						<path id="&lt;Path&gt;" class="s5" d="m534 467.2q3.4-1.5 6.9-3.1"/>
						<path id="&lt;Path&gt;" class="s5" d="m482.3 489.3c6 5.7 14.3 8.8 22.5 8.6 8.3-0.3 16.3-4 21.9-10"/>
					</g>
				</g>
			</g>
			<g id="&lt;Group&gt;">
				<g id="&lt;Group&gt;">
					<path id="&lt;Path&gt;" class="s1" d="m388.2 808.4c0 0 54.6-26.3 82.6-38.4l8.6 88.8q-35.9 13-71.8 26c-7.3 2.6-18 8.2-24.6 12.3-7.7 4.9-12.5 8.1-21.6 7.7 0.1-33.8 9.1-67.6 26.8-96.4z"/>
					<path id="&lt;Path&gt;" class="s5" d="m422.3 859.1q2.5 8.4 4.9 16.8"/>
					<path id="&lt;Path&gt;" class="s5" d="m433.9 852.8q2.6 8.8 5.1 17.6"/>
					<path id="&lt;Path&gt;" class="s5" d="m446 852.5q3.1 6.2 6.2 12.4"/>
				</g>
				<g id="&lt;Group&gt;">
					<path id="&lt;Path&gt;" class="s2" d="m655.3 709.7c19.3-2 39.2 6.6 51.1 21.9 11.9 15.2 15.3 36.7 8.6 54.9-6.6 18.2-23.6 30.4-42 36.4-40.7 13.4-166.2 40.1-194.2 46.7l-35.5-91.7c53.3-28.1 137.7-60.7 212-68.2z"/>
					<path id="&lt;Path&gt;" class="s9" d="m507.2 748q32.4-11.3 64.8-22.6"/>
					<path id="&lt;Path&gt;" class="s9" d="m683.2 764.6c-3 5.7-2.7 13.1 0.9 18.5 3.5 5.4 10.1 8.7 16.5 8.2"/>
				</g>
			</g>
			<g id="&lt;Group&gt;">
				<g id="&lt;Group&gt;">
					<path id="&lt;Path&gt;" class="s1" d="m621.8 808.4c0 0-54.6-26.3-82.6-38.4l-8.5 88.8q35.8 13 71.7 26c7.4 2.6 18 8.2 24.6 12.3 7.7 4.9 12.5 8.1 21.6 7.7-0.1-33.8-9.1-67.6-26.8-96.4z"/>
					<path id="&lt;Path&gt;" class="s5" d="m562.3 839q-4.3 12.4-8.5 24.7"/>
					<path id="&lt;Path&gt;" class="s5" d="m572.5 841.5q-3 12-6.1 24"/>
					<path id="&lt;Path&gt;" class="s5" d="m586 845.6q-2.8 12.2-5.6 24.4"/>
				</g>
				<g id="&lt;Group&gt;">
					<path id="&lt;Path&gt;" class="s2" d="m354.7 709.7c-19.2-2-39.2 6.6-51.1 21.9-11.9 15.2-15.2 36.7-8.6 54.9 6.6 18.2 23.6 30.4 42 36.4 40.7 13.4 166.2 40.1 194.2 46.7l35.5-91.7c-53.2-28.1-137.7-60.7-212-68.2z"/>
					<path id="&lt;Path&gt;" class="s9" d="m447.2 728.4c42 11.9 82.7 28.6 120.9 49.6"/>
					<path id="&lt;Path&gt;" class="s9" d="m474.4 856.9q14.3 3.6 28.5 7.2c9.6-34 19.4-68.8 29.1-102.8"/>
					<path id="&lt;Path&gt;" class="s9" d="m309.9 784.6c5.2 0.6 10.6-1.7 13.7-5.9 3.1-4.1 3.7-10 1.7-14.7"/>
				</g>
			</g>
		</g>
		<g id="&lt;Group&gt;">
			<g id="&lt;Group&gt;">
				<path id="&lt;Path&gt;" class="s10" d="m360.3 366.9c0-30.6-25.9-55.2-56.9-53-26.6 1.8-47.9 23.5-49.3 50.1-0.7 11.8 2.5 22.7 8.4 31.8 7.4 11.4 13.1 23.7 16.3 36.8l1.5 6.1h53.7l1.3-5.3c3.3-13.5 9.1-26.1 16.6-37.8 5.3-8.3 8.4-18.1 8.4-28.7z"/>
				<g id="&lt;Group&gt;">
					<path id="&lt;Path&gt;" class="s11" d="m296.5 353c4-6 12.5-8.8 19.3-6.1 6.7 2.6 11.2 10.2 10.1 17.4-1.1 7.2-7.6 13.2-14.9 13.7-3.6 0.2-7.2-0.8-10.7-0.5-6 0.5-11.4 4.9-13.1 10.6-1.8 5.7 0.3 12.4 4.9 16.1 4.6 3.8 11.6 4.4 16.8 1.5 0.4 20 1.2 40.1 1.5 60.1"/>
					<path id="&lt;Path&gt;" class="s11" d="m305.3 341.4q-0.3 22.3-0.7 44.7"/>
					<path id="&lt;Path&gt;" class="s11" d="m311.9 338.7q0.5 24.8 0.9 49.6"/>
				</g>
				<path id="&lt;Path&gt;" class="s9" d="m303.4 322.8c-21.8 1.5-39.4 19.4-40.6 41.2"/>
			</g>
			<g id="&lt;Group&gt;">
				<path id="&lt;Path&gt;" class="s8" d="m335.3 464.2c3.3 0 6-2.7 6-6 0-3.3-2.7-6-6-6h-1.3v-4.2h1.3c3.3 0 6-2.7 6-6 0-3.3-2.7-5.9-6-5.9h-56.3c-3.3 0-6 2.6-6 5.9 0 3.3 2.7 6 6 6h1.3v4.2h-1.3c-3.3 0-6 2.7-6 6 0 3.3 2.7 6 6 6h1.3v4.2h-1.3c-3.3 0-6 2.6-6 6 0 3.3 2.7 5.9 6 5.9h56.3c3.3 0 6-2.6 6-5.9 0-3.4-2.7-6-6-6h-1.3v-4.2z"/>
				<path id="&lt;Path&gt;" class="s9" d="m279 448h55"/>
				<path id="&lt;Path&gt;" class="s9" d="m280.3 464.2h53.7"/>
			</g>
		</g>
		<g id="&lt;Group&gt;">
			<g id="&lt;Group&gt;">
				<path id="&lt;Path&gt;" class="s10" d="m494.4 151.7c0-42.7-36.1-77-79.5-74-37 2.5-66.8 32.9-68.8 69.9-0.9 16.5 3.6 31.8 11.8 44.5 10.3 15.8 18.3 33 22.7 51.3l2.1 8.5h75l1.8-7.3c4.5-18.9 12.7-36.6 23.2-52.9 7.4-11.5 11.7-25.2 11.7-40z"/>
				<path id="&lt;Compound Path&gt;" fill-rule="evenodd" class="s12" d="m425.1 257.2h-7.7l-6.5-64.8c-7.8-1.8-14.6-5.9-19.9-11.5 3.7-2.8 4.9-8.1 2.5-12.2-2.4-4.2-7.5-5.8-11.9-3.9-1-3.7-1.6-7.5-1.6-11.5 0-4 0.6-7.9 1.6-11.5 4.4 1.8 9.5 0.3 11.9-3.9 2.4-4.2 1.2-9.4-2.5-12.3 5.3-5.5 12.1-9.6 19.9-11.5 0.5 4.7 4.5 8.4 9.3 8.4 4.8 0 8.8-3.7 9.3-8.4 7.7 1.9 14.6 6 19.9 11.5-3.8 2.9-5 8.1-2.6 12.3 2.5 4.2 7.6 5.7 11.9 3.9 1.1 3.6 1.7 7.5 1.7 11.5 0 4-0.6 7.8-1.7 11.5-4.3-1.9-9.4-0.3-11.9 3.9-2.4 4.1-1.2 9.4 2.6 12.2-5.3 5.6-12.2 9.7-19.9 11.5zm11-104c0-8.8-7.1-15.9-15.9-15.9-8.8 0-15.9 7.1-15.9 15.9 0 8.8 7.1 15.9 15.9 15.9 8.8 0 15.9-7.1 15.9-15.9z"/>
				<path id="&lt;Path&gt;" class="s9" d="m414.7 89.7c-29.6 2-53.3 26.2-54.9 55.8"/>
			</g>
			<g id="&lt;Group&gt;">
				<path id="&lt;Path&gt;" class="s1" d="m459.5 287.5c4.6 0 8.4-3.8 8.4-8.4 0-4.6-3.8-8.3-8.4-8.3h-1.8v-5.9h1.8c4.6 0 8.4-3.7 8.4-8.3 0-4.6-3.8-8.4-8.4-8.4h-78.7c-4.6 0-8.3 3.8-8.3 8.4 0 4.6 3.7 8.3 8.3 8.3h1.9v5.9h-1.9c-4.6 0-8.3 3.7-8.3 8.3 0 4.6 3.7 8.4 8.3 8.4h1.9v5.8h-1.9c-4.6 0-8.3 3.8-8.3 8.4 0 4.6 3.7 8.3 8.3 8.3h78.7c4.6 0 8.4-3.7 8.4-8.3 0-4.6-3.8-8.4-8.4-8.4h-1.8v-5.8z"/>
				<path id="&lt;Path&gt;" class="s9" d="m382.7 264.9h75.4"/>
				<path id="&lt;Path&gt;" class="s9" d="m382.7 287.5h75.4"/>
			</g>
		</g>
		<g id="&lt;Group&gt;">
			<g id="&lt;Group&gt;">
				<path id="&lt;Path&gt;" class="s10" d="m695.9 172.5c0-23-19.4-41.4-42.8-39.8-19.9 1.4-35.9 17.7-37 37.6-0.5 8.9 1.9 17.1 6.3 23.9 5.6 8.5 9.9 17.8 12.3 27.7l1.1 4.5h40.3l1-3.9c2.4-10.2 6.9-19.7 12.5-28.5 4-6.2 6.3-13.5 6.3-21.5z"/>
				<path id="&lt;Path&gt;" class="s11" d="m662.9 189.1c4.1-1.9 7.8-4.7 10.3-8.5 2.5-3.7 3.7-8.5 2.5-12.9-1.1-4.3-4.7-8.1-9.1-8.9-4.4-0.9-10 1.4-11.4 5.7-2.7-4.2-9-5.2-13.2-2.5-4.2 2.7-6 8.3-5.1 13.2 0.9 4.9 4.3 9.1 8.4 11.8 3 2.1 6.5 3.5 10.1 4 0 14.4 0.3 28.6 0.3 43.1"/>
				<path id="&lt;Path&gt;" class="s9" d="m650.6 142.3c-13.7 1-24.6 12.1-25.4 25.8"/>
			</g>
			<g id="&lt;Group&gt;">
				<path id="&lt;Path&gt;" class="s8" d="m677.1 245.6c2.5 0 4.5-2 4.5-4.5 0-2.5-2-4.5-4.5-4.5h-1v-3.2h1c2.5 0 4.5-2 4.5-4.5 0-2.4-2-4.4-4.5-4.4h-42.3c-2.5 0-4.5 2-4.5 4.4 0 2.5 2 4.5 4.5 4.5h1v3.2h-1c-2.5 0-4.5 2-4.5 4.5 0 2.5 2 4.5 4.5 4.5h1v3.1h-1c-2.5 0-4.5 2-4.5 4.5 0 2.5 2 4.5 4.5 4.5h42.3c2.5 0 4.5-2 4.5-4.5 0-2.5-2-4.5-4.5-4.5h-1v-3.1z"/>
				<path id="&lt;Path&gt;" class="s9" d="m635.8 233.4h40.3"/>
				<path id="&lt;Path&gt;" class="s9" d="m676.1 245.6h-40.3"/>
			</g>
		</g>
		<g id="&lt;Group&gt;">
			<g id="&lt;Group&gt;">
				<path id="&lt;Path&gt;" class="s10" d="m787.4 369.8c0-37.5-31.8-67.7-69.9-65.1-32.6 2.3-58.8 28.9-60.5 61.5-0.8 14.5 3.1 27.9 10.4 39.1 9 13.9 16.1 29 20 45.1l1.8 7.5h65.9l1.6-6.5c4-16.6 11.2-32.1 20.4-46.4 6.5-10.2 10.3-22.2 10.3-35.2z"/>
				<g id="&lt;Group&gt;">
					<g id="&lt;Group&gt;">
						<path id="&lt;Path&gt;" class="s12" d="m752.6 366.6c0.8 8.3-1.9 16.8-8.3 23.2-6.4 6.3-14.9 9.1-23.2 8.3v58.5"/>
						<path id="&lt;Path&gt;" class="s12" d="m750.2 357.4c-1.4-3.1-3.4-6-5.9-8.5-10.1-10.1-25.9-11.2-37.2-3.1"/>
						<path id="&lt;Path&gt;" class="s12" d="m700.3 352.5c-8 11.3-7 27.1 3.1 37.3 2.5 2.5 5.4 4.5 8.5 5.9"/>
					</g>
					<path id="&lt;Path&gt;" class="s12" d="m706.9 380.8l5 14.9-15.6-1.2"/>
					<path id="&lt;Path&gt;" class="s12" d="m722 349.4l-14.9-3.6 7.8-12.4"/>
					<path id="&lt;Path&gt;" class="s12" d="m743.7 378.8l8.7-12.7 8.9 11.8"/>
				</g>
				<path id="&lt;Path&gt;" class="s9" d="m716.6 314.4c-26.8 1.8-48.4 23.8-49.9 50.7"/>
			</g>
			<g id="&lt;Group&gt;">
				<path id="&lt;Path&gt;" class="s2" d="m756.7 489.1c4.1 0 7.3-3.2 7.3-7.3 0-4.1-3.2-7.3-7.3-7.3h-1.6v-5.2h1.6c4.1 0 7.3-3.3 7.3-7.3 0-4.1-3.2-7.4-7.3-7.4h-69.1c-4.1 0-7.4 3.3-7.4 7.4 0 4 3.3 7.3 7.4 7.3h1.6v5.2h-1.6c-4.1 0-7.4 3.2-7.4 7.3 0 4.1 3.3 7.3 7.4 7.3h1.6v5.2h-1.6c-4.1 0-7.4 3.3-7.4 7.3 0 4.1 3.3 7.4 7.4 7.4h69.1c4.1 0 7.3-3.3 7.3-7.4 0-4-3.2-7.3-7.3-7.3h-1.6v-5.2z"/>
				<path id="&lt;Path&gt;" class="s9" d="m689.2 469.3h65.9"/>
				<path id="&lt;Path&gt;" class="s9" d="m755.1 489.1h-65.9"/>
			</g>
		</g>
	</g>
</svg>