<svg version="1.2" xmlns="http://www.w3.org/2000/svg" viewBox="0 0 3710 3710" width="500" height="500">
	<title>our-services-ai</title>
	<defs>
		<linearGradient id="g1" x1="1120.6" y1="3.4" x2="559.4" y2="2238.4" gradientUnits="userSpaceOnUse">
			<stop offset="0" stop-color="#aa80f9"/>
			<stop offset=".996" stop-color="#6165d7"/>
		</linearGradient>
		<linearGradient id="g2" x1="4807.7" y1="1810.1" x2="4049.8" y2="3343.5" gradientUnits="userSpaceOnUse">
			<stop offset=".004" stop-color="#e38ddd"/>
			<stop offset="1" stop-color="#9571f6"/>
		</linearGradient>
		<linearGradient id="g3" x1="2418" y1="1429.3" x2="2073.7" y2="2402.3" gradientUnits="userSpaceOnUse">
			<stop offset="0" stop-color="#ff9085"/>
			<stop offset="1" stop-color="#fb6fbb"/>
		</linearGradient>
		<linearGradient id="g4" x1="25.6" y1="1945.5" x2="2681" y2="-694.7" gradientUnits="userSpaceOnUse">
			<stop offset=".004" stop-color="#ebeff2"/>
			<stop offset="1" stop-color="#ffffff"/>
		</linearGradient>
		<linearGradient id="g5" x1="2507.9" y1="2783.6" x2="2964.1" y2="2783.6" gradientUnits="userSpaceOnUse">
			<stop offset="0" stop-color="#d0d1d3"/>
			<stop offset=".996" stop-color="#ebeff2"/>
		</linearGradient>
		<linearGradient id="g6" x1="2710.6" y1="2554.6" x2="2761.3" y2="2554.6" gradientUnits="userSpaceOnUse">
			<stop offset="0" stop-color="#d0d1d3"/>
			<stop offset=".996" stop-color="#ebeff2"/>
		</linearGradient>
		<linearGradient id="g7" x1="2831.7" y1="2963.8" x2="2682.3" y2="2769.1" gradientUnits="userSpaceOnUse">
			<stop offset="0" stop-color="#311944"/>
			<stop offset="1" stop-color="#893976"/>
		</linearGradient>
		<linearGradient id="g8" x1="2530.5" y1="2313.8" x2="2678.3" y2="1922" gradientUnits="userSpaceOnUse">
			<stop offset="0" stop-color="#311944"/>
			<stop offset="1" stop-color="#893976"/>
		</linearGradient>
		<linearGradient id="g9" x1="2757.4" y1="2423.9" x2="2755.5" y2="2583.3" gradientUnits="userSpaceOnUse">
			<stop offset="0" stop-color="#311944"/>
			<stop offset="1" stop-color="#893976"/>
		</linearGradient>
		<linearGradient id="g10" x1="2172.2" y1="2346.2" x2="2455.2" y2="3367.6" gradientUnits="userSpaceOnUse">
			<stop offset="0" stop-color="#311944"/>
			<stop offset="1" stop-color="#893976"/>
		</linearGradient>
		<linearGradient id="g11" x1="2341" y1="3043.5" x2="2343" y2="2873.8" gradientUnits="userSpaceOnUse">
			<stop offset="0" stop-color="#ffc444"/>
			<stop offset=".996" stop-color="#f36f56"/>
		</linearGradient>
		<linearGradient id="g12" x1="2323.6" y1="2218.2" x2="2606.6" y2="3239.5" gradientUnits="userSpaceOnUse">
			<stop offset="0" stop-color="#311944"/>
			<stop offset="1" stop-color="#893976"/>
		</linearGradient>
		<linearGradient id="g13" x1="2536.2" y1="3045.7" x2="2538.2" y2="2876" gradientUnits="userSpaceOnUse">
			<stop offset="0" stop-color="#ffc444"/>
			<stop offset=".996" stop-color="#f36f56"/>
		</linearGradient>
		<linearGradient id="g14" x1="2269.1" y1="2039.9" x2="2448.8" y2="2039.9" gradientUnits="userSpaceOnUse">
			<stop offset="0" stop-color="#444b8c"/>
			<stop offset=".996" stop-color="#26264f"/>
		</linearGradient>
		<linearGradient id="g15" x1="2269.1" y1="2039.9" x2="2448.8" y2="2039.9" gradientUnits="userSpaceOnUse">
			<stop offset="0" stop-color="#444b8c"/>
			<stop offset=".996" stop-color="#26264f"/>
		</linearGradient>
		<linearGradient id="g16" x1="2370.5" y1="2058" x2="2643.3" y2="2058" gradientUnits="userSpaceOnUse">
			<stop offset="0" stop-color="#444b8c"/>
			<stop offset=".996" stop-color="#26264f"/>
		</linearGradient>
		<linearGradient id="g17" x1="1740.2" y1="1730.3" x2="1956.4" y2="1950.3" gradientUnits="userSpaceOnUse">
			<stop offset="0" stop-color="#ffc444"/>
			<stop offset=".996" stop-color="#f36f56"/>
		</linearGradient>
		<linearGradient id="g18" x1="2745.4" y1="1347.7" x2="1819.6" y2="2294.3" gradientUnits="userSpaceOnUse">
			<stop offset=".004" stop-color="#6165d7"/>
			<stop offset="1" stop-color="#aa80f9"/>
		</linearGradient>
		<linearGradient id="g19" x1="2493.5" y1="3008.5" x2="1793.6" y2="2003.7" gradientUnits="userSpaceOnUse">
			<stop offset=".004" stop-color="#6165d7"/>
			<stop offset="1" stop-color="#aa80f9"/>
		</linearGradient>
		<linearGradient id="g20" x1="2672.4" y1="3143.8" x2="1704.5" y2="1754.3" gradientUnits="userSpaceOnUse">
			<stop offset="0" stop-color="#aa80f9"/>
			<stop offset=".996" stop-color="#6165d7"/>
		</linearGradient>
		<linearGradient id="g21" x1="2548" y1="2054.7" x2="2646.2" y2="2054.7" gradientUnits="userSpaceOnUse">
			<stop offset="0" stop-color="#ffc444"/>
			<stop offset=".996" stop-color="#f36f56"/>
		</linearGradient>
		<linearGradient id="g22" x1="2693.5" y1="2939.6" x2="1978.3" y2="1912.7" gradientUnits="userSpaceOnUse">
			<stop offset=".004" stop-color="#6165d7"/>
			<stop offset="1" stop-color="#aa80f9"/>
		</linearGradient>
		<linearGradient id="g23" x1="2267.8" y1="1545.1" x2="2365.7" y2="1401.2" gradientUnits="userSpaceOnUse">
			<stop offset="0" stop-color="#ffc444"/>
			<stop offset=".996" stop-color="#f36f56"/>
		</linearGradient>
		<linearGradient id="g24" x1="2344.1" y1="1585.9" x2="2256.4" y2="1363.2" gradientUnits="userSpaceOnUse">
			<stop offset="0" stop-color="#444b8c"/>
			<stop offset=".996" stop-color="#3e4177"/>
		</linearGradient>
		<linearGradient id="g25" x1="2201.6" y1="1458" x2="2414.6" y2="1342.1" gradientUnits="userSpaceOnUse">
			<stop offset="0" stop-color="#ffc444"/>
			<stop offset=".996" stop-color="#f36f56"/>
		</linearGradient>
		<linearGradient id="g26" x1="1337.8" y1="3356.9" x2="1252.2" y2="3060.2" gradientUnits="userSpaceOnUse">
			<stop offset="0" stop-color="#444b8c"/>
			<stop offset=".996" stop-color="#26264f"/>
		</linearGradient>
		<linearGradient id="g27" x1="1244.7" y1="3282.3" x2="1250.2" y2="2888.5" gradientUnits="userSpaceOnUse">
			<stop offset="0" stop-color="#ffc444"/>
			<stop offset=".996" stop-color="#f36f56"/>
		</linearGradient>
		<linearGradient id="g28" x1="1397.3" y1="3284.4" x2="1402.7" y2="2890.6" gradientUnits="userSpaceOnUse">
			<stop offset="0" stop-color="#ffc444"/>
			<stop offset=".996" stop-color="#f36f56"/>
		</linearGradient>
		<linearGradient id="g29" x1="1420" y1="3311.5" x2="1343.2" y2="3045.3" gradientUnits="userSpaceOnUse">
			<stop offset="0" stop-color="#444b8c"/>
			<stop offset=".996" stop-color="#26264f"/>
		</linearGradient>
		<linearGradient id="g30" x1="2930.9" y1="2522.3" x2="2882.7" y2="3350.5" gradientUnits="userSpaceOnUse">
			<stop offset="0" stop-color="#311944"/>
			<stop offset="1" stop-color="#893976"/>
		</linearGradient>
		<linearGradient id="g31" x1="2930.9" y1="2522.3" x2="2882.7" y2="3350.5" gradientUnits="userSpaceOnUse">
			<stop offset="0" stop-color="#311944"/>
			<stop offset="1" stop-color="#893976"/>
		</linearGradient>
		<linearGradient id="g32" x1="1817.2" y1="3308.3" x2="1089.2" y2="3265.1" gradientUnits="userSpaceOnUse">
			<stop offset="0" stop-color="#311944"/>
			<stop offset="1" stop-color="#893976"/>
		</linearGradient>
		<linearGradient id="g33" x1="144" y1="2737.2" x2="688.8" y2="1613.7" gradientUnits="userSpaceOnUse">
			<stop offset="0" stop-color="#ff9085"/>
			<stop offset="1" stop-color="#fb6fbb"/>
		</linearGradient>
		<linearGradient id="g34" x1="1298.2" y1="1580" x2="742.6" y2="2324.3" gradientUnits="userSpaceOnUse">
			<stop offset="0" stop-color="#ff9085"/>
			<stop offset="1" stop-color="#fb6fbb"/>
		</linearGradient>
		<linearGradient id="g35" x1="1440.5" y1="1692.8" x2="1336.6" y2="1855.8" gradientUnits="userSpaceOnUse">
			<stop offset="0" stop-color="#ffc444"/>
			<stop offset=".996" stop-color="#f36f56"/>
		</linearGradient>
		<linearGradient id="g36" x1="1838.8" y1="1969.4" x2="1635.8" y2="2287.8" gradientUnits="userSpaceOnUse">
			<stop offset="0" stop-color="#444b8c"/>
			<stop offset=".996" stop-color="#26264f"/>
		</linearGradient>
		<linearGradient id="g37" x1="1792.8" y1="1943.7" x2="1618.1" y2="2271.7" gradientUnits="userSpaceOnUse">
			<stop offset="0" stop-color="#ffc444"/>
			<stop offset=".996" stop-color="#f36f56"/>
		</linearGradient>
		<linearGradient id="g38" x1="1632.3" y1="1850.2" x2="1689.1" y2="1736.4" gradientUnits="userSpaceOnUse">
			<stop offset="0" stop-color="#aa80f9"/>
			<stop offset=".996" stop-color="#6165d7"/>
		</linearGradient>
		<linearGradient id="g39" x1="1720.7" y1="1205.7" x2="1562.9" y2="2691.3" gradientUnits="userSpaceOnUse">
			<stop offset="0" stop-color="#ffc444"/>
			<stop offset=".996" stop-color="#f36f56"/>
		</linearGradient>
		<linearGradient id="g40" x1="1712.5" y1="1237.7" x2="1571.2" y2="2568.2" gradientUnits="userSpaceOnUse">
			<stop offset="0" stop-color="#ffc444"/>
			<stop offset=".996" stop-color="#f36f56"/>
		</linearGradient>
		<linearGradient id="g41" x1="1660.3" y1="1404.6" x2="1565.6" y2="2296.7" gradientUnits="userSpaceOnUse">
			<stop offset="0" stop-color="#ffc444"/>
			<stop offset=".996" stop-color="#f36f56"/>
		</linearGradient>
		<linearGradient id="g42" x1="1775.1" y1="2025.5" x2="1732.6" y2="2092.2" gradientUnits="userSpaceOnUse">
			<stop offset="0" stop-color="#ffc444"/>
			<stop offset=".996" stop-color="#f36f56"/>
		</linearGradient>
		<linearGradient id="g43" x1="470.4" y1="3561.4" x2="1251.2" y2="1951.1" gradientUnits="userSpaceOnUse">
			<stop offset="0" stop-color="#ff9085"/>
			<stop offset="1" stop-color="#fb6fbb"/>
		</linearGradient>
		<linearGradient id="g44" x1="399.3" y1="2057.6" x2="787.6" y2="1256.9" gradientUnits="userSpaceOnUse">
			<stop offset="0" stop-color="#444b8c"/>
			<stop offset=".996" stop-color="#26264f"/>
		</linearGradient>
		<linearGradient id="g45" x1="756.7" y1="3142.7" x2="1200.7" y2="3142.7" gradientUnits="userSpaceOnUse">
			<stop offset="0" stop-color="#d0d1d3"/>
			<stop offset=".996" stop-color="#ebeff2"/>
		</linearGradient>
		<linearGradient id="g46" x1="1003.4" y1="2919.8" x2="954" y2="2919.8" gradientUnits="userSpaceOnUse">
			<stop offset="0" stop-color="#d0d1d3"/>
			<stop offset=".996" stop-color="#ebeff2"/>
		</linearGradient>
		<linearGradient id="g47" x1="885.5" y1="3318" x2="1030.9" y2="3128.6" gradientUnits="userSpaceOnUse">
			<stop offset="0" stop-color="#311944"/>
			<stop offset="1" stop-color="#893976"/>
		</linearGradient>
		<linearGradient id="g48" x1="1894.3" y1="2193.3" x2="1842.3" y2="2344.2" gradientUnits="userSpaceOnUse">
			<stop offset="0" stop-color="#444b8c"/>
			<stop offset=".996" stop-color="#26264f"/>
		</linearGradient>
		<linearGradient id="g49" x1="1724.8" y1="2056.7" x2="2154.2" y2="2056.7" gradientUnits="userSpaceOnUse">
			<stop offset="0" stop-color="#311944"/>
			<stop offset="1" stop-color="#893976"/>
		</linearGradient>
		<linearGradient id="g50" x1="1718.3" y1="2056.7" x2="2147.7" y2="2056.7" gradientUnits="userSpaceOnUse">
			<stop offset="0" stop-color="#444b8c"/>
			<stop offset=".996" stop-color="#26264f"/>
		</linearGradient>
		<linearGradient id="g51" x1="1500.9" y1="2316.4" x2="2147.7" y2="2316.4" gradientUnits="userSpaceOnUse">
			<stop offset="0" stop-color="#444b8c"/>
			<stop offset=".996" stop-color="#26264f"/>
		</linearGradient>
		<linearGradient id="g52" x1="2247.3" y1="2394.7" x2="2455.6" y2="2832.3" gradientUnits="userSpaceOnUse">
			<stop offset="0" stop-color="#ffc444"/>
			<stop offset=".996" stop-color="#f36f56"/>
		</linearGradient>
		<linearGradient id="g53" x1="2312.7" y1="2339.4" x2="2249.2" y2="2504.6" gradientUnits="userSpaceOnUse">
			<stop offset="0" stop-color="#ffc444"/>
			<stop offset=".996" stop-color="#f36f56"/>
		</linearGradient>
		<linearGradient id="g54" x1="2247.3" y1="2377" x2="2455.6" y2="2814.5" gradientUnits="userSpaceOnUse">
			<stop offset="0" stop-color="#ffc444"/>
			<stop offset=".996" stop-color="#f36f56"/>
		</linearGradient>
		<linearGradient id="g55" x1="2312.7" y1="2321.7" x2="2249.2" y2="2486.9" gradientUnits="userSpaceOnUse">
			<stop offset="0" stop-color="#ffc444"/>
			<stop offset=".996" stop-color="#f36f56"/>
		</linearGradient>
		<linearGradient id="g56" x1="2247.3" y1="2359.2" x2="2455.6" y2="2796.8" gradientUnits="userSpaceOnUse">
			<stop offset="0" stop-color="#ffc444"/>
			<stop offset=".996" stop-color="#f36f56"/>
		</linearGradient>
		<linearGradient id="g57" x1="2312.7" y1="2303.9" x2="2249.2" y2="2469.1" gradientUnits="userSpaceOnUse">
			<stop offset="0" stop-color="#ffc444"/>
			<stop offset=".996" stop-color="#f36f56"/>
		</linearGradient>
		<linearGradient id="g58" x1="1934.9" y1="1197.8" x2="1389.9" y2="1197.8" gradientUnits="userSpaceOnUse">
			<stop offset="0" stop-color="#ff9085"/>
			<stop offset="1" stop-color="#fb6fbb"/>
		</linearGradient>
		<linearGradient id="g59" x1="1684.7" y1="1037.6" x2="1132.7" y2="1764.5" gradientUnits="userSpaceOnUse">
			<stop offset="0" stop-color="#ff9085"/>
			<stop offset="1" stop-color="#fb6fbb"/>
		</linearGradient>
	</defs>
	<style>
		.s0 { fill: #f4f7fa } 
		.s1 { fill: url(#g1) } 
		.s2 { fill: #fcfdfe } 
		.s3 { fill: url(#g2) } 
		.s4 { fill: #beb8f2 } 
		.s5 { fill: url(#g3) } 
		.s6 { fill: #97a6b7 } 
		.s7 { fill: url(#g4) } 
		.s8 { fill: #d8dee8 } 
		.s9 { opacity: .7;fill: #d8dee8 } 
		.s10 { fill: #b7c0ce } 
		.s11 { fill: url(#g5) } 
		.s12 { fill: #ffffff } 
		.s13 { fill: url(#g6) } 
		.s14 { fill: url(#g7) } 
		.s15 { fill: url(#g8) } 
		.s16 { fill: url(#g9) } 
		.s17 { fill: url(#g10) } 
		.s18 { fill: url(#g11) } 
		.s19 { fill: url(#g12) } 
		.s20 { fill: url(#g13) } 
		.s21 { fill: url(#g14) } 
		.s22 { opacity: .3;mix-blend-mode: multiply;fill: url(#g15) } 
		.s23 { fill: url(#g16) } 
		.s24 { fill: url(#g17) } 
		.s25 { fill: url(#g18) } 
		.s26 { fill: url(#g19) } 
		.s27 { opacity: .3;mix-blend-mode: multiply;fill: url(#g20) } 
		.s28 { fill: url(#g21) } 
		.s29 { fill: url(#g22) } 
		.s30 { fill: url(#g23) } 
		.s31 { fill: url(#g24) } 
		.s32 { fill: url(#g25) } 
		.s33 { fill: #c47eb7 } 
		.s34 { fill: url(#g26) } 
		.s35 { fill: url(#g27) } 
		.s36 { fill: url(#g28) } 
		.s37 { fill: url(#g29) } 
		.s38 { fill: url(#g30) } 
		.s39 { opacity: .3;mix-blend-mode: multiply;fill: url(#g31) } 
		.s40 { fill: url(#g32) } 
		.s41 { fill: url(#g33) } 
		.s42 { opacity: .3;mix-blend-mode: multiply;fill: url(#g34) } 
		.s43 { fill: url(#g35) } 
		.s44 { fill: url(#g36) } 
		.s45 { fill: url(#g37) } 
		.s46 { fill: url(#g38) } 
		.s47 { fill: url(#g39) } 
		.s48 { fill: url(#g40) } 
		.s49 { fill: url(#g41) } 
		.s50 { fill: url(#g42) } 
		.s51 { fill: url(#g43) } 
		.s52 { fill: url(#g44) } 
		.s53 { fill: url(#g45) } 
		.s54 { fill: url(#g46) } 
		.s55 { fill: url(#g47) } 
		.s56 { fill: url(#g48) } 
		.s57 { fill: url(#g49) } 
		.s58 { fill: url(#g50) } 
		.s59 { opacity: .9;mix-blend-mode: soft-light;fill: #ffffff } 
		.s60 { fill: url(#g51) } 
		.s61 { opacity: .5;fill: #d8dee8 } 
		.s62 { fill: url(#g52) } 
		.s63 { fill: url(#g53) } 
		.s64 { fill: url(#g54) } 
		.s65 { fill: url(#g55) } 
		.s66 { fill: url(#g56) } 
		.s67 { fill: url(#g57) } 
		.s68 { fill: url(#g58) } 
		.s69 { fill: url(#g59) } 
	</style>
	<g id="_Artboards_">
	</g>
	<g id="Background">
		<g id="&lt;Group&gt;">
			<g id="&lt;Group&gt;">
			</g>
		</g>
	</g>
	<g id="Illustration">
		<g id="&lt;Group&gt;">
			<path id="&lt;Path&gt;" class="s0" d="m1883.8 455.6c-724.7-21.6-1352.4 511-1447.2 1209.8-103.7 764.1 467 1451.5 1169.2 1561.6 873.4 137 1720.6-655.3 1644.5-1514.9-57.3-647.6-629.9-1234.4-1366.5-1256.5z"/>
			<g id="&lt;Group&gt;">
				<g id="&lt;Group&gt;">
					<path id="&lt;Path&gt;" class="s1" d="m2723 2086.1c48.1 67.9 29.1 148.2 6.9 204-7.5 1.5-11.4 4.4-18.7 7.6-65.3 29.3-98.9 26.8-167.5 44.7-14.8 3.8-61.3 0.9-80.2-1.6l-35.2-5.3c0 0-92.2-169.7-9.1-236.7 83.1-66.9 14.5-240.1-11.4-336.7-70.3-262.1 221.6-291.1 158.3-635.1-16.9-91.4-79.6-260.3-16-347.4 72.5-99.3 151.7-29.7 195.4-109.6 68.2-124.8 204.3-190.3 310.3-94.4 104.7 94.6 42.9 332.9-179.1 556.3-141.1 178.3-135.5 222.9-102.4 327.7 23.2 73.4 131.1 255.9 43.6 353-87.6 97-149.9 195.9-94.9 273.5z"/>
					<g id="&lt;Clip Group&gt;">
						<g id="&lt;Group&gt;" style="opacity: .5;mix-blend-mode: soft-light">
							<path id="&lt;Path&gt;" class="s2" d="m2580.4 2338.5l-5.2 0.3c-1.8-31-3.3-62.2-4.3-92.8-7.8-226.9 5.9-446.3 40.6-652.1 29.5-174.4 74.4-341.5 133.6-496.7 47.7-124.8 104.7-242.6 169.7-350.1 45.6-75.6 94.6-145.4 145.7-207.4 8.9-10.8 18.6-21.4 28-31.6 12.5-13.6 25.4-27.7 36.5-42.4l4.1 3.1c-11.2 15-24.2 29.1-36.8 42.8-9.4 10.2-19 20.7-27.8 31.4-50.9 61.8-99.8 131.4-145.3 206.8-64.8 107.2-121.7 224.7-169.2 349.3-59.1 154.8-104 321.6-133.4 495.7-34.7 205.4-48.3 424.5-40.5 651 1 30.6 2.5 61.8 4.3 92.7z"/>
							<path id="&lt;Path&gt;" class="s2" d="m2685.8 1290.8l-5.1-1.3c56.5-216-93.4-568-94.9-571.5l4.8-2.1c1.5 3.6 152.1 357.2 95.2 574.9z"/>
							<path id="&lt;Path&gt;" class="s2" d="m2580.8 1908.9l-5.2-0.7c21.2-151.3 267.6-310.7 270.1-312.3l2.8 4.4c-2.5 1.6-246.8 159.7-267.7 308.6z"/>
							<path id="&lt;Path&gt;" class="s2" d="m2576.2 1995.8l-5.2 0.2c-3.9-99.7-62.3-233.5-164.7-376.9-5.1-7.2-5.1-7.2-5.2-8.2l5.2-0.2-2.6 0.1 2.4-1.1c0.2 0.5 2.2 3.3 4.4 6.4 103 144.2 161.8 279 165.7 379.7z"/>
							<path id="&lt;Path&gt;" class="s2" d="m2577.9 2282l-5.1-1.3c27.4-106.4 175.7-173.8 177.2-174.5l2.1 4.7c-1.5 0.7-147.5 67.1-174.2 171.1z"/>
							<path id="&lt;Path&gt;" class="s2" d="m2572.8 2340.3c-35-81.4-94.5-155.3-181.9-226.1l3.2-4.1c88.1 71.4 148.1 146 183.4 228.1z"/>
							<path id="&lt;Path&gt;" class="s2" d="m2882 813.7l-4.9-1.6c38-118.3 50.6-251.5 54.7-295.2 1-10.6 1.4-14.4 1.8-15.6l5 1.4c-0.3 0.9-0.8 7-1.6 14.7-4.1 43.9-16.7 177.4-55 296.3z"/>
							<path id="&lt;Path&gt;" class="s2" d="m2791.6 997l-4.2-3c66.8-95.6 296.5-135.4 306.2-137.1l0.9 5.2c-2.4 0.4-237.3 41.1-302.9 134.9z"/>
						</g>
					</g>
				</g>
				<g id="&lt;Clip Group&gt;">
					<path id="&lt;Path&gt;" class="s3" d="m2494.4 2548.1l269.9 32.4c0 0 67.6-130.7 13.3-235.2-110.8-213.1 85.9-294 163.1-340.1 116.5-69.5 188.4-180.9 38.4-251.2-150.1-70.2 36.5-290.9 240.9-376.3 200.1-83.7 165.1-483.3-284.8-341.6-268.7 84.6-261.5 356-290.9 493.9-29.4 137.9-240.6 124.3-189.7 303.2 43.5 152.8 147 272.8 45.8 362.1-101.2 89.3-124.2 200.3-6 352.8z"/>
					<g id="&lt;Group&gt;" style="opacity: .5;mix-blend-mode: soft-light">
						<path id="&lt;Path&gt;" class="s4" d="m2608.2 2586.9l5.7-0.4c-0.2-3.5-20.5-354.5 65.6-708.5 79.4-326.1 267.8-721.5 715.3-753.3l-0.4-5.6c-199.2 14.1-364.5 100.2-491.3 256-101.4 124.4-178.5 293.2-229.2 501.7-86.3 354.8-65.9 706.6-65.7 710.1z"/>
						<path id="&lt;Path&gt;" class="s4" d="m2852.9 1442.4h5.7c-0.6-188.7 103.5-444.2 104.6-446.8l-5.3-2.1c-1.1 2.6-105.6 259.1-105 448.9z"/>
						<path id="&lt;Path&gt;" class="s4" d="m2940.3 1340.9c206.3-95 378.5-16.9 380.2-16.1l2.5-5.2c-1.8-0.8-176.3-80-385.1 16.2z"/>
						<path id="&lt;Path&gt;" class="s4" d="m2636 2112.5c96.3-257.8 469.6-279.1 473.3-279l0.5-5.6c-3.6-0.5-382.1 22.6-479.2 282.6z"/>
						<path id="&lt;Path&gt;" class="s4" d="m2648 1999.8l5.8-0.5c-15-174.7-187.7-314.3-189.4-315.7l-3.6 4.4c1.7 1.4 172.5 139.6 187.2 311.8z"/>
						<path id="&lt;Path&gt;" class="s4" d="m2611.9 2531.2c20.9-102.3 180.2-166.2 181.8-166.8l-2.1-5.3c-6.7 2.6-163.8 65.7-185.3 171z"/>
						<path id="&lt;Path&gt;" class="s4" d="m2606 2448.2l5.7-0.3c-4-82.4-116.5-187.2-153.5-221.6-5.2-4.9-9.7-9.1-10.4-10l-4.7 3.2c0.9 1.3 3.9 4.1 11.2 10.9 36.5 34 147.8 137.6 151.7 217.8z"/>
					</g>
				</g>
				<g id="&lt;Group&gt;">
					<path id="&lt;Path&gt;" class="s5" d="m2817.9 2485.6q-1.1 0.8-2.3 1.6c-46.6 32.9-103.3 60.6-172.7 78.1q-20.7 3.7-41.4 7.3c-18.3-30-30.4-61.9 8.5-83.4 60.5-33.3 37.4-147.4 10.9-183.9-32.7-45-106.8-151.5-14.1-204.6 77.1-44.1 136-56.9 118.6-164.8-17.3-108 26.5-187.2 124.6-201.8 103.3-15.4 157.4-169.1 250.7-141.8 162.4 47.4 81.8 311.1-80.2 417.6-162 106.4-46.8 148.1-23.1 234.4 32.3 117.8-134.3 127.3-166.7 183.3-11 19-14 39-12.8 58z"/>
					<g id="&lt;Clip Group&gt;">
						<g id="&lt;Group&gt;" style="opacity: .5;mix-blend-mode: soft-light">
							<path id="&lt;Path&gt;" class="s2" d="m2725 2537.1l-5 0.1c-4-359.7 166.4-719.5 444.9-939.2l3.1 3.9c-277.3 218.7-447.1 577.1-443 935.2z"/>
							<path id="&lt;Path&gt;" class="s2" d="m2739.5 2340.8l-4.8 1.1c-29.5-138.3-170.8-220.8-172.2-221.6l2.4-4.3c1.5 0.9 144.7 84.4 174.6 224.8z"/>
							<path id="&lt;Path&gt;" class="s2" d="m2726 2470.9l-4.7-1.4c40.2-137.5 291.1-209.3 293.7-210l1.3 4.8c-2.5 0.7-250.8 71.7-290.3 206.6z"/>
							<path id="&lt;Path&gt;" class="s2" d="m2846.5 2004.9l-4.8-0.9c22.5-111.5-77.5-254.2-78.6-255.6l4.1-2.9c1 1.5 102.2 145.9 79.3 259.4z"/>
							<path id="&lt;Path&gt;" class="s2" d="m2965.4 1809.9l-3.4-3.6c93.8-89.3 268.8-88.4 270.5-88.3v4.9c-1.8 0-174.8-1-267.1 87z"/>
						</g>
					</g>
				</g>
			</g>
			<g id="&lt;Group&gt;">
				<path id="&lt;Path&gt;" class="s6" d="m726 2236c-67.2 6.3-122.5-44.1-122.5-112.4v-1300.8c0-68.3 55.3-122.5 122.5-120.9l2024 49.5c47.5 1.2 85.8 48.2 85.8 104.9v1079.8c0 56.7-38.3 106.4-85.8 110.8z"/>
				<path id="&lt;Path&gt;" class="s7" d="m2750 785l-2024-43.3c-44-0.9-80 35.7-80 81.7v1296.7c0 46 36 80.1 80 76.2l2024-183c31.2-2.8 56.4-36.3 56.4-74.7v-1082.8c0-38.4-25.2-70.1-56.4-70.8z"/>
				<g id="&lt;Group&gt;">
					<path id="&lt;Path&gt;" class="s8" d="m2026.9 1899l-139 10.4v-252.1l139-7.5z"/>
					<path id="&lt;Path&gt;" class="s8" d="m2251.5 1882.1l-133.7 10.1v-328.7l133.7-6.2z"/>
					<path id="&lt;Path&gt;" class="s8" d="m2467.6 1865.9l-128.7 9.7v-428.6l128.7-4.8z"/>
					<path id="&lt;Path&gt;" class="s8" d="m2675.7 1850.3l-124 9.3v-559l124-3.1z"/>
					<path id="&lt;Compound Path&gt;" fill-rule="evenodd" class="s8" d="m1887.9 1442.4c-3.1 0.1-6.4-0.4-9.4-1.6-12.4-5.1-18.3-19.8-13-32.9 6-14.9 20.4-17.3 28.2-18.5 5.8-1 13.8-2 23.8-3.2 324.1-39.1 548.6-179.8 678.2-415.6 6.2-11.2 19.4-14.7 29.5-7.8 10 6.9 13.2 21.5 7.1 32.7-87.1 159.2-215.7 278.7-385.1 355-139.1 62.7-269.1 78.9-325.5 86-9.4 1.1-19.1 2.4-23.6 3.2-3.1 1.6-6.6 2.6-10.2 2.7zm22.3-16.2q0.1 0 0.1-0.1 0 0.1-0.1 0.1zm-0.1 0.3q0 0 0 0 0 0 0 0zm0-0.1q0 0.1 0 0.1 0 0 0-0.1zm0.1 0q0 0 0 0 0 0 0 0zm0-0.1q0 0 0 0.1 0-0.1 0-0.1zm0 0q0 0 0 0 0 0 0 0zm0-0.1q0 0 0 0.1 0-0.1 0-0.1z"/>
					<path id="&lt;Path&gt;" class="s8" d="m2634.6 1108.5c-11.1 0.1-20.5-9.5-21.3-22.1l-6.1-104.2-89.9 66.6c-10.1 7.4-23.6 4.4-30.4-6.6-6.7-11-4-26 6.1-33.4l152.1-111.7 10.8 185.9c0.8 13.1-8.1 24.5-19.9 25.4q-0.7 0.1-1.4 0.1z"/>
				</g>
				<g id="&lt;Group&gt;">
					<path id="&lt;Path&gt;" class="s9" d="m911.7 1019c0 22.8-19.2 41.4-43 41.4-23.9 0.1-43.3-18.5-43.3-41.4 0-23 19.4-41.5 43.3-41.5 23.8 0.1 43 18.7 43 41.5z"/>
					<path id="&lt;Path&gt;" class="s9" d="m1680.2 1105.6l-704 5v-183.2l704 5.1z"/>
					<path id="&lt;Path&gt;" class="s9" d="m911.7 1269.9c0 22.8-19.2 41.7-43 42.3-23.9 0.5-43.3-17.7-43.3-40.6 0-23 19.4-41.9 43.3-42.3 23.8-0.4 43 17.8 43 40.6z"/>
					<path id="&lt;Path&gt;" class="s9" d="m1680.2 1341.5l-704 18.7v-183.2l704-8.6z"/>
					<path id="&lt;Path&gt;" class="s9" d="m911.7 1771.7c0 22.8-19.2 42.5-43 44-23.9 1.4-43.3-16-43.3-38.9 0-23 19.4-42.7 43.3-44 23.8-1.3 43 16.1 43 38.9z"/>
					<path id="&lt;Path&gt;" class="s9" d="m1680.2 1769.9l-704 43.8v-91.6l704-38.7z"/>
					<path id="&lt;Path&gt;" class="s9" d="m911.7 1936.7c0 22.8-19.2 42.7-43 44.5-23.9 1.8-43.3-15.4-43.3-38.4 0-22.9 19.4-42.9 43.3-44.5 23.8-1.6 43 15.5 43 38.4z"/>
					<path id="&lt;Path&gt;" class="s9" d="m1680.2 1925l-704 52.8v-91.6l704-47.7z"/>
				</g>
			</g>
			<g id="&lt;Group&gt;">
				<g id="&lt;Group&gt;">
					<path id="&lt;Path&gt;" class="s10" d="m2964.1 2922.5c0 51.4-102.1 93.1-228.1 93.1-126 0-228.1-41.7-228.1-93.1 0-51.4 102.1-93.1 228.1-93.1 126 0 228.1 41.7 228.1 93.1z"/>
					<path id="&lt;Path&gt;" class="s11" d="m2964.1 2911.6c0 48.5-102.1 87.9-228.1 87.9-126 0-228.1-39.4-228.1-87.9 0-48.6 102.1-128 228.1-128 126 0 228.1 79.4 228.1 128z"/>
					<path id="&lt;Path&gt;" class="s10" d="m2964.1 2911.6c0-48.6-102.1-128-228.1-128-58.2 0-111.2 17-151.5 40-2.9 5.9-4.2 11.8-3.6 17.3 2.6 27.3 47.1 44.1 72.7 49.7 64.4 13.9 95.8-24.6 148.9-23.1 32.8 0.9 78.3 17.4 132.2 87.2 18.7-12.7 29.4-27.4 29.4-43.1z"/>
					<path id="&lt;Path&gt;" class="s12" d="m2748.5 2827.7c-9.1 2.3-17.6 2.2-25.6 0.2-7.3-1.9-12.3-8.6-12.3-16.1v-257.2h50.7v256.9c0 7.7-5.3 14.3-12.8 16.2z"/>
					<path id="&lt;Path&gt;" class="s13" d="m2748.5 2827.7c-9.1 2.3-17.6 2.2-25.6 0.2-7.3-1.9-12.3-8.6-12.3-16.1v-257.2h50.7v256.9c0 7.7-5.3 14.3-12.8 16.2z"/>
					<g id="&lt;Group&gt;">
						<path id="&lt;Path&gt;" class="s14" d="m2467.9 2446.3l77.5-49c3.3-18.3 39.8-209.7 188.1-269.8 60.3-24.5 125.2-21.6 160.8-20 71.1 3.2 121.8 5.5 146.2 39.4 31.3 43.5-21.2 83-10.3 207.6 4.4 50.8 15.7 73.3 1.7 107-16.9 40.3-55.9 62.7-86.3 75.2-36.2 21.1-99.4 51.1-182.8 58.4-140.6 12.4-245.5-47.9-281.6-71-16-5.1-28.1-18.4-31.5-34.9-3.4-16.7 3.8-33.8 18.2-42.9z"/>
						<path id="&lt;Path&gt;" class="s15" d="m2909.9 2117.7c52.6 1.6 85.3 1 103.4 24.5 19 24.6-0.2 45.6-3.8 133.4-3.2 80 10.9 111.6-15 155.9 0 0-13.1 22.6-33.8 39.5-73.3 59.8-262.4 59.1-342-65.8-63.5-99.6-37-246.4 37.6-295 36.5-23.8 44.9 1.4 253.6 7.5z"/>
						<path id="&lt;Path&gt;" class="s16" d="m2462.3 2402.3l77.5-49c0 0 207.6-68.2 399.6 28 21.5 10.8 34.9 33 34.9 57.1 0 18.4-11.1 35.1-28.1 42.2-33.5 22.9-98.9 60.7-189.1 70.5-143.3 15.8-250-49.9-281.5-71-16-5.1-28.1-18.4-31.5-34.9-3.5-16.7 3.8-33.8 18.2-42.9z"/>
					</g>
				</g>
				<g id="&lt;Group&gt;">
					<path id="&lt;Path&gt;" class="s17" d="m2379.6 2973.2c0 0 6.6 26.8 6.8 36.5 0.2 9.7-106.6 23.2-108.3 16.1-1.7-7.2 16.2-20.2 29.1-25.3 12.9-5.1 50.8-19.1 50.8-19.1z"/>
					<path id="&lt;Path&gt;" class="s18" d="m2351.4 2948.2l6.1 33.5c0 0 13.1 7.2 23.6 0l2.5-37.2z"/>
					<path id="&lt;Path&gt;" class="s19" d="m2574.4 3001.9c0 0 6.6 26.8 6.8 36.5 0.2 9.7-106.6 23.2-108.3 16.1-1.6-7.2 16.3-20.2 29.2-25.3 12.9-5.1 50.8-19.1 50.8-19.1z"/>
					<path id="&lt;Path&gt;" class="s20" d="m2546.2 2976.9l6.1 33.5c0 0 13.2 7.2 23.6 0l2.6-37.2z"/>
					<path id="&lt;Path&gt;" class="s21" d="m2300.2 2065.3q-15.6 39.2-31.1 78.4c1.5 144.2 9 300.5 25.6 467 12.3 123.9 28.3 240.9 46.7 350.4q25.1-3.1 50.2-6.3c20.5-50.2 43.3-125.6 38.7-216-4.8-94.3-34.3-104.5-39.7-194.7-7-116.9 39.4-152 54.3-294.5 5.6-54.6 6.7-125.2-8.1-209.7q-68.3 12.7-136.6 25.4z"/>
					<path id="&lt;Path&gt;" class="s22" d="m2436.8 2039.9q-36.9 6.9-73.8 13.7c-38.4 81.3-44.4 163.2-33.7 198.3 15.2 49.7 45.8 63.6 48.3 114.5 2.4 50.4-26.2 65.8-40.2 126.6-9.7 42.1-3.3 79.5 10 152.7 26.8 147.4 66.4 190 40.2 241.1-7.4 14.5-21.5 32.2-50.6 47.3 1.4 9 2.9 18.1 4.4 27q25.1-3.1 50.2-6.3c20.5-50.2 43.3-125.6 38.7-216-4.8-94.3-34.3-104.5-39.7-194.7-7-116.9 39.4-152 54.3-294.5 5.6-54.6 6.7-125.2-8.1-209.7z"/>
					<path id="&lt;Path&gt;" class="s23" d="m2370.5 2105.2c33.4 125 64.9 259.1 92.4 401.9 33.3 172.3 56.8 335.4 73.1 487.2q27.7-1.4 55.4-2.8c61.2-149.6 57.8-247.5 42.3-310.1-6-24.1-20.9-71.2-29.1-142.7-5.8-49.8-5.6-88.1-5.3-134.1 0.7-100.9 9.5-123.7 4.9-200.4-4.3-72.1-6.9-108.5-29.2-128.1-58.6-51.7-194.2 23.3-204.5 29.1z"/>
					<path id="&lt;Path&gt;" class="s24" d="m1833.8 1814.8c0 0-40.6-3.5-46.5-10.1-5.9-6.6-14.8-17.1-15.7-23.1-0.9-6.1-8.7 2.9-1.6 16 7.1 13.1-13.1 10.3-16.2 10-7.3-0.7-34.9-1.5-34.1 0.2 0.8 1.7-3.3 9.3 16.3 18.2 17.2 7.7 37.7 2.7 48.8 3.2 11.2 0.5 11.2 0.5 11.2 0.5l29.6 2.3z"/>
					<path id="&lt;Path&gt;" class="s25" d="m1810 1795.8q-2.7 20.3-5.4 40.6c26.9 22.5 86.4 65.5 169.1 71.9 145.9 11.4 290.5-96.5 317.5-218 13.3-60.1 2.4-144.5-35-158-10.3-3.8-25.9-3.3-58.1 18.3-85.7 57.6-93 133.3-140.4 184.4-34.1 36.8-101.1 74.2-247.7 60.8z"/>
					<path id="&lt;Path&gt;" class="s26" d="m2257 2170.5c-20-27.9-0.1-57.9 0.5-113.9 0.7-63.4-24.4-72-56.8-174.4-21.5-68.1-42.1-133.5-30.1-213 5.8-38 15.6-102.6 65.6-137.5 25.8-17.9 62.9-19.3 136-21.3 90.4-2.5 135.7-3.8 170.7 11.2 5.1 2.2 111.7 49.6 126 139.6 14.5 91.6-84.9 112.1-88.4 236.1-1.6 55.6 15.9 139.7 27.3 194.2 10.9 52.3 16.6 65.5 7.4 82.3-22 40.6-99.9 35.8-255.6 26.1-61.1-3.8-87.7-8.5-102.6-29.4z"/>
					<path id="&lt;Path&gt;" class="s27" d="m2470 1886.2c8.4 23.5 33.3 39.5 54.2 96.5 4.6 12.3 36.8 99.9 6.1 124.5-17.8 14.3-36.6-8.5-82.4-8-79.4 0.9-111.7 70.2-164.8 56.3-9.2-2.5-21.5-8.2-34.6-22.7-1.2 14.1 0.2 26.1 8.5 37.7 14.9 20.9 41.5 25.6 102.6 29.4 155.7 9.7 233.6 14.5 255.6-26.1 9.2-16.8 3.5-30-7.4-82.3-11.4-54.5-28.9-138.6-27.3-194.2 3.5-124 102.9-144.5 88.4-236.1-3.9-24.5-14.7-45.7-28.4-63.8-123.2 61.7-197 215.2-170.5 288.8z"/>
					<path id="&lt;Path&gt;" class="s28" d="m2645.4 2054.7l-24.2 18.3c-5-4.9-16.4-14.7-33.3-17-18.9-2.6-39.9 4.9-39.9 10.9 0 4.8 13.4 8.6 15.5 9.2 16.7 4.7 28.4-1.3 35.5 4.7 2.5 2.2 5.7 6.2 12.7 9.7 1.9 0.9 3.8 1.7 4.8 1.9 11.2 3.4 28.3-17 29.7-18.8z"/>
					<path id="&lt;Path&gt;" class="s29" d="m2543.3 1726.5c-22-42.7-40.1-109.3-19.1-212 197.9 60.2 310.1 231.6 283.3 376.7-22.1 119.7-132.1 185.9-156.7 200q-10.5-19.6-21.1-39.2c27-35.4 56.5-86.8 47.3-142.1-12.7-76.6-89.2-97-133.7-183.4z"/>
					<path id="&lt;Path&gt;" class="s30" d="m2369.6 1419.2c0 0 4.2 33.4 16.7 57.7 11.2 22 61.9 32.3 72.3 36.5 10.5 4.3-17.2 21.4-45.9 26.7-28.8 5.2-112 5.3-127.8-4.5-15.8-9.8 11.2-11.1 31.2-20.4 20.1-9.2 28.8-50.6 23.7-68.7-5.1-18.1 29.8-27.3 29.8-27.3z"/>
					<path id="&lt;Path&gt;" class="s31" d="m2322.9 1410.7c-16.3-13.6-18.5-15.2-20.5-20.1-8.3-20 5.4-49.3 25.7-57.9 1-0.4 14.6-6 20.5-0.4 4.9 4.8-1.2 12.4 2.8 22.1 3.7 9.1 11.8 9.1 27.7 20.1 13.1 9 21.3 14.7 23.7 23.3 5.1 17.8-14.7 45.8-34.1 46.6-7 0.3-9.2-3.1-45.8-33.7z"/>
					<g id="&lt;Group&gt;">
						<path id="&lt;Path&gt;" class="s32" d="m2367 1447.4c0 0-14.5 19.3-39.4 15.3-22.2-3.6-20.6-54.1-5.3-63.3 5.1-3.1 14.8-3.7 22.3-0.8 4.5 1.8 5.8 3.8 13.2 6.5 6.8 2.5 8.8 1.9 10.7 3.9 2.4 2.4 3.8 8-2 22.3 4.7-4 10-5.1 13.5-3.1 0.5 0.4 2 1.6 2.7 3.2 2.5 6.1-3.4 12.9-15.7 16z"/>
					</g>
				</g>
				<g id="&lt;Group&gt;">
					<path id="&lt;Path&gt;" class="s33" d="m1849.4 2971c-0.8 0-1.5-0.6-1.7-1.5l-130.4-701.3c-0.2-0.9 0.4-1.9 1.4-2 0.9-0.2 1.9 0.4 2 1.4l127 682.4v-728.5c0-1 0.8-1.8 1.7-1.8 1 0 1.8 0.8 1.8 1.8v747.7c0 0.9-0.7 1.7-1.6 1.8q-0.1 0-0.2 0z"/>
					<path id="&lt;Path&gt;" class="s33" d="m1168.6 2992q-0.1 0-0.2-0.1c-0.9 0-1.6-0.8-1.6-1.7v-686.7c0-1 0.8-1.8 1.8-1.8 0.9 0 1.7 0.8 1.7 1.8v665.2l110.9-668c0.2-1 1.1-1.6 2.1-1.5 0.9 0.2 1.6 1.1 1.4 2.1l-114.4 689.2c-0.1 0.8-0.9 1.5-1.7 1.5z"/>
					<path id="&lt;Path&gt;" class="s33" d="m2845.3 3219.2c-0.9 0-1.6-0.6-1.8-1.4l-159.6-756.1c-0.2-0.9 0.4-1.8 1.4-2.1 0.9-0.1 1.9 0.5 2.1 1.4l156.1 739.5v-739.9c0-1 0.8-1.8 1.8-1.8 0.9 0 1.7 0.8 1.7 1.8v756.8c0 0.9-0.6 1.7-1.5 1.8q-0.1 0-0.2 0z"/>
					<path id="&lt;Path&gt;" class="s33" d="m2051.1 3351.4q-0.1 0-0.1 0c-0.9-0.1-1.6-0.9-1.6-1.8v-759.8c0-1 0.8-1.8 1.7-1.8 1 0 1.8 0.8 1.8 1.8v742.3l171.5-843.8c0.2-0.9 1.2-1.5 2.1-1.3 1 0.2 1.6 1.1 1.4 2.1l-175 860.9c-0.2 0.8-0.9 1.4-1.8 1.4z"/>
					<g id="&lt;Group&gt;">
						<path id="&lt;Path&gt;" class="s10" d="m2852.4 2451.3v13.1l-803.1 131-888-289q0-6.6 0-13.1c139.1-41 1691.1 158 1691.1 158z"/>
						<path id="&lt;Path&gt;" class="s12" d="m1898.8 2225.8l953.6 225.5-803.1 131-888-289z"/>
					</g>
				</g>
				<g id="&lt;Group&gt;">
					<path id="&lt;Path&gt;" class="s34" d="m1267.7 3211.5c-7.6 15.5-5.5 22.2-3.6 25.1 5.6 8.6 18.9 0.5 53.8 4.6 4.1 0.5 12 1.6 21.7-0.7 8.3-2 18.2-6.4 17.8-8.7-0.2-0.8-1.7-1.1-2.2-1.2-9.7-2.1-70.3-20.7-70.3-20.7z"/>
					<path id="&lt;Path&gt;" class="s35" d="m1263.1 3177.4l5.4 34.7c0 0 14.9 10.5 18.8-2.3 2.8-9.2 2.7-34 2.7-34z"/>
					<path id="&lt;Path&gt;" class="s36" d="m1439 3194.6l-14.6 39.9-21.3-3.4 4.9-37z"/>
					<path id="&lt;Path&gt;" class="s37" d="m1417.8 3256.5c-10.3-12.2-19.5-11.1-21.4-19.5-1.4-6.6 2.6-14.7 8.7-17.7 8.6-4.4 18.9 2.4 21.3 3.9 15.9 10.3 11.6 26.5 26.6 33.5 3 1.5 7.8 3 12.8 7.7 2.2 2 7.5 7 6.2 10.4-1.4 3.9-10.9 3.8-19.9 3.7-10.8-0.2-16.2-0.2-21.4-3.5-7.2-4.5-5-9.1-12.9-18.5z"/>
					<path id="&lt;Path&gt;" class="s38" d="m1149.3 2347.6c3.9 80.7 15.5 149.5 28.6 205.7 14.2 60.4 21.9 70.7 26.8 112.6 10.6 91.1-18.5 104.8-21.7 208.2-3.5 114.1 28.7 204 41.4 238.3 11.1 30 22.5 54.1 31 70.9 10.7 8.9 26.6 5 43.4 1.2 3.9-103.5 9.6-200.9 13.6-304.4q25-233.9 50-467.8-106.5-32.4-213.1-64.7z"/>
					<path id="&lt;Path&gt;" class="s39" d="m1298.8 3184.5c3.9-103.5 9.6-200.9 13.6-304.4q25-233.9 50-467.8-106.5-32.4-213.1-64.7c0.3 5.3 0.6 10.5 1 15.7 100.8 83.8 121.6 151.5 121.6 198 0.1 56.3-30.1 84.9-22.4 166.4 5.6 58.3 23.4 68.2 24.5 120.9 1.4 67.9-26.9 106.6-40.2 146.2-12.9 38.1-16.6 91.9 11.5 167.7 3.6 7.8 7.1 14.8 10.1 20.8 10.7 8.9 26.6 5 43.4 1.2z"/>
					<path id="&lt;Path&gt;" class="s40" d="m1275.9 2422.7c53.7 86.4 84 154.7 100.5 197 10.1 25.7 19.4 52.6 22.1 88 3.4 43.4-4.4 79.3-11.4 102.3-10.3 29.5-19.4 63.9-24.8 102.6-17.4 125.6 14.2 229.7 38.4 289.4q19 6.6 37.9 13.1c26.7-80 59.1-193.4 81.1-332.9 12-76.2 21.1-136 19.6-211.6-1.6-79.7-15.6-205.6-84.1-355q-89.7 53.6-179.3 107.1z"/>
					<path id="&lt;Path&gt;" class="s41" d="m1290 1731.7c80 12 141.1 24.9 169 66.1 29.6 43.5-15.2 77.7-25.5 174.7-15.7 148.6 70.6 202.1 49.3 351.8-7.2 50.4-23.4 89.6-34.7 113-25.3 21.6-65.6 51.1-120.8 71.7-80.2 30-120.4 14.5-229.1 23-177.7 14-203.2 66.2-284.2 36.2-82-30.4-142.6-115.8-126.2-153.2 9.9-22.3 42.7-9.2 88.8-37.4 59.4-36.4 48.3-84.1 96.2-126.2 68.9-60.5 137.6-2.4 196.4-55 59.6-53.2 64.1-179.5 36.7-254.1-17.9-48.7-19.3-102.1-32.9-152.2-1.1-4.1-2.1-10.8 0.3-18.4 9.4-29.2 62.2-35.9 102.2-40.6 60.9-7.1 108-0.4 114.5 0.6z"/>
					<path id="&lt;Path&gt;" class="s42" d="m822.1 2511.8c24.3-17 9.9-63.2 45.9-88.7 33.3-23.6 60.4 5.8 110-10.6 63.6-21 58.9-82.5 119.8-103.5 43.8-15.1 57.7 12.8 121.4 12.6 63.5-0.1 146.2-28.1 197.5-96.6 21.7-29.1 33.6-59.9 39.8-88.2 18.2 54.5 37.7 107.1 26.3 187.5-7.2 50.4-23.4 89.6-34.7 113-25.3 21.6-65.6 51.1-120.8 71.7-80.2 30-120.4 14.5-229.1 23-177.7 14-203.2 66.2-284.2 36.2-52.4-19.4-95.9-61.3-116.4-98.7 71.5 49.6 106.9 54.6 124.5 42.3z"/>
					<path id="&lt;Path&gt;" class="s43" d="m1333.1 1592.7c0 0 22.9 40.8 24.9 69.7 2 28.9-30.7 27.5-30.7 27.5l1.6 18.3c1.4 15.5 11.8 28.8 26.6 33.9l13 4.5c0 0-83.8 19.8-130.4-11.7l13.2-1.6c18.7-2.2 33.3-17.3 34.8-36.1l0.6-7.8c0 0-16.5-89.9 46.4-96.7z"/>
					<g id="&lt;Group&gt;">
						<path id="&lt;Path&gt;" class="s44" d="m1466.9 2049.9l104-232.2c1.3-2.8 4.3-4.5 7.4-4.1l181.9 22.9c4.8 0.6 7.6 5.8 5.5 10.2l-122.6 250.9c-1.5 3-4.9 4.6-8.2 3.8l-161.9-40.1z"/>
						<path id="&lt;Path&gt;" class="s45" d="m1495.5 2021.8l84.2-188c1.1-2.3 3.5-3.7 6-3.4l147.3 18.6c3.9 0.5 6.2 4.7 4.5 8.3l-99.3 203.1c-1.2 2.4-4 3.7-6.6 3.1l-131.1-32.5z"/>
						<path id="&lt;Path&gt;" class="s46" d="m1610.3 1832.7l6.6-15.1c1-2.1 3.1-3.3 5.4-3.1l75.7 8.9c3.5 0.5 5.6 4.2 4.1 7.4l-7.4 16.4c-1 2.1-3.2 3.3-5.5 3l-74.9-10.2c-3.4-0.5-5.5-4.1-4-7.3z"/>
						<path id="&lt;Path&gt;" class="s47" d="m1713.5 1883.5q-0.2 0-0.4 0l-133.4-17.1c-1.6-0.2-2.8-1.8-2.6-3.4 0.3-1.7 1.8-2.8 3.4-2.6l133.4 17.1c1.6 0.2 2.8 1.7 2.6 3.4-0.2 1.5-1.5 2.6-3 2.6z"/>
						<path id="&lt;Path&gt;" class="s48" d="m1706.6 1897q-0.2 0-0.3-0.1l-132.8-18.4c-1.6-0.2-2.8-1.7-2.5-3.4 0.2-1.6 1.7-2.8 3.4-2.5l132.7 18.4c1.6 0.2 2.8 1.7 2.6 3.4-0.3 1.5-1.6 2.6-3.1 2.6z"/>
						<path id="&lt;Path&gt;" class="s49" d="m1639.9 1918.1q-0.3 0-0.5 0l-72.4-12c-1.6-0.3-2.7-1.9-2.5-3.5 0.3-1.7 1.9-2.8 3.5-2.5l72.4 12.1c1.6 0.2 2.7 1.8 2.5 3.4-0.3 1.5-1.6 2.6-3 2.5z"/>
					</g>
					<path id="&lt;Path&gt;" class="s50" d="m1673.1 2036.2c0 0 29.6-20.2 33.1-34.4 3.4-14.2 2.6-40.9 2.6-40.9l-17.3 37.6c0 0-8.4-2.4-12-14.8-3.6-12.4-9.6-1-7.2 8.4 2.5 9.3 0.8 44.1 0.8 44.1z"/>
					<path id="&lt;Path&gt;" class="s51" d="m1444.9 1783.8c15.6 9.5 39.2 26.3 60.1 53.3 59.3 76.8 36.2 158.7 85.3 187.6 14 8.3 38.7 15 83.2-0.7l17.1 9.1c0 0 20.8 105.9-107.9 109.9-128.7 4-192.8-156-192.8-156z"/>
					<path id="&lt;Path&gt;" class="s52" d="m1320.9 1634c-4.4-0.2-8.1-5.7-11-4-3.1 1.8-2.6 9.8 0.2 15.4 2.3 4.6 6 7.1 8.1 8.3-3.3 4.7-7.4 12.1-9 21.5-3.5 21 8 37.6 12.8 47.4 21.8 43.9-9.1 114.7-43.9 150.9-28.3 29.4-42 18.1-58.8 42-32.6 46.4 14.9 95.7-1.2 157.7-24.4 94.2-171.7 125.3-177.8 126.5-2.4 0.4-4 0.7-6.5 1.2-66.1 12-166.3 30.1-238.3-22.8-53.9-39.6-79.7-110-77-172.6 0.7-16.4 4.3-78.9 54.1-130.8 7.9-8.3 54.6-57 119.1-59 34.2-1 41.3 10.9 67.3 2.8 35.6-10.9 56.9-43.9 70.2-64.4 24.3-37.7 13.9-45.4 31.6-64 34.7-36.5 76.9-9.4 114.1-41.7 36.7-32 13.3-73.7 48.7-101.4 36.6-28.6 107.9-20.4 123.8 12.4 13.6 28.1-13.2 75.5-26.5 74.6z"/>
				</g>
				<g id="&lt;Group&gt;">
					<path id="&lt;Path&gt;" class="s10" d="m756.7 3277.8c0 50.1 99.4 90.6 222 90.6 122.6 0 222-40.5 222-90.6 0-50-99.4-90.6-222-90.6-122.6 0-222 40.6-222 90.6z"/>
					<path id="&lt;Path&gt;" class="s53" d="m756.7 3267.2c0 47.2 99.4 85.5 222 85.5 122.6 0 222-38.3 222-85.5 0-47.2-99.4-124.5-222-124.5-122.6 0-222 77.3-222 124.5z"/>
					<path id="&lt;Path&gt;" class="s10" d="m756.7 3267.2c0-47.2 99.4-124.5 222-124.5 56.6 0 108.2 16.5 147.4 38.9 2.8 5.7 4.1 11.4 3.5 16.9-2.5 26.5-45.9 42.9-70.7 48.3-62.7 13.5-93.3-23.9-144.9-22.5-32 0.9-76.2 16.9-128.7 84.9-18.2-12.4-28.6-26.7-28.6-42z"/>
					<path id="&lt;Path&gt;" class="s12" d="m966.5 3185.6c8.9 2.2 17.2 2.1 25 0.1 7-1.8 11.9-8.3 11.9-15.6v-250.3h-49.4v250c0 7.5 5.2 14 12.5 15.8z"/>
					<path id="&lt;Path&gt;" class="s54" d="m966.5 3185.6c8.9 2.2 17.2 2.1 25 0.1 7-1.8 11.9-8.3 11.9-15.6v-250.3h-49.4v250c0 7.5 5.2 14 12.5 15.8z"/>
					<g id="&lt;Group&gt;">
						<path id="&lt;Path&gt;" class="s55" d="m1239.5 2814.5l-75.4-47.7c-3.1-17.8-38.7-204.1-183-262.6-58.7-23.8-121.8-21-156.5-19.4-69.2 3.1-118.5 5.3-142.3 38.3-30.5 42.3 20.7 80.8 10.1 202-4.3 49.4-15.3 71.4-1.6 104.1 16.3 39.3 54.3 61 83.9 73.2 35.3 20.5 96.7 49.8 177.9 56.9 136.8 12 238.9-46.7 274-69.2 15.6-4.9 27.3-17.9 30.6-33.9 3.4-16.2-3.7-32.9-17.7-41.7z"/>
					</g>
				</g>
				<g id="&lt;Group&gt;">
					<path id="&lt;Path&gt;" class="s56" d="m1500.9 2340.8l646.8-4.9v14.3c0 3.9-2.8 7.1-6.6 7.7l-182.9 28.1c-2.2 0.3-4.4 0.4-9.6 3.8l-443.8-32c-0.9-3.8-3.9-7.1-3.9-11.1z"/>
					<g id="&lt;Group&gt;">
						<path id="&lt;Path&gt;" class="s57" d="m1735.6 2317.2l405.5 26.1c7.2 0.4 13.1-4.5 13.1-11.1v-263.6c0-6.5-5.9-11.9-13.1-11.9h-405.5c-6 0-10.8 4.8-10.8 10.8v238.3c0 5.9 4.8 11 10.8 11.4z"/>
						<path id="&lt;Path&gt;" class="s58" d="m2134.6 2056.7h-412.1c-2.3 0-4.2 1.9-4.2 4.2v251c0 2.5 2.1 4.8 4.6 4.9l411.7 26.5c7.2 0.4 13.1-4.5 13.1-11.1v-263.6c0-6.5-5.9-11.9-13.1-11.9z"/>
						<path id="&lt;Path&gt;" class="s0" d="m1741.8 2300.4l377.6 22.7c5.9 0.3 10.7-3.8 10.7-9.1v-230.8c0-5.4-4.8-9.7-10.7-9.8l-377.6-1.4c-5 0-8.9 4-8.9 8.8v210.2c0 4.9 3.9 9.1 8.9 9.4z"/>
						<path id="&lt;Path&gt;" class="s59" d="m1825.2 2245.1c31.4-15.3 56.1 4 79.9-15.1 14.5-11.6 7.4-20.2 25.2-37.6 19.7-19.2 32.5-12.7 52.3-30 25-21.8 12.5-38.8 34.1-54.5 26.1-19.1 54.3-1.4 79.2-19.7 10.8-7.9 16.7-19.3 19.7-31.5h24.4c4.3 0 7.7 3.1 7.7 7v273.4c0 3.9-3.4 6.8-7.7 6.5l-415.3-26.7c-2.1-0.1-3.9-1.2-5-2.7 30.4-1 49.1-10.3 61-19.8 23.4-18.7 19.3-37.1 44.5-49.3z"/>
						<path id="&lt;Path&gt;" class="s12" d="m1917.6 2063.9c0 2.5 2 4.5 4.6 4.5 2.6 0 4.7-2 4.7-4.5 0-2.4-2.1-4.4-4.7-4.4-2.6 0-4.6 2-4.6 4.4z"/>
						<path id="&lt;Path&gt;" class="s8" d="m1835.5 2289.7h0.7v-205.4h-0.7z"/>
						<path id="&lt;Path&gt;" class="s8" d="m1844.4 2238l275.1 12v-0.7l-275.1-11.9z"/>
						<path id="&lt;Path&gt;" class="s8" d="m1824.3 2292.7l-77.9-4.9v-203.5h77.9z"/>
						<path id="&lt;Path&gt;" class="s8" d="m2113.4 2169.7l-269-6.4v-79h269z"/>
						<path id="&lt;Path&gt;" class="s8" d="m2113.4 2243.7l-269-12v-55.8l269 7.5z"/>
					</g>
					<path id="&lt;Path&gt;" class="s60" d="m1713 2316.5l434.7 27.4-189.5 29.1q-3.3 0.5-6.6 0.2l-450.7-32.4 205.2-24.1q3.4-0.4 6.9-0.2z"/>
					<path id="&lt;Path&gt;" class="s61" d="m2084.3 2344.2l-361.9-23.2-112.1 13 358.9 24.8z"/>
				</g>
			</g>
			<g id="&lt;Group&gt;">
				<path id="&lt;Path&gt;" class="s62" d="m2004.4 2457.1l334.5-50.3c3.7-0.6 7.4-0.5 10.9 0.3l130.3 27.8c9.1 1.9 8.8 15-0.4 16.5l-314.4 53.1q-1.6 0.3-3.2 0l-158.2-35.6c-6.4-1.4-6.1-10.8 0.5-11.8z"/>
				<path id="&lt;Path&gt;" class="s63" d="m2004.4 2447.5l334.5-50.4c3.7-0.6 7.4-0.4 10.9 0.3l130.3 27.8c9.1 2 8.8 15-0.4 16.6l-314.4 53.1q-1.6 0.2-3.2-0.1l-158.2-35.6c-6.4-1.4-6.1-10.7 0.5-11.7z"/>
				<path id="&lt;Path&gt;" class="s64" d="m2004.4 2439.4l334.5-50.4c3.7-0.5 7.4-0.4 10.9 0.3l130.3 27.8c9.1 2 8.8 15-0.4 16.6l-314.4 53.1q-1.6 0.3-3.2-0.1l-158.2-35.5c-6.4-1.5-6.1-10.8 0.5-11.8z"/>
				<path id="&lt;Path&gt;" class="s65" d="m2004.4 2429.7l334.5-50.4c3.7-0.5 7.4-0.4 10.9 0.4l130.3 27.8c9.1 1.9 8.8 15-0.4 16.5l-314.4 53.1q-1.6 0.3-3.2-0.1l-158.2-35.5c-6.4-1.5-6.1-10.8 0.5-11.8z"/>
				<path id="&lt;Path&gt;" class="s66" d="m2004.4 2421.6l334.5-50.4c3.7-0.5 7.4-0.4 10.9 0.4l130.3 27.8c9.1 1.9 8.8 15-0.4 16.5l-314.4 53.1q-1.6 0.3-3.2-0.1l-158.2-35.5c-6.4-1.4-6.1-10.8 0.5-11.8z"/>
				<path id="&lt;Path&gt;" class="s67" d="m2004.4 2412l334.5-50.4c3.7-0.6 7.4-0.5 10.9 0.3l130.3 27.8c9.1 1.9 8.8 15-0.4 16.6l-314.4 53.1q-1.6 0.2-3.2-0.1l-158.2-35.6c-6.4-1.4-6.1-10.7 0.5-11.7z"/>
			</g>
			<g id="&lt;Group&gt;">
				<path id="&lt;Path&gt;" class="s68" d="m1429.4 1512.8c-25-31.3-39.5-68.2-39.5-107.6 0-114.5 122-207.4 272.5-207.4 150.5 0 272.5 92.9 272.5 207.4 0 114.6-122 207.5-272.5 207.5-56.4 0-108.8-13.1-152.3-35.4-28.7 4.9-73.3 13.1-96.8 17.5-7 1.3-12.6-5.5-10.2-12.1z"/>
				<g id="&lt;Group&gt;" style="opacity: .3;mix-blend-mode: multiply">
					<path id="&lt;Path&gt;" class="s69" d="m1513.3 1449.1c61.1-25.6 128.3 28.6 170.3-9.3 42.3-38.1-3.4-113.4 37.1-167.1 19.4-25.7 51.9-37.8 89-42 75.3 36.9 125.2 101.3 125.2 174.5 0 114.6-122 207.5-272.5 207.5-56.4 0-108.8-13.1-152.3-35.4-22.6 3.9-55.2 9.8-79.5 14.3 18-92.9 50.9-129.1 82.7-142.5z"/>
				</g>
			</g>
		</g>
	</g>
</svg>